999
dxfrw 0.6.3
  0
SECTION
  2
HEADER
  9
$ACADVER
  1
AC1021
  9
$DWGCODEPAGE
  3
ANSI_1252
  9
$INSBASE
 10
0
 20
0
 30
0
  9
$EXTMIN
 10
0.544481
 20
0
 30
0
  9
$EXTMAX
 10
677.877819
 20
381.000001
 30
0
  9
$LIMMIN
 10
0
 20
0
  9
$LIMMAX
 10
420
 20
297
  9
$ORTHOMODE
 70
    0
  9
$REGENMODE
 70
    1
  9
$FILLMODE
 70
    1
  9
$QTEXTMODE
 70
    0
  9
$MIRRTEXT
 70
    0
  9
$LTSCALE
 40
1
  9
$ATTMODE
 70
    0
  9
$TEXTSIZE
 40
2.5
  9
$TRACEWID
 40
15.68
  9
$TEXTSTYLE
  7
STANDARD
  9
$CLAYER
  8
0
  9
$CELTYPE
  6
BYLAYER
  9
$CECOLOR
 62
  256
  9
$CELTSCALE
 40
1
  9
$DISPSILH
 70
    0
  9
$DIMSCALE
 40
2.5
  9
$DIMASZ
 40
2.5
  9
$DIMEXO
 40
0.625
  9
$DIMDLI
 40
3.75
  9
$DIMRND
 40
0
  9
$DIMDLE
 40
0
  9
$DIMEXE
 40
1.25
  9
$DIMTP
 40
0
  9
$DIMTM
 40
0
  9
$DIMTXT
 40
2.5
  9
$DIMCEN
 40
2.5
  9
$DIMTSZ
 40
0
  9
$DIMTOL
 70
    0
  9
$DIMLIM
 70
    0
  9
$DIMTIH
 70
    0
  9
$DIMTOH
 70
    0
  9
$DIMSE1
 70
    0
  9
$DIMSE2
 70
    0
  9
$DIMTAD
 70
    1
  9
$DIMZIN
 70
    8
  9
$DIMBLK
  1

  9
$DIMASO
 70
    1
  9
$DIMSHO
 70
    1
  9
$DIMPOST
  1

  9
$DIMAPOST
  1

  9
$DIMALT
 70
    0
  9
$DIMALTD
 70
    3
  9
$DIMALTF
 40
0.03937
  9
$DIMLFAC
 40
1
  9
$DIMTOFL
 70
    1
  9
$DIMTVP
 40
0
  9
$DIMTIX
 70
    0
  9
$DIMSOXD
 70
    0
  9
$DIMSAH
 70
    0
  9
$DIMBLK1
  1

  9
$DIMBLK2
  1

  9
$DIMSTYLE
  2
Standard
  9
$DIMCLRD
 70
    0
  9
$DIMCLRE
 70
    0
  9
$DIMCLRT
 70
    0
  9
$DIMTFAC
 40
1
  9
$DIMGAP
 40
0.625
  9
$DIMJUST
 70
    0
  9
$DIMSD1
 70
    0
  9
$DIMSD2
 70
    0
  9
$DIMTOLJ
 70
    0
  9
$DIMTZIN
 70
    8
  9
$DIMALTZ
 70
    0
  9
$DIMALTTZ
 70
    0
  9
$DIMUPT
 70
    0
  9
$DIMDEC
 70
    2
  9
$DIMTDEC
 70
    2
  9
$DIMALTU
 70
    2
  9
$DIMALTTD
 70
    3
  9
$DIMTXSTY
  7
STANDARD
  9
$DIMAUNIT
 70
    0
  9
$DIMADEC
 70
    0
  9
$DIMALTRND
 40
0
  9
$DIMAZIN
 70
    0
  9
$DIMDSEP
 70
   44
  9
$DIMATFIT
 70
    3
  9
$DIMFRAC
 70
    0
  9
$DIMLDRBLK
  1
STANDARD
  9
$DIMLUNIT
 70
    2
  9
$DIMLWD
 70
   -2
  9
$DIMLWE
 70
   -2
  9
$DIMTMOVE
 70
    0
  9
$DIMFXL
 40
1
  9
$DIMFXLON
 70
    0
  9
$DIMJOGANG
 40
0.7854
  9
$DIMTFILL
 70
    0
  9
$DIMTFILLCLR
 70
    0
  9
$DIMARCSYM
 70
    0
  9
$DIMLTYPE
  6

  9
$DIMLTEX1
  6

  9
$DIMLTEX2
  6

  9
$LUNITS
 70
    2
  9
$LUPREC
 70
    4
  9
$SKETCHINC
 40
1
  9
$FILLETRAD
 40
0
  9
$AUNITS
 70
    0
  9
$AUPREC
 70
    2
  9
$MENU
  1
.
  9
$ELEVATION
 40
0
  9
$PELEVATION
 40
0
  9
$THICKNESS
 40
0
  9
$LIMCHECK
 70
    0
  9
$CHAMFERA
 40
0
  9
$CHAMFERB
 40
0
  9
$CHAMFERC
 40
0
  9
$CHAMFERD
 40
0
  9
$SKPOLY
 70
    0
  9
$USRTIMER
 70
    1
  9
$ANGBASE
 50
0
  9
$ANGDIR
 70
    0
  9
$PDMODE
 70
   34
  9
$PDSIZE
 40
0
  9
$PLINEWID
 40
0
  9
$SPLFRAME
 70
    0
  9
$SPLINETYPE
 70
    2
  9
$SPLINESEGS
 70
    8
  9
$HANDSEED
  5
20000
  9
$SURFTAB1
 70
    6
  9
$SURFTAB2
 70
    6
  9
$SURFTYPE
 70
    6
  9
$SURFU
 70
    6
  9
$SURFV
 70
    6
  9
$UCSBASE
  2

  9
$UCSNAME
  2

  9
$UCSORG
 10
0
 20
0
 30
0
  9
$UCSXDIR
 10
1
 20
0
 30
0
  9
$UCSYDIR
 10
0
 20
1
 30
0
  9
$UCSORTHOREF
  2

  9
$UCSORTHOVIEW
 70
    0
  9
$UCSORGTOP
 10
0
 20
0
 30
0
  9
$UCSORGBOTTOM
 10
0
 20
0
 30
0
  9
$UCSORGLEFT
 10
0
 20
0
 30
0
  9
$UCSORGRIGHT
 10
0
 20
0
 30
0
  9
$UCSORGFRONT
 10
0
 20
0
 30
0
  9
$UCSORGBACK
 10
0
 20
0
 30
0
  9
$PUCSBASE
  2

  9
$PUCSNAME
  2

  9
$PUCSORG
 10
0
 20
0
 30
0
  9
$PUCSXDIR
 10
1
 20
0
 30
0
  9
$PUCSYDIR
 10
0
 20
1
 30
0
  9
$PUCSORTHOREF
  2

  9
$PUCSORTHOVIEW
 70
    0
  9
$PUCSORGTOP
 10
0
 20
0
 30
0
  9
$PUCSORGBOTTOM
 10
0
 20
0
 30
0
  9
$PUCSORGLEFT
 10
0
 20
0
 30
0
  9
$PUCSORGRIGHT
 10
0
 20
0
 30
0
  9
$PUCSORGFRONT
 10
0
 20
0
 30
0
  9
$PUCSORGBACK
 10
0
 20
0
 30
0
  9
$USERI1
 70
    0
  9
$USERI2
 70
    0
  9
$USERI3
 70
    0
  9
$USERI4
 70
    0
  9
$USERI5
 70
    0
  9
$USERR1
 40
0
  9
$USERR2
 40
0
  9
$USERR3
 40
0
  9
$USERR4
 40
0
  9
$USERR5
 40
0
  9
$WORLDVIEW
 70
    1
  9
$SHADEDGE
 70
    3
  9
$SHADEDIF
 70
   70
  9
$TILEMODE
 70
    1
  9
$MAXACTVP
 70
   64
  9
$PINSBASE
 10
0
 20
0
 30
0
  9
$PLIMCHECK
 70
    0
  9
$PEXTMIN
 10
0
 20
0
 30
0
  9
$PEXTMAX
 10
0
 20
0
 30
0
  9
$GRIDMODE
 70
    0
  9
$SNAPSTYLE
 70
    0
  9
$PLIMMIN
 10
0
 20
0
  9
$PLIMMAX
 10
210
 20
297
  9
$UNITMODE
 70
    0
  9
$VISRETAIN
 70
    1
  9
$PLINEGEN
 70
    0
  9
$PSLTSCALE
 70
    1
  9
$TREEDEPTH
 70
 3020
  9
$CMLSTYLE
  2
Standard
  9
$CMLJUST
 70
    0
  9
$CMLSCALE
 40
20
  9
$PROXYGRAPHICS
 70
    1
  9
$MEASUREMENT
 70
    1
  9
$CELWEIGHT
370
   -1
  9
$ENDCAPS
280
    0
  9
$JOINSTYLE
280
    0
  9
$LWDISPLAY
290
    0
  9
$INSUNITS
 70
    4
  9
$HYPERLINKBASE
  1

  9
$STYLESHEET
  1

  9
$XEDIT
290
    1
  9
$CEPSNTYPE
380
    0
  9
$PSTYLEMODE
290
    1
  9
$EXTNAMES
290
    1
  9
$PSVPSCALE
 40
1
  9
$OLESTARTUP
290
    0
  9
$SORTENTS
280
  127
  9
$INDEXCTL
280
    0
  9
$HIDETEXT
280
    1
  9
$XCLIPFRAME
290
    0
  9
$HALOGAP
280
    0
  9
$OBSCOLOR
 70
  257
  9
$OBSLTYPE
280
    0
  9
$INTERSECTIONDISPLAY
280
    0
  9
$INTERSECTIONCOLOR
 70
  257
  9
$DIMASSOC
280
    1
  9
$PROJECTNAME
  1

  9
$CAMERADISPLAY
290
    0
  9
$LENSLENGTH
 40
50
  9
$CAMERAHEIGHT
 40
0
  9
$STEPSPERSEC
 40
2
  9
$STEPSIZE
 40
50
  9
$3DDWFPREC
 40
2
  9
$PSOLWIDTH
 40
5
  9
$PSOLHEIGHT
 40
80
  9
$LOFTANG1
 40
1.570796326794897
  9
$LOFTANG2
 40
1.570796326794897
  9
$LOFTMAG1
 40
0
  9
$LOFTMAG2
 40
0
  9
$LOFTPARAM
 70
    7
  9
$LOFTNORMALS
280
    1
  9
$LATITUDE
 40
1
  9
$LONGITUDE
 40
1
  9
$NORTHDIRECTION
 40
0
  9
$TIMEZONE
 70
-8000
  9
$LIGHTGLYPHDISPLAY
280
    1
  9
$TILEMODELIGHTSYNCH
280
    1
  9
$SOLIDHIST
280
    1
  9
$SHOWHIST
280
    1
  9
$DWFFRAME
280
    2
  9
$DGNFRAME
280
    0
  9
$REALWORLDSCALE
290
    1
  9
$INTERFERECOLOR
 62
    1
  9
$CSHADOW
280
    0
  9
$SHADOWPLANELOCATION
 40
0
  0
ENDSEC
  0
SECTION
  2
CLASSES
  0
ENDSEC
  0
SECTION
  2
TABLES
  0
TABLE
  2
VPORT
  5
8
330
0
100
AcDbSymbolTable
 70
    1
  0
VPORT
  5
31
330
2
100
AcDbSymbolTableRecord
100
AcDbViewportTableRecord
  2
*ACTIVE
 70
    0
 10
0
 20
0
 11
1
 21
1
 12
590.5490552565836
 22
294.7253499575634
 13
0
 23
0
 14
10
 24
10
 15
10
 25
10
 16
0
 26
0
 36
1
 17
0
 27
0
 37
0
 40
822.3020323039595
 41
1.919857524487979
 42
50
 43
0
 44
0
 50
0
 51
0
 71
    0
 72
  100
 73
    1
 74
    3
 75
    0
 76
    0
 77
    0
 78
    0
281
    0
 65
    1
110
0
120
0
130
0
111
1
121
0
131
0
112
0
122
1
132
0
 79
    0
146
0
348
10020
 60
    7
 61
    5
292
1
282
    1
141
0
142
0
 63
  250
421
3358443
  0
ENDTAB
  0
TABLE
  2
LTYPE
  5
5
330
0
100
AcDbSymbolTable
 70
    4
  0
LTYPE
  5
14
330
5
100
AcDbSymbolTableRecord
100
AcDbLinetypeTableRecord
  2
ByBlock
 70
    0
  3

 72
   65
 73
    0
 40
0
  0
LTYPE
  5
15
330
5
100
AcDbSymbolTableRecord
100
AcDbLinetypeTableRecord
  2
ByLayer
 70
    0
  3

 72
   65
 73
    0
 40
0
  0
LTYPE
  5
16
330
5
100
AcDbSymbolTableRecord
100
AcDbLinetypeTableRecord
  2
Continuous
 70
    0
  3
Solid line
 72
   65
 73
    0
 40
0
  0
LTYPE
  5
32
330
5
100
AcDbSymbolTableRecord
100
AcDbLinetypeTableRecord
  2
DOT
 70
    0
  3
Dot . . . . . . . . . . . . . . . . . . . . . .
 72
   65
 73
    2
 40
6.35
 49
0
 74
    0
 49
-6.35
 74
    0
  0
LTYPE
  5
33
330
5
100
AcDbSymbolTableRecord
100
AcDbLinetypeTableRecord
  2
DOTTINY
 70
    0
  3
Dot (.15x) .....................................
 72
   65
 73
    2
 40
0.9525
 49
0
 74
    0
 49
-0.9525
 74
    0
  0
LTYPE
  5
34
330
5
100
AcDbSymbolTableRecord
100
AcDbLinetypeTableRecord
  2
DOT2
 70
    0
  3
Dot (.5x) .....................................
 72
   65
 73
    2
 40
3.175
 49
0
 74
    0
 49
-3.175
 74
    0
  0
LTYPE
  5
35
330
5
100
AcDbSymbolTableRecord
100
AcDbLinetypeTableRecord
  2
DOTX2
 70
    0
  3
Dot (2x) .  .  .  .  .  .  .  .  .  .  .  .  .
 72
   65
 73
    2
 40
12.7
 49
0
 74
    0
 49
-12.7
 74
    0
  0
LTYPE
  5
36
330
5
100
AcDbSymbolTableRecord
100
AcDbLinetypeTableRecord
  2
DASHED
 70
    0
  3
Dashed _ _ _ _ _ _ _ _ _ _ _ _ _ _ _ _ _
 72
   65
 73
    2
 40
19.05
 49
12.7
 74
    0
 49
-6.35
 74
    0
  0
LTYPE
  5
37
330
5
100
AcDbSymbolTableRecord
100
AcDbLinetypeTableRecord
  2
DASHEDTINY
 70
    0
  3
Dashed (.15x) _ _ _ _ _ _ _ _ _ _ _ _ _ _ _ _ _
 72
   65
 73
    2
 40
2.8575
 49
1.905
 74
    0
 49
-0.9525
 74
    0
  0
LTYPE
  5
38
330
5
100
AcDbSymbolTableRecord
100
AcDbLinetypeTableRecord
  2
DASHED2
 70
    0
  3
Dashed (.5x) _ _ _ _ _ _ _ _ _ _ _ _ _ _ _ _ _
 72
   65
 73
    2
 40
9.524999999999999
 49
6.35
 74
    0
 49
-3.175
 74
    0
  0
LTYPE
  5
39
330
5
100
AcDbSymbolTableRecord
100
AcDbLinetypeTableRecord
  2
DASHEDX2
 70
    0
  3
Dashed (2x) ____  ____  ____  ____  ____  ___
 72
   65
 73
    2
 40
38.09999999999999
 49
25.4
 74
    0
 49
-12.7
 74
    0
  0
LTYPE
  5
3A
330
5
100
AcDbSymbolTableRecord
100
AcDbLinetypeTableRecord
  2
DASHDOT
 70
    0
  3
Dash dot __ . __ . __ . __ . __ . __ . __ . __
 72
   65
 73
    4
 40
25.4
 49
12.7
 74
    0
 49
-6.35
 74
    0
 49
0
 74
    0
 49
-6.35
 74
    0
  0
LTYPE
  5
3B
330
5
100
AcDbSymbolTableRecord
100
AcDbLinetypeTableRecord
  2
DASHDOTTINY
 70
    0
  3
Dash dot (.15x) _._._._._._._._._._._._._._._.
 72
   65
 73
    4
 40
3.81
 49
1.905
 74
    0
 49
-0.9525
 74
    0
 49
0
 74
    0
 49
-0.9525
 74
    0
  0
LTYPE
  5
3C
330
5
100
AcDbSymbolTableRecord
100
AcDbLinetypeTableRecord
  2
DASHDOT2
 70
    0
  3
Dash dot (.5x) _._._._._._._._._._._._._._._.
 72
   65
 73
    4
 40
12.7
 49
6.35
 74
    0
 49
-3.175
 74
    0
 49
0
 74
    0
 49
-3.175
 74
    0
  0
LTYPE
  5
3D
330
5
100
AcDbSymbolTableRecord
100
AcDbLinetypeTableRecord
  2
DASHDOTX2
 70
    0
  3
Dash dot (2x) ____  .  ____  .  ____  .  ___
 72
   65
 73
    4
 40
50.8
 49
25.4
 74
    0
 49
-12.7
 74
    0
 49
0
 74
    0
 49
-12.7
 74
    0
  0
LTYPE
  5
3E
330
5
100
AcDbSymbolTableRecord
100
AcDbLinetypeTableRecord
  2
DIVIDE
 70
    0
  3
Divide ____ . . ____ . . ____ . . ____ . . ____
 72
   65
 73
    6
 40
31.75
 49
12.7
 74
    0
 49
-6.35
 74
    0
 49
0
 74
    0
 49
-6.35
 74
    0
 49
0
 74
    0
 49
-6.35
 74
    0
  0
LTYPE
  5
3F
330
5
100
AcDbSymbolTableRecord
100
AcDbLinetypeTableRecord
  2
DIVIDETINY
 70
    0
  3
Divide (.15x) __..__..__..__..__..__..__..__.._
 72
   65
 73
    6
 40
4.7625
 49
1.905
 74
    0
 49
-0.9525
 74
    0
 49
0
 74
    0
 49
-0.9525
 74
    0
 49
0
 74
    0
 49
-0.9525
 74
    0
  0
LTYPE
  5
40
330
5
100
AcDbSymbolTableRecord
100
AcDbLinetypeTableRecord
  2
DIVIDE2
 70
    0
  3
Divide (.5x) __..__..__..__..__..__..__..__.._
 72
   65
 73
    6
 40
15.875
 49
6.35
 74
    0
 49
-3.175
 74
    0
 49
0
 74
    0
 49
-3.175
 74
    0
 49
0
 74
    0
 49
-3.175
 74
    0
  0
LTYPE
  5
41
330
5
100
AcDbSymbolTableRecord
100
AcDbLinetypeTableRecord
  2
DIVIDEX2
 70
    0
  3
Divide (2x) ________  .  .  ________  .  .  _
 72
   65
 73
    6
 40
63.5
 49
25.4
 74
    0
 49
-12.7
 74
    0
 49
0
 74
    0
 49
-12.7
 74
    0
 49
0
 74
    0
 49
-12.7
 74
    0
  0
LTYPE
  5
42
330
5
100
AcDbSymbolTableRecord
100
AcDbLinetypeTableRecord
  2
BORDER
 70
    0
  3
Border __ __ . __ __ . __ __ . __ __ . __ __ .
 72
   65
 73
    6
 40
44.45
 49
12.7
 74
    0
 49
-6.35
 74
    0
 49
12.7
 74
    0
 49
-6.35
 74
    0
 49
0
 74
    0
 49
-6.35
 74
    0
  0
LTYPE
  5
43
330
5
100
AcDbSymbolTableRecord
100
AcDbLinetypeTableRecord
  2
BORDERTINY
 70
    0
  3
Border (.15x) __.__.__.__.__.__.__.__.__.__.__.
 72
   65
 73
    6
 40
6.6675
 49
1.905
 74
    0
 49
-0.9525
 74
    0
 49
1.905
 74
    0
 49
-0.9525
 74
    0
 49
0
 74
    0
 49
-0.9525
 74
    0
  0
LTYPE
  5
44
330
5
100
AcDbSymbolTableRecord
100
AcDbLinetypeTableRecord
  2
BORDER2
 70
    0
  3
Border (.5x) __.__.__.__.__.__.__.__.__.__.__.
 72
   65
 73
    6
 40
22.225
 49
6.35
 74
    0
 49
-3.175
 74
    0
 49
6.35
 74
    0
 49
-3.175
 74
    0
 49
0
 74
    0
 49
-3.175
 74
    0
  0
LTYPE
  5
45
330
5
100
AcDbSymbolTableRecord
100
AcDbLinetypeTableRecord
  2
BORDERX2
 70
    0
  3
Border (2x) ____  ____  .  ____  ____  .  ___
 72
   65
 73
    6
 40
88.89999999999999
 49
25.4
 74
    0
 49
-12.7
 74
    0
 49
25.4
 74
    0
 49
-12.7
 74
    0
 49
0
 74
    0
 49
-12.7
 74
    0
  0
LTYPE
  5
46
330
5
100
AcDbSymbolTableRecord
100
AcDbLinetypeTableRecord
  2
CENTER
 70
    0
  3
Center ____ _ ____ _ ____ _ ____ _ ____ _ ____
 72
   65
 73
    4
 40
50.8
 49
31.75
 74
    0
 49
-6.35
 74
    0
 49
6.35
 74
    0
 49
-6.35
 74
    0
  0
LTYPE
  5
47
330
5
100
AcDbSymbolTableRecord
100
AcDbLinetypeTableRecord
  2
CENTERTINY
 70
    0
  3
Center (.15x) ___ _ ___ _ ___ _ ___ _ ___ _ ___
 72
   65
 73
    4
 40
7.619999999999999
 49
4.7625
 74
    0
 49
-0.9525
 74
    0
 49
0.9525
 74
    0
 49
-0.9525
 74
    0
  0
LTYPE
  5
48
330
5
100
AcDbSymbolTableRecord
100
AcDbLinetypeTableRecord
  2
CENTER2
 70
    0
  3
Center (.5x) ___ _ ___ _ ___ _ ___ _ ___ _ ___
 72
   65
 73
    4
 40
28.575
 49
19.05
 74
    0
 49
-3.175
 74
    0
 49
3.175
 74
    0
 49
-3.175
 74
    0
  0
LTYPE
  5
49
330
5
100
AcDbSymbolTableRecord
100
AcDbLinetypeTableRecord
  2
CENTERX2
 70
    0
  3
Center (2x) ________  __  ________  __  _____
 72
   65
 73
    4
 40
101.6
 49
63.5
 74
    0
 49
-12.7
 74
    0
 49
12.7
 74
    0
 49
-12.7
 74
    0
  0
ENDTAB
  0
TABLE
  2
LAYER
  5
2
330
0
100
AcDbSymbolTable
 70
    1
  0
LAYER
  5
10
330
2
100
AcDbSymbolTableRecord
100
AcDbLayerTableRecord
  2
0
 70
    0
 62
    7
  6
CONTINUOUS
370
   -3
390
F
  0
ENDTAB
  0
TABLE
  2
STYLE
  5
3
330
0
100
AcDbSymbolTable
 70
    3
  0
STYLE
  5
4A
330
2
100
AcDbSymbolTableRecord
100
AcDbTextStyleTableRecord
  2
Standard
 70
    0
 40
0
 41
1
 50
0
 71
    0
 42
1
  3
txt
  4

  0
ENDTAB
  0
TABLE
  2
VIEW
  5
6
330
0
100
AcDbSymbolTable
 70
    0
  0
ENDTAB
  0
TABLE
  2
UCS
  5
7
330
0
100
AcDbSymbolTable
 70
    0
  0
ENDTAB
  0
TABLE
  2
APPID
  5
9
330
0
100
AcDbSymbolTable
 70
    1
  0
APPID
  5
12
330
9
100
AcDbSymbolTableRecord
100
AcDbRegAppTableRecord
  2
ACAD
 70
    0
  0
APPID
  5
4B
330
9
100
AcDbSymbolTableRecord
100
AcDbRegAppTableRecord
  2
LibreCad
 70
    0
  0
ENDTAB
  0
TABLE
  2
DIMSTYLE
  5
A
330
0
100
AcDbSymbolTable
 70
    1
100
AcDbDimStyleTable
 71
    1
  0
DIMSTYLE
105
4C
330
A
100
AcDbSymbolTableRecord
100
AcDbDimStyleTableRecord
  2
Standard
 70
    0
 40
2.5
 41
2.5
 42
0.625
 43
0.38
 44
1.25
 45
0
 46
0
 47
0
 48
0
 49
1
140
2.5
141
0.09
142
0
143
25.4
144
1
145
0
146
1
147
0.625
148
0
 71
    0
 72
    0
 73
    0
 74
    1
 75
    0
 76
    0
 77
    0
 78
    8
 79
    0
170
    0
171
    2
172
    0
173
    0
174
    0
175
    0
176
    0
177
    0
178
    0
179
    0
271
    2
272
    4
273
    2
274
    2
275
    0
276
    0
277
    2
278
   44
279
    0
280
    0
281
    0
282
    0
283
    1
284
    0
285
    0
286
    0
288
    0
289
    3
340
STANDARD
341

371
   -2
372
   -2
  0
ENDTAB
  0
TABLE
  2
BLOCK_RECORD
  5
1
330
0
100
AcDbSymbolTable
 70
    2
  0
BLOCK_RECORD
  5
1F
330
1
100
AcDbSymbolTableRecord
100
AcDbBlockTableRecord
  2
*Model_Space
 70
    0
280
    1
281
    0
  0
BLOCK_RECORD
  5
1E
330
1
100
AcDbSymbolTableRecord
100
AcDbBlockTableRecord
  2
*Paper_Space
 70
    0
280
    1
281
    0
  0
ENDTAB
  0
ENDSEC
  0
SECTION
  2
BLOCKS
  0
BLOCK
  5
20
330
1F
100
AcDbEntity
  8
0
100
AcDbBlockBegin
  2
*Model_Space
 70
    0
 10
0
 20
0
 30
0
  3
*Model_Space
  1

  0
ENDBLK
  5
21
330
1F
100
AcDbEntity
  8
0
100
AcDbBlockEnd
  0
BLOCK
  5
1C
330
1B
100
AcDbEntity
  8
0
100
AcDbBlockBegin
  2
*Paper_Space
 70
    0
 10
0
 20
0
 30
0
  3
*Paper_Space
  1

  0
ENDBLK
  5
1D
330
1F
100
AcDbEntity
  8
0
100
AcDbBlockEnd
  0
ENDSEC
  0
SECTION
  2
ENTITIES
  0
LINE
  5
4D
100
AcDbEntity
  8
0
  6
ByLayer
 62
    7
370
   -1
100
AcDbLine
 10
279.918663
 20
174.454286
 11
278.786855
 21
174.702862
  0
LINE
  5
4E
100
AcDbEntity
  8
0
  6
ByLayer
 62
    7
370
   -1
100
AcDbLine
 10
278.786855
 20
174.702862
 11
278.990504
 21
177.574358
  0
SPLINE
  5
4F
100
AcDbEntity
  8
0
  6
ByLayer
 62
    7
370
   -1
100
AcDbSpline
210
0
220
0
230
0
 70
    8
 71
    3
 72
   34
 73
   30
 74
    0
 42
1e-07
 43
1e-07
 40
0
 40
0
 40
0
 40
0
 40
0.357367
 40
0.535646
 40
0.976113
 40
2.030167
 40
2.996553
 40
3.678491
 40
4.161646
 40
5.118301
 40
6.367274
 40
7.761003
 40
9.097451
 40
10.099889
 40
10.782016
 40
11.261479
 40
11.446964
 40
11.913599
 40
12.992953
 40
14.452309
 40
15.95564
 40
17.154528
 40
17.80234
 40
19.223419
 40
21.278735
 40
22.68575
 40
23.362211
 40
24.092336
 40
25.181795
 40
25.181795
 40
25.181795
 40
25.181795
 10
270.762386
 20
172.494755
 30
0
 10
270.894454
 20
172.55329
 30
0
 10
271.092405
 20
172.641027
 30
0
 10
270.965696
 20
173.005664
 30
0
 10
270.348056
 20
173.081861
 30
0
 10
269.655177
 20
173.539296
 30
0
 10
269.008251
 20
174.082392
 30
0
 10
268.497951
 20
174.796958
 30
0
 10
269.080925
 20
175.35818
 30
0
 10
269.775144
 20
175.852917
 30
0
 10
270.838254
 20
176.450695
 30
0
 10
271.979206
 20
177.114008
 30
0
 10
272.999252
 20
177.839202
 30
0
 10
273.737863
 20
178.516624
 30
0
 10
274.220988
 20
179.075224
 30
0
 10
274.497953
 20
179.385095
 30
0
 10
274.897671
 20
179.615836
 30
0
 10
274.857461
 20
178.705082
 30
0
 10
275.146107
 20
177.959422
 30
0
 10
275.307865
 20
176.52749
 30
0
 10
275.568897
 20
175.1817
 30
0
 10
275.843641
 20
174.119633
 30
0
 10
276.211898
 20
173.021272
 30
0
 10
277.828276
 20
172.843181
 30
0
 10
279.285366
 20
172.701802
 30
0
 10
280.825365
 20
172.495865
 30
0
 10
281.483916
 20
173.431235
 30
0
 10
280.842715
 20
174.190469
 30
0
 10
280.264727
 20
174.355484
 30
0
 10
279.918663
 20
174.454286
 30
0
  0
LINE
  5
50
100
AcDbEntity
  8
0
  6
ByLayer
 62
    7
370
   -1
100
AcDbLine
 10
270.762386
 20
172.494755
 11
270.762386
 21
172.494755
  0
SPLINE
  5
51
100
AcDbEntity
  8
0
  6
ByLayer
 62
    7
370
   -1
100
AcDbSpline
210
0
220
0
230
0
 70
    8
 71
    3
 72
   73
 73
   69
 74
    0
 42
1e-07
 43
1e-07
 40
0
 40
0
 40
0
 40
0
 40
1.563006
 40
2.895356
 40
3.712966
 40
4.190102
 40
4.785784
 40
6.475397
 40
8.218961999999999
 40
9.533296999999999
 40
10.883632
 40
12.041125
 40
12.711489
 40
13.168311
 40
14.376591
 40
16.332513
 40
19.375279
 40
24.343416
 40
28.509438
 40
30.276659
 40
30.57086
 40
31.055226
 40
31.652187
 40
32.456863
 40
33.116818
 40
34.32371
 40
35.48512
 40
36.073151
 40
36.636956
 40
37.135548
 40
37.617658
 40
38.128307
 40
38.611452
 40
39.087772
 40
39.473341
 40
39.864209
 40
40.386488
 40
40.963575
 40
41.952936
 40
43.356843
 40
46.01142
 40
50.206544
 40
55.433335
 40
60.591247
 40
62.286001
 40
63.123378
 40
64.046582
 40
64.73598699999999
 40
65.35072599999999
 40
65.776876
 40
66.183121
 40
66.740893
 40
67.34850299999999
 40
68.085312
 40
68.471389
 40
69.126031
 40
71.253513
 40
73.791017
 40
75.333697
 40
75.83491100000001
 40
76.56708399999999
 40
77.38493200000001
 40
78.364554
 40
79.073751
 40
79.91404300000001
 40
80.60829099999999
 40
81.24876500000001
 40
81.709744
 40
81.709744
 40
81.709744
 40
81.709744
 10
278.990504
 20
177.574358
 30
0
 10
279.030854
 20
178.089761
 30
0
 10
279.105599
 20
179.044509
 30
0
 10
279.299958
 20
180.313753
 30
0
 10
279.397146
 20
181.088198
 30
0
 10
279.769509
 20
181.866161
 30
0
 10
280.478436
 20
180.75417
 30
0
 10
280.950847
 20
179.780018
 30
0
 10
281.708647
 20
178.290619
 30
0
 10
282.113471
 20
176.880674
 30
0
 10
282.112372
 20
175.589022
 30
0
 10
282.089975
 20
174.54765
 30
0
 10
282.180246
 20
173.75501
 30
0
 10
282.815227
 20
173.191698
 30
0
 10
284.275626
 20
173.818455
 30
0
 10
284.185645
 20
176.159067
 30
0
 10
283.640048
 20
179.276012
 30
0
 10
282.494179
 20
183.423668
 30
0
 10
282.327922
 20
186.576802
 30
0
 10
281.871143
 20
189.276575
 30
0
 10
282.712241
 20
189.58457
 30
0
 10
282.982265
 20
189.976856
 30
0
 10
283.317223
 20
190.490982
 30
0
 10
283.599001
 20
191.178423
 30
0
 10
284.522202
 20
191.441304
 30
0
 10
285.525329
 20
191.283528
 30
0
 10
286.479461
 20
191.1741
 30
0
 10
287.317054
 20
191.311673
 30
0
 10
287.538781
 20
191.878168
 30
0
 10
287.625326
 20
192.379974
 30
0
 10
287.514989
 20
192.885121
 30
0
 10
287.213527
 20
193.28124
 30
0
 10
286.915016
 20
193.667217
 30
0
 10
286.708427
 20
194.075547
 30
0
 10
286.657074
 20
194.491453
 30
0
 10
286.535764
 20
194.913867
 30
0
 10
286.206948
 20
195.301549
 30
0
 10
285.676951
 20
195.75096
 30
0
 10
284.732175
 20
196.163434
 30
0
 10
283.024573
 20
195.91891
 30
0
 10
280.320258
 20
195.481455
 30
0
 10
276.63758
 20
193.675216
 30
0
 10
272.827406
 20
190.625915
 30
0
 10
270.22629
 20
187.498079
 30
0
 10
268.751286
 20
185.4366
 30
0
 10
268.346693
 20
184.276608
 30
0
 10
268.789523
 20
183.519051
 30
0
 10
269.15707
 20
182.889992
 30
0
 10
269.515098
 20
182.424095
 30
0
 10
269.914715
 20
182.150049
 30
0
 10
270.308751
 20
181.90297
 30
0
 10
270.646968
 20
181.488186
 30
0
 10
270.953654
 20
180.946324
 30
0
 10
271.311567
 20
180.442636
 30
0
 10
271.150395
 20
179.799032
 30
0
 10
270.028012
 20
179.491093
 30
0
 10
268.696447
 20
178.287732
 30
0
 10
267.347434
 20
176.897781
 30
0
 10
266.034674
 20
175.663918
 30
0
 10
266.311857
 20
174.733441
 30
0
 10
266.578396
 20
174.112628
 30
0
 10
267.0009
 20
173.380386
 30
0
 10
267.460134
 20
172.671274
 30
0
 10
268.195255
 20
172.193913
 30
0
 10
268.963943
 20
172.162665
 30
0
 10
269.68265
 20
172.20445
 30
0
 10
270.281233
 20
172.291566
 30
0
 10
270.620427
 20
172.434806
 30
0
 10
270.762386
 20
172.494755
 30
0
  0
LINE
  5
52
100
AcDbEntity
  8
0
  6
ByLayer
 62
    7
370
   -1
100
AcDbLine
 10
276.651905
 20
184.032414
 11
276.651905
 21
184.032414
  0
SPLINE
  5
53
100
AcDbEntity
  8
0
  6
ByLayer
 62
    7
370
   -1
100
AcDbSpline
210
0
220
0
230
0
 70
    8
 71
    3
 72
   16
 73
   12
 74
    0
 42
1e-07
 43
1e-07
 40
0
 40
0
 40
0
 40
0
 40
0.423395
 40
0.75737
 40
1.215685
 40
1.479301
 40
1.66878
 40
2.040646
 40
2.589621
 40
2.785163
 40
3.108238
 40
3.108238
 40
3.108238
 40
3.108238
 10
276.651905
 20
184.032414
 30
0
 10
276.551842
 20
184.145306
 30
0
 10
276.372849
 20
184.347247
 30
0
 10
276.509414
 20
184.797158
 30
0
 10
276.82555
 20
184.938426
 30
0
 10
277.1677
 20
185.070764
 30
0
 10
277.323753
 20
184.777744
 30
0
 10
277.172332
 20
184.422111
 30
0
 10
277.176933
 20
184.046297
 30
0
 10
276.863502
 20
183.74977
 30
0
 10
276.733125
 20
183.923924
 30
0
 10
276.651905
 20
184.032414
 30
0
  0
LINE
  5
54
100
AcDbEntity
  8
0
  6
ByLayer
 62
    7
370
   -1
100
AcDbLine
 10
392.127819
 20
177.640213
 11
392.127819
 21
180.622226
  0
LINE
  5
55
100
AcDbEntity
  8
0
  6
ByLayer
 62
    7
370
   -1
100
AcDbLine
 10
392.127819
 20
180.622226
 11
393.715319
 21
180.622226
  0
LINE
  5
56
100
AcDbEntity
  8
0
  6
ByLayer
 62
    7
370
   -1
100
AcDbLine
 10
393.715319
 20
180.622226
 11
395.302819
 21
180.622226
  0
LINE
  5
57
100
AcDbEntity
  8
0
  6
ByLayer
 62
    7
370
   -1
100
AcDbLine
 10
395.302819
 20
180.622226
 11
395.302819
 21
177.270828
  0
SPLINE
  5
58
100
AcDbEntity
  8
0
  6
ByLayer
 62
    7
370
   -1
100
AcDbSpline
210
0
220
0
230
0
 70
    8
 71
    3
 72
   10
 73
    6
 74
    0
 42
1e-07
 43
1e-07
 40
0
 40
0
 40
0
 40
0
 40
1.095477
 40
2.774779
 40
5.405216
 40
5.405216
 40
5.405216
 40
5.405216
 10
390.691344
 20
172.676682
 30
0
 10
390.998219
 20
172.895678
 30
0
 10
391.775516
 20
173.450383
 30
0
 10
392.057207
 20
175.370083
 30
0
 10
392.101056
 20
176.779797
 30
0
 10
392.127819
 20
177.640213
 30
0
  0
LINE
  5
59
100
AcDbEntity
  8
0
  6
ByLayer
 62
    7
370
   -1
100
AcDbLine
 10
400.949451
 20
177.398119
 11
400.952891
 21
180.798597
  0
LINE
  5
5A
100
AcDbEntity
  8
0
  6
ByLayer
 62
    7
370
   -1
100
AcDbLine
 10
400.952891
 20
180.798597
 11
402.771081
 21
180.836962
  0
SPLINE
  5
5B
100
AcDbEntity
  8
0
  6
ByLayer
 62
    7
370
   -1
100
AcDbSpline
210
0
220
0
230
0
 70
    8
 71
    3
 72
   13
 73
    9
 74
    0
 42
1e-07
 43
1e-07
 40
0
 40
0
 40
0
 40
0
 40
2.895572
 40
4.529905
 40
6.056873
 40
8.167859
 40
9.882624
 40
13.139025
 40
13.139025
 40
13.139025
 40
13.139025
 10
395.302819
 20
177.270828
 30
0
 10
395.288842
 20
176.323742
 30
0
 10
395.266976
 20
174.842096
 30
0
 10
396.01842
 20
172.705148
 30
0
 10
397.880029
 20
172.407152
 30
0
 10
399.85567
 20
172.324782
 30
0
 10
401.119349
 20
174.653417
 30
0
 10
401.016695
 20
176.311789
 30
0
 10
400.949451
 20
177.398119
 30
0
  0
LINE
  5
5C
100
AcDbEntity
  8
0
  6
ByLayer
 62
    7
370
   -1
100
AcDbLine
 10
405.452077
 20
191.545258
 11
405.356986
 21
200.90693
  0
LINE
  5
5D
100
AcDbEntity
  8
0
  6
ByLayer
 62
    7
370
   -1
100
AcDbLine
 10
405.356986
 20
200.90693
 11
393.538922
 21
200.90693
  0
LINE
  5
5E
100
AcDbEntity
  8
0
  6
ByLayer
 62
    7
370
   -1
100
AcDbLine
 10
393.538922
 20
200.90693
 11
381.720884
 21
200.90693
  0
LINE
  5
5F
100
AcDbEntity
  8
0
  6
ByLayer
 62
    7
370
   -1
100
AcDbLine
 10
381.720884
 20
200.90693
 11
381.720884
 21
191.655906
  0
SPLINE
  5
60
100
AcDbEntity
  8
0
  6
ByLayer
 62
    7
370
   -1
100
AcDbSpline
210
0
220
0
230
0
 70
    8
 71
    3
 72
   10
 73
    6
 74
    0
 42
1e-07
 43
1e-07
 40
0
 40
0
 40
0
 40
0
 40
2.019343
 40
4.83684
 40
12.418598
 40
12.418598
 40
12.418598
 40
12.418598
 10
402.771081
 20
180.836962
 30
0
 10
403.534477
 20
180.855291
 30
0
 10
405.363007
 20
180.899196
 30
0
 10
405.498096
 20
185.997092
 30
0
 10
405.471481
 20
189.205854
 30
0
 10
405.452077
 20
191.545258
 30
0
  0
LINE
  5
61
100
AcDbEntity
  8
0
  6
ByLayer
 62
    7
370
   -1
100
AcDbLine
 10
384.856355
 20
180.713851
 11
386.483384
 21
180.530468
  0
LINE
  5
62
100
AcDbEntity
  8
0
  6
ByLayer
 62
    7
370
   -1
100
AcDbLine
 10
386.483384
 20
180.530468
 11
386.483384
 21
177.292392
  0
SPLINE
  5
63
100
AcDbEntity
  8
0
  6
ByLayer
 62
    7
370
   -1
100
AcDbSpline
210
0
220
0
230
0
 70
    8
 71
    3
 72
   13
 73
    9
 74
    0
 42
1e-07
 43
1e-07
 40
0
 40
0
 40
0
 40
0
 40
6.422366
 40
9.088944
 40
10.149238
 40
10.885022
 40
11.766794
 40
12.745029
 40
12.745029
 40
12.745029
 40
12.745029
 10
381.720884
 20
191.655906
 30
0
 10
381.772388
 20
189.527125
 30
0
 10
381.845277
 20
186.51447
 30
0
 10
381.654629
 20
183.069992
 30
0
 10
382.342151
 20
181.671799
 30
0
 10
383.109621
 20
181.179039
 30
0
 10
383.919167
 20
180.863253
 30
0
 10
384.533342
 20
180.765344
 30
0
 10
384.856355
 20
180.713851
 30
0
  0
LINE
  5
64
100
AcDbEntity
  8
0
  6
ByLayer
 62
    7
370
   -1
100
AcDbLine
 10
390.691344
 20
172.676682
 11
390.691344
 21
172.676682
  0
SPLINE
  5
65
100
AcDbEntity
  8
0
  6
ByLayer
 62
    7
370
   -1
100
AcDbSpline
210
0
220
0
230
0
 70
    8
 71
    3
 72
   13
 73
    9
 74
    0
 42
1e-07
 43
1e-07
 40
0
 40
0
 40
0
 40
0
 40
2.541866
 40
3.986381
 40
5.268925
 40
5.99149
 40
6.821169
 40
7.97846
 40
7.97846
 40
7.97846
 40
7.97846
 10
386.483384
 20
177.292392
 30
0
 10
386.47547
 20
176.451852
 30
0
 10
386.463058
 20
175.133644
 30
0
 10
386.875833
 20
173.333002
 30
0
 10
387.869811
 20
172.627459
 30
0
 10
388.766833
 20
172.301025
 30
0
 10
389.689269
 20
172.374758
 30
0
 10
390.322516
 20
172.565555
 30
0
 10
390.691344
 20
172.676682
 30
0
  0
LINE
  5
66
100
AcDbEntity
  8
0
  6
ByLayer
 62
    7
370
   -1
100
AcDbLine
 10
318.656229
 20
175.683328
 11
320.073523
 21
172.684726
  0
LINE
  5
67
100
AcDbEntity
  8
0
  6
ByLayer
 62
    7
370
   -1
100
AcDbLine
 10
320.073523
 20
172.684726
 11
322.436807
 21
172.728779
  0
LINE
  5
68
100
AcDbEntity
  8
0
  6
ByLayer
 62
    7
370
   -1
100
AcDbLine
 10
317.500661
 20
192.7929
 11
318.296925
 21
194.752061
  0
LINE
  5
69
100
AcDbEntity
  8
0
  6
ByLayer
 62
    7
370
   -1
100
AcDbLine
 10
318.296925
 20
194.752061
 11
319.518559
 21
193.24338
  0
SPLINE
  5
6A
100
AcDbEntity
  8
0
  6
ByLayer
 62
    7
370
   -1
100
AcDbSpline
210
0
220
0
230
0
 70
    8
 71
    3
 72
   22
 73
   18
 74
    0
 42
1e-07
 43
1e-07
 40
0
 40
0
 40
0
 40
0
 40
1.243713
 40
2.238179
 40
2.785536
 40
3.490156
 40
4.266198
 40
5.508395
 40
7.149285
 40
8.499034
 40
9.874416999999999
 40
13.778463
 40
18.336215
 40
21.608458
 40
22.803368
 40
24.103662
 40
25.904103
 40
25.904103
 40
25.904103
 40
25.904103
 10
322.436807
 20
172.728779
 30
0
 10
322.853003
 20
172.744345
 30
0
 10
323.601985
 20
172.772359
 30
0
 10
324.505763
 20
172.914758
 30
0
 10
325.271867
 20
173.080093
 30
0
 10
325.582553
 20
173.886217
 30
0
 10
324.76427
 20
174.549639
 30
0
 10
323.591457
 20
174.769962
 30
0
 10
322.194779
 20
175.10774
 30
0
 10
321.0414
 20
176.162629
 30
0
 10
320.755501
 20
178.428639
 30
0
 10
320.390588
 20
181.641436
 30
0
 10
319.246644
 20
185.437695
 30
0
 10
317.984515
 20
188.146887
 30
0
 10
316.837897
 20
189.761614
 30
0
 10
316.924518
 20
191.271341
 30
0
 10
317.289016
 20
192.233957
 30
0
 10
317.500661
 20
192.7929
 30
0
  0
LINE
  5
6B
100
AcDbEntity
  8
0
  6
ByLayer
 62
    7
370
   -1
100
AcDbLine
 10
311.29052
 20
186.851682
 11
311.165319
 21
183.869827
  0
LINE
  5
6C
100
AcDbEntity
  8
0
  6
ByLayer
 62
    7
370
   -1
100
AcDbLine
 10
311.165319
 20
183.869827
 11
309.489634
 21
182.309579
  0
SPLINE
  5
6D
100
AcDbEntity
  8
0
  6
ByLayer
 62
    7
370
   -1
100
AcDbSpline
210
0
220
0
230
0
 70
    8
 71
    3
 72
   55
 73
   51
 74
    0
 42
1e-07
 43
1e-07
 40
0
 40
0
 40
0
 40
0
 40
1.044697
 40
1.917714
 40
2.430709
 40
3.274942
 40
4.200502
 40
4.691936
 40
5.013538
 40
5.797168
 40
6.754765
 40
7.352296
 40
7.732902
 40
8.269907999999999
 40
10.211356
 40
13.070817
 40
17.062751
 40
18.868934
 40
20.300057
 40
21.720622
 40
22.605687
 40
24.039178
 40
26.213345
 40
26.572142
 40
26.910973
 40
27.479069
 40
28.139544
 40
28.721503
 40
29.659357
 40
31.239036
 40
32.466757
 40
34.069289
 40
35.729653
 40
37.177999
 40
39.537726
 40
40.813962
 40
41.874982
 40
42.495907
 40
43.795526
 40
46.169077
 40
49.794618
 40
51.988575
 40
54.000259
 40
55.394599
 40
56.486982
 40
57.219972
 40
57.869902
 40
58.612589
 40
59.715595
 40
61.624301
 40
61.624301
 40
61.624301
 40
61.624301
 10
319.518559
 20
193.24338
 30
0
 10
319.738302
 20
192.972185
 30
0
 10
320.141676
 20
192.474361
 30
0
 10
320.612128
 20
191.823998
 30
0
 10
321.10576
 20
191.239408
 30
0
 10
321.118934
 20
190.449523
 30
0
 10
321.013743
 20
189.638153
 30
0
 10
320.527979
 20
189.294663
 30
0
 10
319.876811
 20
189.239331
 30
0
 10
320.554734
 20
188.338021
 30
0
 10
320.954328
 20
187.866564
 30
0
 10
321.529441
 20
187.470927
 30
0
 10
322.066812
 20
187.492014
 30
0
 10
322.784093
 20
188.200157
 30
0
 10
323.272723
 20
190.038592
 30
0
 10
322.22264
 20
192.891241
 30
0
 10
320.679807
 20
195.309671
 30
0
 10
319.340019
 20
197.31506
 30
0
 10
318.901108
 20
198.870263
 30
0
 10
319.250196
 20
200.093985
 30
0
 10
319.368933
 20
201.338089
 30
0
 10
319.051651
 20
202.840469
 30
0
 10
318.665645
 20
204.017906
 30
0
 10
318.459755
 20
205.051265
 30
0
 10
318.852415
 20
205.332427
 30
0
 10
319.360332
 20
205.377521
 30
0
 10
319.997301
 20
205.4643
 30
0
 10
320.454917
 20
206.09588
 30
0
 10
320.636809
 20
207.107356
 30
0
 10
320.876166
 20
208.39096
 30
0
 10
320.031614
 20
209.754242
 30
0
 10
318.576649
 20
210.230164
 30
0
 10
316.980603
 20
210.672369
 30
0
 10
315.312519
 20
209.626112
 30
0
 10
314.473439
 20
208.141191
 30
0
 10
313.58889
 20
206.852585
 30
0
 10
313.031669
 20
206.033567
 30
0
 10
312.316959
 20
205.338336
 30
0
 10
311.603747
 20
204.059452
 30
0
 10
311.258458
 20
201.622277
 30
0
 10
310.984538
 20
198.915897
 30
0
 10
310.792861
 20
196.309939
 30
0
 10
310.622951
 20
194.452622
 30
0
 10
310.45615
 20
192.95899
 30
0
 10
310.318941
 20
191.902566
 30
0
 10
310.391272
 20
191.046795
 30
0
 10
310.841238
 20
190.48143
 30
0
 10
311.294402
 20
189.768056
 30
0
 10
311.340759
 20
188.477997
 30
0
 10
311.310008
 20
187.482554
 30
0
 10
311.29052
 20
186.851682
 30
0
  0
LINE
  5
6E
100
AcDbEntity
  8
0
  6
ByLayer
 62
    7
370
   -1
100
AcDbLine
 10
311.53952
 20
172.895757
 11
311.53952
 21
172.895757
  0
SPLINE
  5
6F
100
AcDbEntity
  8
0
  6
ByLayer
 62
    7
370
   -1
100
AcDbSpline
210
0
220
0
230
0
 70
    8
 71
    3
 72
   25
 73
   21
 74
    0
 42
1e-07
 43
1e-07
 40
0
 40
0
 40
0
 40
0
 40
1.376912
 40
2.352213
 40
3.065222
 40
4.256496
 40
5.601054
 40
6.873001
 40
7.746392
 40
8.54949
 40
9.675727
 40
10.255696
 40
10.700518
 40
10.935158
 40
11.510187
 40
12.487448
 40
13.42069
 40
13.756504
 40
14.084017
 40
14.362903
 40
14.362903
 40
14.362903
 40
14.362903
 10
309.489634
 20
182.309579
 30
0
 10
309.162849
 20
181.990312
 30
0
 10
308.604595
 20
181.444899
 30
0
 10
307.959131
 20
180.618423
 30
0
 10
307.773365
 20
179.661017
 30
0
 10
307.681857
 20
178.585404
 30
0
 10
307.200757
 20
177.372853
 30
0
 10
306.547203
 20
176.454476
 30
0
 10
305.977973
 20
175.538756
 30
0
 10
306.492873
 20
174.601919
 30
0
 10
307.293568
 20
174.288728
 30
0
 10
307.947009
 20
174.021495
 30
0
 10
308.344434
 20
173.839685
 30
0
 10
308.581164
 20
173.489113
 30
0
 10
308.985535
 20
173.037547
 30
0
 10
309.778896
 20
172.745437
 30
0
 10
310.502687
 20
172.495061
 30
0
 10
311.0365
 20
172.558465
 30
0
 10
311.337895
 20
172.675922
 30
0
 10
311.476003
 20
172.826504
 30
0
 10
311.53952
 20
172.895757
 30
0
  0
LINE
  5
70
100
AcDbEntity
  8
0
  6
ByLayer
 62
    7
370
   -1
100
AcDbLine
 10
290.880615
 20
173.190927
 11
290.880588
 21
173.190927
  0
SPLINE
  5
71
100
AcDbEntity
  8
0
  6
ByLayer
 62
    7
370
   -1
100
AcDbSpline
210
0
220
0
230
0
 70
    8
 71
    3
 72
  127
 73
  123
 74
    0
 42
1e-07
 43
1e-07
 40
0
 40
0
 40
0
 40
0
 40
0.281094
 40
0.706961
 40
1.188069
 40
3.209574
 40
4.298672
 40
6.690835
 40
9.570907
 40
11.06254
 40
12.43859
 40
15.011178
 40
16.569926
 40
17.118006
 40
17.558922
 40
18.462882
 40
19.643362
 40
21.165151
 40
21.944937
 40
22.620957
 40
24.954169
 40
28.308139
 40
30.521702
 40
31.104061
 40
32.022873
 40
33.70896
 40
35.343607
 40
36.161578
 40
36.546418
 40
36.867416
 40
37.303842
 40
37.823336
 40
39.895571
 40
41.457329
 40
45.08494
 40
48.473098
 40
50.62653
 40
53.092044
 40
55.637546
 40
57.00441
 40
58.727267
 40
59.774358
 40
60.632538
 40
61.128902
 40
62.285234
 40
63.987405
 40
65.48356200000001
 40
66.37351
 40
66.857895
 40
67.289458
 40
67.45429799999999
 40
67.59703500000001
 40
67.79403600000001
 40
68.038858
 40
68.28443799999999
 40
68.655005
 40
69.066821
 40
69.35577600000001
 40
69.733547
 40
70.105769
 40
70.470189
 40
71.121002
 40
72.19596799999999
 40
73.155866
 40
74.182265
 40
75.450491
 40
77.588425
 40
79.89930099999999
 40
80.427375
 40
81.191276
 40
82.20605999999999
 40
83.19318699999999
 40
84.080575
 40
84.68224600000001
 40
85.12736200000001
 40
85.560714
 40
86.700462
 40
88.224982
 40
89.392797
 40
90.07169500000001
 40
90.377956
 40
90.943337
 40
91.645483
 40
92.53422500000001
 40
93.61381
 40
94.671115
 40
96.618825
 40
98.14856899999999
 40
100.744079
 40
102.273861
 40
103.382805
 40
104.22892
 40
105.501207
 40
106.683689
 40
107.787425
 40
108.541412
 40
109.795429
 40
111.292854
 40
113.243883
 40
114.249069
 40
115.245922
 40
116.20077
 40
117.442644
 40
118.714685
 40
120.297469
 40
121.879051
 40
123.980955
 40
125.572689
 40
126.721816
 40
127.182228
 40
128.532643
 40
130.138166
 40
131.22093
 40
132.335569
 40
133.40655
 40
135.346396
 40
136.90906
 40
137.832477
 40
138.498469
 40
139.577691
 40
140.726135
 40
141.363952
 40
141.363952
 40
141.363952
 40
141.363952
 10
290.880588
 20
173.190927
 30
0
 10
290.868814
 20
173.283956
 30
0
 10
290.839203
 20
173.517928
 30
0
 10
290.726289
 20
173.900075
 30
0
 10
290.442234
 20
174.821043
 30
0
 10
289.62076
 20
175.983067
 30
0
 10
290.775238
 20
177.698049
 30
0
 10
293.050828
 20
177.926375
 30
0
 10
295.068073
 20
178.63499
 30
0
 10
296.902667
 20
179.775555
 30
0
 10
296.65897
 20
181.747329
 30
0
 10
296.314632
 20
183.597943
 30
0
 10
296.054803
 20
184.8688
 30
0
 10
296.171211
 20
186.099558
 30
0
 10
296.82402
 20
185.534247
 30
0
 10
297.385232
 20
185.079049
 30
0
 10
298.274073
 20
184.179346
 30
0
 10
299.054004
 20
183.398401
 30
0
 10
299.663685
 20
182.489179
 30
0
 10
299.129989
 20
181.250722
 30
0
 10
298.996892
 20
179.131646
 30
0
 10
299.119061
 20
176.582284
 30
0
 10
298.904169
 20
174.333855
 30
0
 10
299.816772
 20
173.394384
 30
0
 10
300.926368
 20
173.298724
 30
0
 10
302.321753
 20
173.22206
 30
0
 10
303.678465
 20
173.293735
 30
0
 10
304.676119
 20
173.242325
 30
0
 10
305.07056
 20
173.711776
 30
0
 10
304.847059
 20
174.083988
 30
0
 10
304.49516
 20
174.321479
 30
0
 10
303.54189
 20
174.641239
 30
0
 10
301.870301
 20
174.641899
 30
0
 10
301.275494
 20
177.361175
 30
0
 10
302.078485
 20
180.037262
 30
0
 10
302.589614
 20
183.087852
 30
0
 10
302.115219
 20
185.820489
 30
0
 10
300.370353
 20
187.577603
 30
0
 10
298.748117
 20
188.926199
 30
0
 10
297.927643
 20
190.770097
 30
0
 10
298.557375
 20
192.10629
 30
0
 10
298.995614
 20
193.226931
 30
0
 10
299.365462
 20
193.915355
 30
0
 10
299.853091
 20
194.680147
 30
0
 10
301.187586
 20
194.251922
 30
0
 10
302.324346
 20
193.553145
 30
0
 10
303.294876
 20
192.422844
 30
0
 10
303.514004
 20
191.594167
 30
0
 10
304.142674
 20
191.006561
 30
0
 10
304.28158
 20
191.49098
 30
0
 10
304.306262
 20
191.748003
 30
0
 10
304.493555
 20
191.811025
 30
0
 10
304.674681
 20
191.726573
 30
0
 10
304.857959
 20
191.554175
 30
0
 10
304.805891
 20
191.239373
 30
0
 10
304.596195
 20
190.972361
 30
0
 10
304.352266
 20
190.692437
 30
0
 10
304.3524
 20
190.299191
 30
0
 10
304.597064
 20
190.043258
 30
0
 10
304.918169
 20
189.781467
 30
0
 10
305.385974
 20
190.019285
 30
0
 10
305.811603
 20
190.551353
 30
0
 10
306.326519
 20
191.317123
 30
0
 10
306.437158
 20
192.360616
 30
0
 10
306.109886
 20
193.449521
 30
0
 10
304.906348
 20
194.383086
 30
0
 10
303.430395
 20
195.566551
 30
0
 10
301.866654
 20
196.217793
 30
0
 10
300.996329
 20
197.076724
 30
0
 10
300.754854
 20
197.82931
 30
0
 10
300.594726
 20
198.733311
 30
0
 10
300.455835
 20
199.68063
 30
0
 10
300.253368
 20
200.506046
 30
0
 10
300.080085
 20
201.068995
 30
0
 10
299.751073
 20
201.627253
 30
0
 10
300.598339
 20
201.845244
 30
0
 10
301.52061
 20
201.728603
 30
0
 10
302.821113
 20
201.944275
 30
0
 10
303.942203
 20
202.270642
 30
0
 10
304.309305
 20
203.047229
 30
0
 10
304.040498
 20
203.510732
 30
0
 10
303.866183
 20
204.000505
 30
0
 10
303.613132
 20
204.676537
 30
0
 10
303.174649
 20
205.453988
 30
0
 10
302.536933
 20
206.249436
 30
0
 10
301.573252
 20
207.168243
 30
0
 10
300.206335
 20
208.214443
 30
0
 10
298.137252
 20
207.223759
 30
0
 10
297.38782
 20
205.426809
 30
0
 10
296.549935
 20
203.914458
 30
0
 10
295.863532
 20
202.947003
 30
0
 10
294.930107
 20
202.387751
 30
0
 10
293.952594
 20
201.881866
 30
0
 10
293.165086
 20
200.909325
 30
0
 10
293.041362
 20
199.884611
 30
0
 10
292.773096
 20
198.881399
 30
0
 10
292.245409
 20
197.832482
 30
0
 10
291.483938
 20
196.457058
 30
0
 10
290.664375
 20
195.246237
 30
0
 10
290.167697
 20
193.943033
 30
0
 10
290.582755
 20
192.995442
 30
0
 10
290.818421
 20
191.965471
 30
0
 10
290.955348
 20
190.811071
 30
0
 10
290.978832
 20
189.447265
 30
0
 10
290.976964
 20
187.961956
 30
0
 10
291.406781
 20
186.243886
 30
0
 10
292.06242
 20
184.621073
 30
0
 10
292.695466
 20
183.110642
 30
0
 10
293.02913
 20
182.147559
 30
0
 10
293.439705
 20
181.131962
 30
0
 10
291.920174
 20
180.646076
 30
0
 10
290.94547
 20
179.938478
 30
0
 10
289.736316
 20
179.48385
 30
0
 10
288.525485
 20
179.527053
 30
0
 10
287.861599
 20
178.114331
 30
0
 10
287.814156
 20
176.628334
 30
0
 10
287.706283
 20
175.152803
 30
0
 10
287.768024
 20
174.087624
 30
0
 10
288.257542
 20
173.285103
 30
0
 10
289.194612
 20
172.968851
 30
0
 10
290.203759
 20
172.697686
 30
0
 10
290.702522
 20
173.061146
 30
0
 10
290.880615
 20
173.190927
 30
0
  0
SPLINE
  5
72
100
AcDbEntity
  8
0
  6
ByLayer
 62
    7
370
   -1
100
AcDbSpline
210
0
220
0
230
0
 70
    8
 71
    3
 72
   22
 73
   18
 74
    0
 42
1e-07
 43
1e-07
 40
0
 40
0
 40
0
 40
0
 40
0.740383
 40
1.507601
 40
2.899765
 40
4.936372
 40
6.436272
 40
10.270969
 40
13.660013
 40
15.512544
 40
16.87662
 40
17.720619
 40
18.34709
 40
18.636297
 40
19.021566
 40
19.863358
 40
20.987792
 40
20.987792
 40
20.987792
 40
20.987792
 10
346.099739
 20
173.574467
 30
0
 10
346.287802
 20
173.798079
 30
0
 10
346.670746
 20
174.25341
 30
0
 10
345.689509
 20
174.987554
 30
0
 10
344.430904
 20
175.219994
 30
0
 10
342.456082
 20
175.087243
 30
0
 10
341.554392
 20
177.720459
 30
0
 10
341.958065
 20
180.538841
 30
0
 10
341.835428
 20
183.575885
 30
0
 10
341.732188
 20
185.801316
 30
0
 10
341.164173
 20
187.050612
 30
0
 10
340.753131
 20
187.89331
 30
0
 10
340.503983
 20
188.436229
 30
0
 10
340.481231
 20
188.874002
 30
0
 10
340.564885
 20
189.375364
 30
0
 10
340.428444
 20
190.158686
 30
0
 10
340.33097
 20
190.804591
 30
0
 10
340.275228
 20
191.173968
 30
0
  0
LINE
  5
73
100
AcDbEntity
  8
0
  6
ByLayer
 62
    7
370
   -1
100
AcDbLine
 10
328.008192
 20
179.704995
 11
326.127719
 21
177.905802
  0
LINE
  5
74
100
AcDbEntity
  8
0
  6
ByLayer
 62
    7
370
   -1
100
AcDbLine
 10
326.127719
 20
177.905802
 11
327.941861
 21
175.76056
  0
SPLINE
  5
75
100
AcDbEntity
  8
0
  6
ByLayer
 62
    7
370
   -1
100
AcDbSpline
210
0
220
0
230
0
 70
    8
 71
    3
 72
   82
 73
   78
 74
    0
 42
1e-07
 43
1e-07
 40
0
 40
0
 40
0
 40
0
 40
1.528863
 40
2.758239
 40
4.242797
 40
5.511161
 40
6.81469
 40
7.886928
 40
9.638369000000001
 40
11.290443
 40
12.561742
 40
13.570039
 40
14.219018
 40
15.264374
 40
16.359654
 40
17.14605
 40
17.658403
 40
18.022982
 40
18.79936
 40
19.832062
 40
20.91209
 40
21.813313
 40
22.351015
 40
22.778855
 40
23.429326
 40
24.193137
 40
25.515025
 40
26.520824
 40
26.983761
 40
27.200671
 40
27.674936
 40
28.306303
 40
29.191699
 40
30.116541
 40
31.440382
 40
32.639804
 40
33.533149
 40
34.173798
 40
35.428691
 40
36.89672
 40
38.224007
 40
39.613937
 40
41.229904
 40
42.675292
 40
43.166575
 40
43.539419
 40
43.767337
 40
44.977649
 40
46.527905
 40
47.409102
 40
48.440544
 40
50.372383
 40
51.781694
 40
52.244452
 40
53.647273
 40
55.699951
 40
57.802069
 40
59.333581
 40
59.968472
 40
60.197186
 40
60.585696
 40
61.055271
 40
62.240055
 40
64.796451
 40
68.967049
 40
73.99681699999999
 40
76.18557800000001
 40
77.443938
 40
78.536424
 40
79.66352500000001
 40
81.526465
 40
83.504504
 40
84.85920299999999
 40
86.78766400000001
 40
88.479635
 40
90.366435
 40
92.04018499999999
 40
92.04018499999999
 40
92.04018499999999
 40
92.04018499999999
 10
340.275228
 20
191.173968
 30
0
 10
340.185043
 20
191.677112
 30
0
 10
340.022341
 20
192.584839
 30
0
 10
340.102847
 20
194.009643
 30
0
 10
340.459515
 20
195.294891
 30
0
 10
340.93999
 20
196.558814
 30
0
 10
341.480465
 20
197.652177
 30
0
 10
342.276206
 20
198.777173
 30
0
 10
343.192041
 20
199.955315
 30
0
 10
343.878657
 20
201.380155
 30
0
 10
344.21699
 20
202.624259
 30
0
 10
344.12131
 20
203.717039
 30
0
 10
345.048406
 20
204.231324
 30
0
 10
345.916388
 20
203.676901
 30
0
 10
346.816187
 20
203.382376
 30
0
 10
347.632032
 20
203.227425
 30
0
 10
348.17433
 20
203.783758
 30
0
 10
347.651466
 20
204.18819
 30
0
 10
347.111773
 20
204.584115
 30
0
 10
346.253367
 20
205.074099
 30
0
 10
345.404961
 20
205.593166
 30
0
 10
344.693014
 20
206.056755
 30
0
 10
344.280571
 20
206.523746
 30
0
 10
343.870745
 20
206.882628
 30
0
 10
343.272427
 20
207.077185
 30
0
 10
342.389767
 20
207.243407
 30
0
 10
341.305076
 20
207.396271
 30
0
 10
340.567689
 20
207.604623
 30
0
 10
339.803655
 20
207.898664
 30
0
 10
340.102745
 20
208.248238
 30
0
 10
340.351598
 20
208.571383
 30
0
 10
340.817861
 20
209.062562
 30
0
 10
341.332963
 20
209.704028
 30
0
 10
341.587653
 20
210.743022
 30
0
 10
341.617554
 20
211.890658
 30
0
 10
341.590518
 20
213.030917
 30
0
 10
341.446902
 20
213.935313
 30
0
 10
341.018449
 20
214.793357
 30
0
 10
339.928417
 20
215.296882
 30
0
 10
338.616471
 20
215.532227
 30
0
 10
337.157443
 20
215.376449
 30
0
 10
336.073211
 20
214.327538
 30
0
 10
335.271673
 20
213.073051
 30
0
 10
334.986241
 20
211.891257
 30
0
 10
334.949606
 20
211.132848
 30
0
 10
334.857224
 20
210.75802
 30
0
 10
334.321581
 20
210.394659
 30
0
 10
333.34178
 20
211.165982
 30
0
 10
332.223906
 20
211.539337
 30
0
 10
331.563308
 20
212.534336
 30
0
 10
330.340384
 20
213.176374
 30
0
 10
329.373844
 20
213.377658
 30
0
 10
327.0012
 20
213.984481
 30
0
 10
328.028692
 20
213.040451
 30
0
 10
329.053852
 20
212.489451
 30
0
 10
330.666788
 20
211.484807
 30
0
 10
332.407852
 20
210.581436
 30
0
 10
333.368117
 20
209.780232
 30
0
 10
334.368399
 20
209.387271
 30
0
 10
334.178343
 20
208.961515
 30
0
 10
334.020834
 20
208.651175
 30
0
 10
333.602842
 20
208.095954
 30
0
 10
333.341209
 20
206.679975
 30
0
 10
333.076639
 20
204.080761
 30
0
 10
332.81839
 20
200.143241
 30
0
 10
332.682807
 20
196.407472
 30
0
 10
332.467009
 20
193.494267
 30
0
 10
333.173754
 20
192.128357
 30
0
 10
333.78914
 20
191.128873
 30
0
 10
333.891292
 20
189.735519
 30
0
 10
333.698358
 20
188.102592
 30
0
 10
333.623115
 20
186.352205
 30
0
 10
332.906908
 20
184.710061
 30
0
 10
331.722463
 20
183.523313
 30
0
 10
330.482836
 20
182.175551
 30
0
 10
329.255088
 20
180.925086
 30
0
 10
328.406907
 20
180.095138
 30
0
 10
328.008192
 20
179.704995
 30
0
  0
SPLINE
  5
76
100
AcDbEntity
  8
0
  6
ByLayer
 62
    7
370
   -1
100
AcDbSpline
210
0
220
0
230
0
 70
    8
 71
    3
 72
   25
 73
   21
 74
    0
 42
1e-07
 43
1e-07
 40
0
 40
0
 40
0
 40
0
 40
2.404849
 40
3.616285
 40
4.45061
 40
4.916408
 40
5.312592
 40
6.1016
 40
6.875547
 40
7.577221
 40
8.30045
 40
9.328563000000001
 40
11.432479
 40
16.428334
 40
17.229163
 40
18.023187
 40
18.638675
 40
19.330002
 40
20.105381
 40
22.00418
 40
22.00418
 40
22.00418
 40
22.00418
 10
327.941861
 20
175.76056
 30
0
 10
328.444023
 20
175.179175
 30
0
 10
329.199149
 20
174.304918
 30
0
 10
330.472998
 20
173.162866
 30
0
 10
331.29563
 20
173.578068
 30
0
 10
331.729706
 20
174.039667
 30
0
 10
331.48369
 20
174.612287
 30
0
 10
330.951029
 20
174.982005
 30
0
 10
330.424127
 20
175.538036
 30
0
 10
330.098786
 20
176.208711
 30
0
 10
329.989337
 20
177.029212
 30
0
 10
330.281786
 20
178.338651
 30
0
 10
332.527498
 20
180.083616
 30
0
 10
334.427056
 20
181.828594
 30
0
 10
336.081221
 20
183.259398
 30
0
 10
336.651539
 20
183.756361
 30
0
 10
337.101727
 20
184.211455
 30
0
 10
337.865781
 20
184.776729
 30
0
 10
338.201052
 20
183.280524
 30
0
 10
338.175075
 20
182.482741
 30
0
 10
338.156629
 20
181.916276
 30
0
  0
LINE
  5
77
100
AcDbEntity
  8
0
  6
ByLayer
 62
    7
370
   -1
100
AcDbLine
 10
346.099739
 20
173.574467
 11
346.099739
 21
173.574467
  0
SPLINE
  5
78
100
AcDbEntity
  8
0
  6
ByLayer
 62
    7
370
   -1
100
AcDbSpline
210
0
220
0
230
0
 70
    8
 71
    3
 72
   19
 73
   15
 74
    0
 42
1e-07
 43
1e-07
 40
0
 40
0
 40
0
 40
0
 40
1.158057
 40
2.449277
 40
3.602295
 40
4.68132
 40
5.775342
 40
6.653964
 40
7.790536
 40
8.56954
 40
9.328742
 40
11.081057
 40
13.597448
 40
15.222162
 40
15.222162
 40
15.222162
 40
15.222162
 10
338.156629
 20
181.916276
 30
0
 10
338.175232
 20
181.530565
 30
0
 10
338.214576
 20
180.714792
 30
0
 10
338.393191
 20
179.52454
 30
0
 10
338.675004
 20
178.383926
 30
0
 10
338.96826
 20
177.314468
 30
0
 10
339.147478
 20
176.311064
 30
0
 10
339.236368
 20
175.277877
 30
0
 10
339.225492
 20
174.342708
 30
0
 10
339.573979
 20
173.476491
 30
0
 10
340.554563
 20
172.859136
 30
0
 10
342.291115
 20
173.009601
 30
0
 10
344.244298
 20
173.033164
 30
0
 10
345.576906
 20
173.421936
 30
0
 10
346.099739
 20
173.574467
 30
0
  0
LINE
  5
79
100
AcDbEntity
  8
0
  6
ByLayer
 62
    7
370
   -1
100
AcDbLine
 10
339.834061
 20
206.286571
 11
339.079549
 21
207.08974
  0
LINE
  5
7A
100
AcDbEntity
  8
0
  6
ByLayer
 62
    7
370
   -1
100
AcDbLine
 10
339.079549
 20
207.08974
 11
340.230275
 21
206.688579
  0
SPLINE
  5
7B
100
AcDbEntity
  8
0
  6
ByLayer
 62
    7
370
   -1
100
AcDbSpline
210
0
220
0
230
0
 70
    8
 71
    3
 72
   10
 73
    6
 74
    0
 42
1e-07
 43
1e-07
 40
0
 40
0
 40
0
 40
0
 40
0.901319
 40
1.823446
 40
2.575206
 40
2.575206
 40
2.575206
 40
2.575206
 10
341.169016
 20
204.094286
 30
0
 10
341.041553
 20
204.366372
 30
0
 10
340.783683
 20
204.916824
 30
0
 10
340.342195
 20
205.656787
 30
0
 10
339.991543
 20
206.091387
 30
0
 10
339.834061
 20
206.286571
 30
0
  0
LINE
  5
7C
100
AcDbEntity
  8
0
  6
ByLayer
 62
    7
370
   -1
100
AcDbLine
 10
341.169016
 20
204.094286
 11
341.169016
 21
204.094286
  0
SPLINE
  5
7D
100
AcDbEntity
  8
0
  6
ByLayer
 62
    7
370
   -1
100
AcDbSpline
210
0
220
0
230
0
 70
    8
 71
    3
 72
   13
 73
    9
 74
    0
 42
1e-07
 43
1e-07
 40
0
 40
0
 40
0
 40
0
 40
1.505477
 40
2.969086
 40
4.173914
 40
4.603998
 40
4.946555
 40
5.898693
 40
5.898693
 40
5.898693
 40
5.898693
 10
340.230275
 20
206.688579
 30
0
 10
340.672963
 20
206.440687
 30
0
 10
341.546027
 20
205.951798
 30
0
 10
342.270003
 20
204.631156
 30
0
 10
342.305784
 20
203.669142
 30
0
 10
341.875199
 20
202.883396
 30
0
 10
341.37519
 20
203.422323
 30
0
 10
341.256386
 20
203.809529
 30
0
 10
341.169016
 20
204.094286
 30
0
  0
LINE
  5
7E
100
AcDbEntity
  8
0
  6
ByLayer
 62
    7
370
   -1
100
AcDbLine
 10
352.94488
 20
175.052006
 11
350.800776
 21
175.999637
  0
LINE
  5
7F
100
AcDbEntity
  8
0
  6
ByLayer
 62
    7
370
   -1
100
AcDbLine
 10
350.800776
 20
175.999637
 11
352.43815
 21
179.169928
  0
SPLINE
  5
80
100
AcDbEntity
  8
0
  6
ByLayer
 62
    7
370
   -1
100
AcDbSpline
210
0
220
0
230
0
 70
    8
 71
    3
 72
   10
 73
    6
 74
    0
 42
1e-07
 43
1e-07
 40
0
 40
0
 40
0
 40
0
 40
0.388764
 40
1.254878
 40
2.441892
 40
2.441892
 40
2.441892
 40
2.441892
 10
354.97217
 20
173.747319
 30
0
 10
354.898707
 20
173.855638
 30
0
 10
354.661578
 20
174.205279
 30
0
 10
353.904171
 20
174.576425
 30
0
 10
353.296312
 20
174.877779
 30
0
 10
352.94488
 20
175.052006
 30
0
  0
LINE
  5
81
100
AcDbEntity
  8
0
  6
ByLayer
 62
    7
370
   -1
100
AcDbLine
 10
363.090883
 20
191.125708
 11
360.650843
 21
194.750023
  0
LINE
  5
82
100
AcDbEntity
  8
0
  6
ByLayer
 62
    7
370
   -1
100
AcDbLine
 10
360.650843
 20
194.750023
 11
361.449461
 21
196.885581
  0
SPLINE
  5
83
100
AcDbEntity
  8
0
  6
ByLayer
 62
    7
370
   -1
100
AcDbSpline
210
0
220
0
230
0
 70
    8
 71
    3
 72
   49
 73
   45
 74
    0
 42
1e-07
 43
1e-07
 40
0
 40
0
 40
0
 40
0
 40
2.218798
 40
3.997888
 40
5.471651
 40
7.496636
 40
9.588571999999999
 40
11.452993
 40
11.777062
 40
12.011205
 40
12.114765
 40
13.322062
 40
15.587352
 40
17.249489
 40
17.989004
 40
19.261924
 40
20.799925
 40
22.484916
 40
24.098562
 40
25.35017
 40
26.410536
 40
27.525344
 40
28.457332
 40
29.199461
 40
29.815323
 40
30.180667
 40
31.459707
 40
33.724714
 40
35.654551
 40
36.151945
 40
36.636495
 40
37.053736
 40
37.498226
 40
37.923037
 40
38.84772
 40
39.753334
 40
40.639809
 40
41.478719
 40
42.512346
 40
44.098802
 40
47.633635
 40
51.254383
 40
53.838336
 40
57.022823
 40
57.022823
 40
57.022823
 40
57.022823
 10
352.43815
 20
179.169928
 30
0
 10
352.789609
 20
179.819979
 30
0
 10
353.422878
 20
180.991257
 30
0
 10
354.44998
 20
182.515156
 30
0
 10
355.7493
 20
183.706898
 30
0
 10
357.042254
 20
185.064165
 30
0
 10
357.962856
 20
186.867578
 30
0
 10
358.245388
 20
188.287998
 30
0
 10
358.274265
 20
189.09164
 30
0
 10
358.284406
 20
189.31546
 30
0
 10
358.578653
 20
189.780539
 30
0
 10
359.639567
 20
187.959548
 30
0
 10
360.714914
 20
187.318559
 30
0
 10
361.965674
 20
186.171227
 30
0
 10
362.455549
 20
185.048682
 30
0
 10
362.829303
 20
183.923533
 30
0
 10
363.213133
 20
182.475139
 30
0
 10
363.67432
 20
180.929512
 30
0
 10
364.237026
 20
179.516831
 30
0
 10
364.878204
 20
178.372262
 30
0
 10
365.535075
 20
177.437156
 30
0
 10
366.048486
 20
176.535074
 30
0
 10
366.451531
 20
175.698964
 30
0
 10
366.76021
 20
174.995541
 30
0
 10
367.038511
 20
174.504824
 30
0
 10
367.512575
 20
173.860952
 30
0
 10
369.039744
 20
174.434119
 30
0
 10
370.669139
 20
174.692893
 30
0
 10
372.24849
 20
175.120215
 30
0
 10
373.050566
 20
175.674727
 30
0
 10
373.339073
 20
176.062513
 30
0
 10
373.455668
 20
176.485312
 30
0
 10
373.422405
 20
176.99655
 30
0
 10
372.736735
 20
177.114003
 30
0
 10
372.037383
 20
176.93432
 30
0
 10
371.119478
 20
176.86908
 30
0
 10
370.242873
 20
176.956666
 30
0
 10
369.36176
 20
177.213282
 30
0
 10
368.306338
 20
177.808089
 30
0
 10
367.677391
 20
179.88602
 30
0
 10
366.871415
 20
182.612878
 30
0
 10
366.041712
 20
185.778918
 30
0
 10
364.776872
 20
188.655142
 30
0
 10
363.690576
 20
190.246946
 30
0
 10
363.090883
 20
191.125708
 30
0
  0
SPLINE
  5
84
100
AcDbEntity
  8
0
  6
ByLayer
 62
    7
370
   -1
100
AcDbSpline
210
0
220
0
230
0
 70
    8
 71
    3
 72
   52
 73
   48
 74
    0
 42
1e-07
 43
1e-07
 40
0
 40
0
 40
0
 40
0
 40
1.47861
 40
2.185344
 40
2.71659
 40
3.289958
 40
4.051361
 40
4.836893
 40
5.652035
 40
6.431797
 40
7.124892
 40
8.285489
 40
8.944119000000001
 40
9.863434
 40
11.261119
 40
13.018918
 40
15.226558
 40
16.850881
 40
18.063068
 40
20.088423
 40
21.302526
 40
22.579644
 40
23.654861
 40
24.761768
 40
25.148153
 40
25.585113
 40
26.667665
 40
28.380147
 40
30.385285
 40
32.697773
 40
34.670078
 40
36.64757
 40
38.069383
 40
39.467717
 40
41.006392
 40
41.966034
 40
42.865215
 40
44.167974
 40
45.419823
 40
46.38953
 40
47.318775
 40
48.878877
 40
50.114364
 40
51.521287
 40
52.830489
 40
54.870823
 40
57.207666
 40
57.207666
 40
57.207666
 40
57.207666
 10
361.449461
 20
196.885581
 30
0
 10
361.615098
 20
197.32816
 30
0
 10
361.859905
 20
197.982279
 30
0
 10
362.3491
 20
198.900417
 30
0
 10
363.01969
 20
198.80753
 30
0
 10
363.597701
 20
198.634692
 30
0
 10
364.299149
 20
198.498133
 30
0
 10
365.075455
 20
198.381137
 30
0
 10
365.849199
 20
198.191774
 30
0
 10
366.54052
 20
197.8401
 30
0
 10
367.180687
 20
197.245773
 30
0
 10
367.678547
 20
196.483015
 30
0
 10
368.792271
 20
196.540417
 30
0
 10
368.930637
 20
197.757327
 30
0
 10
368.406192
 20
199.004973
 30
0
 10
366.904284
 20
200.128158
 30
0
 10
365.183525
 20
200.770321
 30
0
 10
363.431555
 20
201.071877
 30
0
 10
362.462084
 20
202.525608
 30
0
 10
362.467903
 20
204.038874
 30
0
 10
362.214628
 20
205.525936
 30
0
 10
361.917428
 20
206.666312
 30
0
 10
361.523552
 20
207.79438
 30
0
 10
361.091452
 20
208.421808
 30
0
 10
360.931404
 20
209.247467
 30
0
 10
361.775916
 20
209.104025
 30
0
 10
362.528465
 20
210.008257
 30
0
 10
363.056366
 20
211.50773
 30
0
 10
363.292066
 20
213.533444
 30
0
 10
362.74662
 20
215.648905
 30
0
 10
361.074117
 20
217.154337
 30
0
 10
359.122173
 20
217.124017
 30
0
 10
357.724647
 20
216.251619
 30
0
 10
356.941356
 20
214.952935
 30
0
 10
356.868008
 20
213.634702
 30
0
 10
356.948358
 20
212.487224
 30
0
 10
356.474457
 20
211.505475
 30
0
 10
355.693017
 20
210.66037
 30
0
 10
354.928569
 20
209.766691
 30
0
 10
354.429703
 20
208.82004
 30
0
 10
354.300225
 20
207.660941
 30
0
 10
354.286907
 20
206.42289
 30
0
 10
354.091144
 20
205.029079
 30
0
 10
353.693413
 20
203.769354
 30
0
 10
353.477627
 20
202.194053
 30
0
 10
353.358386
 20
200.302089
 30
0
 10
353.336124
 20
198.842948
 30
0
 10
353.324239
 20
198.063956
 30
0
  0
LINE
  5
85
100
AcDbEntity
  8
0
  6
ByLayer
 62
    7
370
   -1
100
AcDbLine
 10
354.97217
 20
173.747319
 11
354.97217
 21
173.747319
  0
SPLINE
  5
86
100
AcDbEntity
  8
0
  6
ByLayer
 62
    7
370
   -1
100
AcDbSpline
210
0
220
0
230
0
 70
    8
 71
    3
 72
   31
 73
   27
 74
    0
 42
1e-07
 43
1e-07
 40
0
 40
0
 40
0
 40
0
 40
2.585363
 40
4.148474
 40
5.005082
 40
6.036261
 40
6.843864
 40
7.692776
 40
8.313518
 40
9.107201
 40
10.465473
 40
11.979757
 40
13.068708
 40
14.596994
 40
16.789171
 40
18.539057
 40
20.587166
 40
21.700096
 40
22.784052
 40
23.609513
 40
24.603356
 40
25.55569
 40
27.786783
 40
29.803245
 40
31.174852
 40
31.916983
 40
31.916983
 40
31.916983
 40
31.916983
 10
353.324239
 20
198.063956
 30
0
 10
353.312988
 20
197.204579
 30
0
 10
353.294934
 20
195.825623
 30
0
 10
353.227558
 20
194.140871
 30
0
 10
352.818118
 20
193.052759
 30
0
 10
352.258916
 20
192.322518
 30
0
 10
352.298376
 20
191.324224
 30
0
 10
352.908737
 20
190.817505
 30
0
 10
353.513492
 20
190.333118
 30
0
 10
353.666898
 20
189.363058
 30
0
 10
353.661351
 20
188.167932
 30
0
 10
353.707719
 20
186.823971
 30
0
 10
353.193434
 20
185.50808
 30
0
 10
352.059786
 20
184.349607
 30
0
 10
350.863907
 20
182.973036
 30
0
 10
349.904194
 20
181.194086
 30
0
 10
349.560229
 20
179.581194
 30
0
 10
349.230357
 20
178.211435
 30
0
 10
348.919819
 20
177.236527
 30
0
 10
348.582841
 20
176.376266
 30
0
 10
348.014002
 20
175.411391
 30
0
 10
349.375478
 20
174.454551
 30
0
 10
350.950021
 20
173.996789
 30
0
 10
352.719633
 20
173.479324
 30
0
 10
354.191114
 20
173.148233
 30
0
 10
354.769204
 20
173.591639
 30
0
 10
354.97217
 20
173.747319
 30
0
  0
LINE
  5
87
100
AcDbEntity
  8
0
  6
ByLayer
 62
    7
370
   -1
100
AcDbLine
 10
379.326537
 20
185.225896
 11
379.326537
 21
185.225896
  0
SPLINE
  5
88
100
AcDbEntity
  8
0
  6
ByLayer
 62
    7
370
   -1
100
AcDbSpline
210
0
220
0
230
0
 70
    8
 71
    3
 72
   25
 73
   21
 74
    0
 42
1e-07
 43
1e-07
 40
0
 40
0
 40
0
 40
0
 40
1.513177
 40
3.916228
 40
8.918794
 40
13.062572
 40
15.016446
 40
16.087053
 40
17.558712
 40
19.05741
 40
20.616021
 40
21.60269
 40
23.550007
 40
28.126172
 40
33.049115
 40
35.276042
 40
36.709278
 40
37.462619
 40
38.035795
 40
39.02744
 40
39.02744
 40
39.02744
 40
39.02744
 10
379.326537
 20
185.225896
 30
0
 10
379.789642
 20
185.485811
 30
0
 10
380.988197
 20
186.158491
 30
0
 10
381.117219
 20
189.475169
 30
0
 10
381.227625
 20
193.147208
 30
0
 10
381.154757
 20
196.868683
 30
0
 10
381.138103
 20
199.293201
 30
0
 10
380.466536
 20
200.681068
 30
0
 10
379.272322
 20
201.474175
 30
0
 10
377.697752
 20
201.514252
 30
0
 10
376.435982
 20
200.877862
 30
0
 10
375.534278
 20
199.611725
 30
0
 10
375.6342
 20
197.001435
 30
0
 10
375.509548
 20
193.217384
 30
0
 10
375.621998
 20
189.430777
 30
0
 10
375.692024
 20
186.321135
 30
0
 10
376.938331
 20
185.39813
 30
0
 10
377.730664
 20
184.896481
 30
0
 10
378.532906
 20
184.903813
 30
0
 10
379.01869
 20
185.100961
 30
0
 10
379.326537
 20
185.225896
 30
0
  0
LINE
  5
89
100
AcDbEntity
  8
0
  6
ByLayer
 62
    7
370
   -1
100
AcDbLine
 10
411.266005
 20
185.983637
 11
411.266005
 21
185.983637
  0
SPLINE
  5
8A
100
AcDbEntity
  8
0
  6
ByLayer
 62
    7
370
   -1
100
AcDbSpline
210
0
220
0
230
0
 70
    8
 71
    3
 72
   28
 73
   24
 74
    0
 42
1e-07
 43
1e-07
 40
0
 40
0
 40
0
 40
0
 40
0.978872
 40
3.101848
 40
7.470926
 40
11.988484
 40
14.023891
 40
14.976161
 40
15.624391
 40
16.334423
 40
17.085034
 40
17.835664
 40
18.545703
 40
19.193933
 40
20.144747
 40
22.170055
 40
26.659943
 40
30.809476
 40
33.049207
 40
34.102712
 40
35.615019
 40
37.157968
 40
38.770145
 40
38.770145
 40
38.770145
 40
38.770145
 10
411.266005
 20
185.983637
 30
0
 10
411.416716
 20
186.276804
 30
0
 10
411.894288
 20
187.205792
 30
0
 10
411.795892
 20
189.774333
 30
0
 10
411.937442
 20
193.405594
 30
0
 10
411.812706
 20
197.031785
 30
0
 10
411.875975
 20
199.578599
 30
0
 10
411.295892
 20
200.704113
 30
0
 10
410.643576
 20
201.143387
 30
0
 10
409.976596
 20
201.380454
 30
0
 10
409.237543
 20
201.464692
 30
0
 10
408.498496
 20
201.380451
 30
0
 10
407.831482
 20
201.143403
 30
0
 10
407.179667
 20
200.704334
 30
0
 10
406.600322
 20
199.583329
 30
0
 10
406.659102
 20
197.047586
 30
0
 10
406.561476
 20
193.523837
 30
0
 10
406.61741
 20
189.879575
 30
0
 10
406.675649
 20
187.418399
 30
0
 10
407.062029
 20
185.801987
 30
0
 10
408.331223
 20
184.991637
 30
0
 10
409.990528
 20
184.960783
 30
0
 10
410.834672
 20
185.637734
 30
0
 10
411.266005
 20
185.983637
 30
0
  0
LINE
  5
8B
100
AcDbEntity
  8
0
  6
ByLayer
 62
    7
370
   -1
100
AcDbLine
 10
386.647055
 20
213.102714
 11
387.516317
 21
211.387341
  0
LINE
  5
8C
100
AcDbEntity
  8
0
  6
ByLayer
 62
    7
370
   -1
100
AcDbLine
 10
387.516317
 20
211.387341
 11
386.295159
 21
210.556814
  0
SPLINE
  5
8D
100
AcDbEntity
  8
0
  6
ByLayer
 62
    7
370
   -1
100
AcDbSpline
210
0
220
0
230
0
 70
    8
 71
    3
 72
   34
 73
   30
 74
    0
 42
1e-07
 43
1e-07
 40
0
 40
0
 40
0
 40
0
 40
3.631499
 40
6.982926
 40
10.563772
 40
10.818854
 40
11.464213
 40
12.364606
 40
13.872333
 40
14.489086
 40
14.92708
 40
15.34595
 40
16.090347
 40
17.031445
 40
18.264963
 40
18.897464
 40
19.662737
 40
22.177888
 40
25.648341
 40
28.164027
 40
28.937705
 40
29.553961
 40
30.774313
 40
31.70398
 40
32.446695
 40
32.881275
 40
33.341175
 40
33.907608
 40
35.504991
 40
35.504991
 40
35.504991
 40
35.504991
 10
405.646414
 20
202.935411
 30
0
 10
405.304359
 20
204.099295
 30
0
 10
404.64663
 20
206.337299
 30
0
 10
403.302568
 20
209.571129
 30
0
 10
399.61389
 20
210.407734
 30
0
 10
400.07812
 20
211.8772
 30
0
 10
400.364303
 20
212.39606
 30
0
 10
400.867178
 20
213.314991
 30
0
 10
401.286619
 20
214.074575
 30
0
 10
401.776108
 20
215.073422
 30
0
 10
401.144211
 20
215.273813
 30
0
 10
400.719843
 20
214.905201
 30
0
 10
400.290823
 20
214.361539
 30
0
 10
399.776896
 20
213.524032
 30
0
 10
399.430053
 20
212.66176
 30
0
 10
398.686695
 20
212.041455
 30
0
 10
397.346205
 20
212.504826
 30
0
 10
395.145959
 20
212.516215
 30
0
 10
392.272204
 20
212.507757
 30
0
 10
390.069764
 20
212.51194
 30
0
 10
388.731103
 20
212.026175
 30
0
 10
387.997267
 20
212.651026
 30
0
 10
387.694969
 20
213.522016
 30
0
 10
387.207187
 20
214.35726
 30
0
 10
386.778665
 20
214.923112
 30
0
 10
386.343911
 20
215.255727
 30
0
 10
385.685627
 20
215.163265
 30
0
 10
386.131019
 20
214.103891
 30
0
 10
386.427894
 20
213.527914
 30
0
 10
386.647055
 20
213.102714
 30
0
  0
LINE
  5
8E
100
AcDbEntity
  8
0
  6
ByLayer
 62
    7
370
   -1
100
AcDbLine
 10
381.916781
 20
203.288074
 11
381.635582
 21
201.788787
  0
LINE
  5
8F
100
AcDbEntity
  8
0
  6
ByLayer
 62
    7
370
   -1
100
AcDbLine
 10
381.635582
 20
201.788787
 11
393.752044
 21
201.788787
  0
LINE
  5
90
100
AcDbEntity
  8
0
  6
ByLayer
 62
    7
370
   -1
100
AcDbLine
 10
393.752044
 20
201.788787
 11
405.868505
 21
201.788787
  0
LINE
  5
91
100
AcDbEntity
  8
0
  6
ByLayer
 62
    7
370
   -1
100
AcDbLine
 10
405.868505
 20
201.788787
 11
405.646414
 21
202.935306
  0
LINE
  5
92
100
AcDbEntity
  8
0
  6
ByLayer
 62
    7
370
   -1
100
AcDbLine
 10
405.646414
 20
202.935306
 11
405.646414
 21
202.935411
  0
SPLINE
  5
93
100
AcDbEntity
  8
0
  6
ByLayer
 62
    7
370
   -1
100
AcDbSpline
210
0
220
0
230
0
 70
    8
 71
    3
 72
   10
 73
    6
 74
    0
 42
1e-07
 43
1e-07
 40
0
 40
0
 40
0
 40
0
 40
2.706923
 40
5.606548
 40
8.675397
 40
8.675397
 40
8.675397
 40
8.675397
 10
386.295159
 20
210.556814
 30
0
 10
385.600712
 20
209.973126
 30
0
 10
384.162382
 20
208.7642
 30
0
 10
382.67411
 20
206.209689
 30
0
 10
382.173951
 20
204.280182
 30
0
 10
381.916781
 20
203.288074
 30
0
  0
LINE
  5
94
100
AcDbEntity
  8
0
  6
ByLayer
 62
    7
370
   -1
100
AcDbLine
 10
387.601672
 20
207.140514
 11
387.601672
 21
207.140514
  0
SPLINE
  5
95
100
AcDbEntity
  8
0
  6
ByLayer
 62
    7
370
   -1
100
AcDbSpline
210
0
220
0
230
0
 70
    8
 71
    3
 72
   16
 73
   12
 74
    0
 42
1e-07
 43
1e-07
 40
0
 40
0
 40
0
 40
0
 40
0.478544
 40
0.8660330000000001
 40
1.281106
 40
2.045367
 40
2.749456
 40
3.618648
 40
4.127247
 40
4.423184
 40
4.93172
 40
4.93172
 40
4.93172
 40
4.93172
 10
387.601672
 20
207.140514
 30
0
 10
387.633205
 20
207.299701
 30
0
 10
387.690272
 20
207.587785
 30
0
 10
388.009592
 20
207.912643
 30
0
 10
388.534434
 20
208.021131
 30
0
 10
389.245095
 20
207.707291
 30
0
 10
389.120035
 20
206.745611
 30
0
 10
388.440757
 20
206.446135
 30
0
 10
387.846221
 20
206.329557
 30
0
 10
387.494559
 20
206.679606
 30
0
 10
387.560186
 20
206.962001
 30
0
 10
387.601672
 20
207.140514
 30
0
  0
LINE
  5
96
100
AcDbEntity
  8
0
  6
ByLayer
 62
    7
370
   -1
100
AcDbLine
 10
398.28052
 20
206.76163
 11
398.28052
 21
206.76163
  0
SPLINE
  5
97
100
AcDbEntity
  8
0
  6
ByLayer
 62
    7
370
   -1
100
AcDbSpline
210
0
220
0
230
0
 70
    8
 71
    3
 72
   19
 73
   15
 74
    0
 42
1e-07
 43
1e-07
 40
0
 40
0
 40
0
 40
0
 40
0.274208
 40
0.630213
 40
1.043111
 40
1.534005
 40
1.862427
 40
2.294521
 40
2.669048
 40
3.027235
 40
3.341617
 40
3.972091
 40
4.677938
 40
5.328385
 40
5.328385
 40
5.328385
 40
5.328385
 10
398.28052
 20
206.76163
 30
0
 10
398.25673
 20
206.851942
 30
0
 10
398.202054
 20
207.059504
 30
0
 10
398.345647
 20
207.39977
 30
0
 10
398.602844
 20
207.723756
 30
0
 10
398.905653
 20
208.02601
 30
0
 10
399.352731
 20
208.085727
 30
0
 10
399.671815
 20
207.838185
 30
0
 10
399.928163
 20
207.546848
 30
0
 10
400.052136
 20
207.21179
 30
0
 10
400.032289
 20
206.753576
 30
0
 10
399.525916
 20
206.388276
 30
0
 10
398.816624
 20
206.322678
 30
0
 10
398.454288
 20
206.619352
 30
0
 10
398.28052
 20
206.76163
 30
0
  0
LINE
  5
98
100
AcDbEntity
  8
0
  6
ByLayer
 62
    7
370
   -1
100
AcDbLine
 10
269.361153
 20
227.541661
 11
269.361153
 21
226.483328
  0
LINE
  5
99
100
AcDbEntity
  8
0
  6
ByLayer
 62
    7
370
   -1
100
AcDbLine
 10
269.361153
 20
226.483328
 11
271.654217
 21
226.483328
  0
SPLINE
  5
9A
100
AcDbEntity
  8
0
  6
ByLayer
 62
    7
370
   -1
100
AcDbSpline
210
0
220
0
230
0
 70
    8
 71
    3
 72
   22
 73
   18
 74
    0
 42
1e-07
 43
1e-07
 40
0
 40
0
 40
0
 40
0
 40
0.689851
 40
1.363983
 40
2.788711
 40
3.994562
 40
4.844582
 40
5.389823
 40
6.680144
 40
8.154548
 40
10.031817
 40
10.72085
 40
10.945323
 40
12.132096
 40
13.420897
 40
13.987475
 40
14.728274
 40
14.728274
 40
14.728274
 40
14.728274
 10
273.529716
 20
224.984014
 30
0
 10
273.506515
 20
225.232796
 30
0
 10
273.460642
 20
225.72469
 30
0
 10
272.483022
 20
226.087439
 30
0
 10
271.416287
 20
226.098067
 30
0
 10
270.255655
 20
226.252645
 30
0
 10
269.408115
 20
226.454223
 30
0
 10
268.640724
 20
226.987587
 30
0
 10
268.642863
 20
228.396099
 30
0
 10
270.311855
 20
229.201825
 30
0
 10
271.166798
 20
229.114993
 30
0
 10
272.834404
 20
228.846908
 30
0
 10
272.026356
 20
228.506418
 30
0
 10
271.19935
 20
228.662085
 30
0
 10
270.174709
 20
228.70712
 30
0
 10
269.284819
 20
228.304963
 30
0
 10
269.333544
 20
227.817738
 30
0
 10
269.361153
 20
227.541661
 30
0
  0
LINE
  5
9B
100
AcDbEntity
  8
0
  6
ByLayer
 62
    7
370
   -1
100
AcDbLine
 10
271.236678
 20
224.024608
 11
273.641344
 21
224.01376
  0
LINE
  5
9C
100
AcDbEntity
  8
0
  6
ByLayer
 62
    7
370
   -1
100
AcDbLine
 10
273.641344
 20
224.01376
 11
273.529716
 21
224.983908
  0
LINE
  5
9D
100
AcDbEntity
  8
0
  6
ByLayer
 62
    7
370
   -1
100
AcDbLine
 10
273.529716
 20
224.983908
 11
273.529716
 21
224.984014
  0
SPLINE
  5
9E
100
AcDbEntity
  8
0
  6
ByLayer
 62
    7
370
   -1
100
AcDbSpline
210
0
220
0
230
0
 70
    8
 71
    3
 72
   19
 73
   15
 74
    0
 42
1e-07
 43
1e-07
 40
0
 40
0
 40
0
 40
0
 40
1.46403
 40
2.403092
 40
3.160201
 40
5.411624
 40
7.975176
 40
11.567562
 40
13.435904
 40
15.005073
 40
16.832744
 40
19.032624
 40
20.864293
 40
23.716988
 40
23.716988
 40
23.716988
 40
23.716988
 10
271.654217
 20
226.483328
 30
0
 10
272.141038
 20
226.485511
 30
0
 10
272.940116
 20
226.489094
 30
0
 10
273.999478
 20
226.677143
 30
0
 10
275.100407
 20
227.433965
 30
0
 10
275.752327
 20
229.713371
 30
0
 10
272.874385
 20
231.385941
 30
0
 10
270.231822
 20
231.456545
 30
0
 10
267.896707
 20
230.818058
 30
0
 10
266.665097
 20
229.401572
 30
0
 10
266.482872
 20
227.518902
 30
0
 10
266.602453
 20
225.413902
 30
0
 10
268.685927
 20
223.98529
 30
0
 10
270.271246
 20
224.009727
 30
0
 10
271.236678
 20
224.024608
 30
0
  0
LINE
  5
9F
100
AcDbEntity
  8
0
  6
ByLayer
 62
    7
370
   -1
100
AcDbLine
 10
290.52983
 20
229.089103
 11
289.632152
 21
226.932352
  0
LINE
  5
A0
100
AcDbEntity
  8
0
  6
ByLayer
 62
    7
370
   -1
100
AcDbLine
 10
289.632152
 20
226.932352
 11
288.754873
 21
229.089103
  0
SPLINE
  5
A1
100
AcDbEntity
  8
0
  6
ByLayer
 62
    7
370
   -1
100
AcDbSpline
210
0
220
0
230
0
 70
    8
 71
    3
 72
   13
 73
    9
 74
    0
 42
1e-07
 43
1e-07
 40
0
 40
0
 40
0
 40
0
 40
3.369676
 40
4.392566
 40
5.281985
 40
6.133
 40
6.988924
 40
8.573850999999999
 40
8.573850999999999
 40
8.573850999999999
 40
8.573850999999999
 10
292.181571
 20
227.188892
 30
0
 10
292.55913
 20
228.088764
 30
0
 10
293.0513
 20
229.261798
 30
0
 10
293.787368
 20
231.587564
 30
0
 10
292.557419
 20
231.329226
 30
0
 10
291.72428
 20
231.275518
 30
0
 10
291.001973
 20
230.323019
 30
0
 10
290.71571
 20
229.574889
 30
0
 10
290.52983
 20
229.089103
 30
0
  0
LINE
  5
A2
100
AcDbEntity
  8
0
  6
ByLayer
 62
    7
370
   -1
100
AcDbLine
 10
292.181571
 20
227.188892
 11
292.181571
 21
227.188892
  0
SPLINE
  5
A3
100
AcDbEntity
  8
0
  6
ByLayer
 62
    7
370
   -1
100
AcDbSpline
210
0
220
0
230
0
 70
    8
 71
    3
 72
   25
 73
   21
 74
    0
 42
1e-07
 43
1e-07
 40
0
 40
0
 40
0
 40
0
 40
1.574925
 40
2.42464
 40
3.257226
 40
3.834387
 40
4.246475
 40
4.4227
 40
4.917415
 40
6.042113
 40
7.554085
 40
9.161652
 40
10.536769
 40
11.38173
 40
11.966863
 40
12.488696
 40
13.331201
 40
14.304936
 40
15.347507
 40
17.615559
 40
17.615559
 40
17.615559
 40
17.615559
 10
288.754873
 20
229.089103
 30
0
 10
288.570224
 20
229.575139
 30
0
 10
288.285953
 20
230.323404
 30
0
 10
287.60698
 20
231.257513
 30
0
 10
286.813334
 20
231.361476
 30
0
 10
286.209085
 20
231.382844
 30
0
 10
285.831238
 20
231.401123
 30
0
 10
285.446231
 20
231.241537
 30
0
 10
285.951163
 20
230.546293
 30
0
 10
286.10634
 20
229.660265
 30
0
 10
286.717541
 20
228.30446
 30
0
 10
287.244202
 20
226.927509
 30
0
 10
287.725979
 20
225.732094
 30
0
 10
288.056005
 20
224.876645
 30
0
 10
288.31705
 20
224.23803
 30
0
 10
288.979495
 20
224.000222
 30
0
 10
289.73799
 20
224.096448
 30
0
 10
290.771456
 20
224.138805
 30
0
 10
291.56306
 20
225.479726
 30
0
 10
291.930111
 20
226.494018
 30
0
 10
292.181571
 20
227.188892
 30
0
  0
LINE
  5
A4
100
AcDbEntity
  8
0
  6
ByLayer
 62
    7
370
   -1
100
AcDbLine
 10
303.988285
 20
226.628505
 11
303.856258
 21
224.013892
  0
LINE
  5
A5
100
AcDbEntity
  8
0
  6
ByLayer
 62
    7
370
   -1
100
AcDbLine
 10
303.856258
 20
224.013892
 11
306.916614
 21
224.013892
  0
SPLINE
  5
A6
100
AcDbEntity
  8
0
  6
ByLayer
 62
    7
370
   -1
100
AcDbSpline
210
0
220
0
230
0
 70
    8
 71
    3
 72
   19
 73
   15
 74
    0
 42
1e-07
 43
1e-07
 40
0
 40
0
 40
0
 40
0
 40
1.217392
 40
2.344488
 40
3.840562
 40
4.940904
 40
5.761799
 40
6.592731
 40
8.158199
 40
9.873837999999999
 40
11.654408
 40
13.456673
 40
15.051546
 40
17.43115
 40
17.43115
 40
17.43115
 40
17.43115
 10
310.747542
 20
224.424288
 30
0
 10
311.102845
 20
224.637432
 30
0
 10
311.787097
 20
225.047912
 30
0
 10
312.354319
 20
226.266208
 30
0
 10
312.397872
 20
227.514129
 30
0
 10
312.383657
 20
228.655954
 30
0
 10
312.11472
 20
229.553517
 30
0
 10
311.421608
 20
230.398069
 30
0
 10
310.216893
 20
231.119489
 30
0
 10
308.519951
 20
231.435677
 30
0
 10
306.769282
 20
231.18511
 30
0
 10
305.073459
 20
230.542396
 30
0
 10
304.07286
 20
228.761841
 30
0
 10
304.019958
 20
227.427439
 30
0
 10
303.988285
 20
226.628505
 30
0
  0
LINE
  5
A7
100
AcDbEntity
  8
0
  6
ByLayer
 62
    7
370
   -1
100
AcDbLine
 10
310.747542
 20
224.424288
 11
310.747542
 21
224.424288
  0
SPLINE
  5
A8
100
AcDbEntity
  8
0
  6
ByLayer
 62
    7
370
   -1
100
AcDbSpline
210
0
220
0
230
0
 70
    8
 71
    3
 72
   10
 73
    6
 74
    0
 42
1e-07
 43
1e-07
 40
0
 40
0
 40
0
 40
0
 40
1.648072
 40
3.032244
 40
3.865802
 40
3.865802
 40
3.865802
 40
3.865802
 10
306.916614
 20
224.013892
 30
0
 10
307.465191
 20
224.028099
 30
0
 10
308.474502
 20
224.054238
 30
0
 10
309.767237
 20
224.146339
 30
0
 10
310.47974
 20
224.348357
 30
0
 10
310.747542
 20
224.424288
 30
0
  0
LINE
  5
A9
100
AcDbEntity
  8
0
  6
ByLayer
 62
    7
370
   -1
100
AcDbLine
 10
306.8438
 20
226.364186
 11
306.8438
 21
226.364186
  0
LINE
  5
AA
100
AcDbEntity
  8
0
  6
ByLayer
 62
    7
370
   -1
100
AcDbLine
 10
325.727351
 20
228.864578
 11
325.629217
 21
233.715264
  0
LINE
  5
AB
100
AcDbEntity
  8
0
  6
ByLayer
 62
    7
370
   -1
100
AcDbLine
 10
325.629217
 20
233.715264
 11
324.570884
 21
233.715264
  0
LINE
  5
AC
100
AcDbEntity
  8
0
  6
ByLayer
 62
    7
370
   -1
100
AcDbLine
 10
324.570884
 20
233.715264
 11
323.51255
 21
233.715264
  0
LINE
  5
AD
100
AcDbEntity
  8
0
  6
ByLayer
 62
    7
370
   -1
100
AcDbLine
 10
323.51255
 20
233.715264
 11
323.41439
 21
228.864578
  0
LINE
  5
AE
100
AcDbEntity
  8
0
  6
ByLayer
 62
    7
370
   -1
100
AcDbLine
 10
323.41439
 20
228.864578
 11
323.31623
 21
224.013892
  0
LINE
  5
AF
100
AcDbEntity
  8
0
  6
ByLayer
 62
    7
370
   -1
100
AcDbLine
 10
323.31623
 20
224.013892
 11
324.570884
 21
224.013892
  0
LINE
  5
B0
100
AcDbEntity
  8
0
  6
ByLayer
 62
    7
370
   -1
100
AcDbLine
 10
324.570884
 20
224.013892
 11
325.825511
 21
224.013892
  0
LINE
  5
B1
100
AcDbEntity
  8
0
  6
ByLayer
 62
    7
370
   -1
100
AcDbLine
 10
325.825511
 20
224.013892
 11
325.727351
 21
228.864578
  0
SPLINE
  5
B2
100
AcDbEntity
  8
0
  6
ByLayer
 62
    7
370
   -1
100
AcDbSpline
210
0
220
0
230
0
 70
    8
 71
    3
 72
   19
 73
   15
 74
    0
 42
1e-07
 43
1e-07
 40
0
 40
0
 40
0
 40
0
 40
0.321068
 40
0.785633
 40
1.336015
 40
2.404504
 40
3.480206
 40
4.878361
 40
5.902872
 40
6.830416
 40
7.823496
 40
8.680863
 40
9.869661000000001
 40
11.001842
 40
11.001842
 40
11.001842
 40
11.001842
 10
306.8438
 20
226.364186
 30
0
 10
306.762493
 20
226.436582
 30
0
 10
306.563538
 20
226.61373
 30
0
 10
306.447152
 20
227.064073
 30
0
 10
306.350129
 20
227.74272
 30
0
 10
306.635959
 20
228.704429
 30
0
 10
307.811556
 20
229.214049
 30
0
 10
308.999165
 20
229.121178
 30
0
 10
310.041823
 20
228.552466
 30
0
 10
310.383583
 20
227.553451
 30
0
 10
310.043187
 20
226.562913
 30
0
 10
309.031615
 20
226.196513
 30
0
 10
307.972973
 20
226.098231
 30
0
 10
307.21402
 20
226.276988
 30
0
 10
306.8438
 20
226.364186
 30
0
  0
LINE
  5
B3
100
AcDbEntity
  8
0
  6
ByLayer
 62
    7
370
   -1
100
AcDbLine
 10
344.679217
 20
228.48117
 11
344.679217
 21
231.245828
  0
LINE
  5
B4
100
AcDbEntity
  8
0
  6
ByLayer
 62
    7
370
   -1
100
AcDbLine
 10
344.679217
 20
231.245828
 11
343.620884
 21
231.245828
  0
SPLINE
  5
B5
100
AcDbEntity
  8
0
  6
ByLayer
 62
    7
370
   -1
100
AcDbSpline
210
0
220
0
230
0
 70
    8
 71
    3
 72
   10
 73
    6
 74
    0
 42
1e-07
 43
1e-07
 40
0
 40
0
 40
0
 40
0
 40
0.980089
 40
2.004126
 40
3.916845
 40
3.916845
 40
3.916845
 40
3.916845
 10
343.689411
 20
224.865189
 30
0
 10
343.943952
 20
225.084901
 30
0
 10
344.464449
 20
225.534177
 30
0
 10
344.708635
 20
226.878783
 30
0
 10
344.69082
 20
227.84916
 30
0
 10
344.679217
 20
228.48117
 30
0
  0
LINE
  5
B6
100
AcDbEntity
  8
0
  6
ByLayer
 62
    7
370
   -1
100
AcDbLine
 10
340.537297
 20
226.198319
 11
339.034755
 21
226.30693
  0
LINE
  5
B7
100
AcDbEntity
  8
0
  6
ByLayer
 62
    7
370
   -1
100
AcDbLine
 10
339.034755
 20
226.30693
 11
338.931118
 21
228.864578
  0
LINE
  5
B8
100
AcDbEntity
  8
0
  6
ByLayer
 62
    7
370
   -1
100
AcDbLine
 10
338.931118
 20
228.864578
 11
338.827454
 21
231.422226
  0
LINE
  5
B9
100
AcDbEntity
  8
0
  6
ByLayer
 62
    7
370
   -1
100
AcDbLine
 10
338.827454
 20
231.422226
 11
337.784599
 21
231.422226
  0
LINE
  5
BA
100
AcDbEntity
  8
0
  6
ByLayer
 62
    7
370
   -1
100
AcDbLine
 10
337.784599
 20
231.422226
 11
336.741717
 21
231.422226
  0
LINE
  5
BB
100
AcDbEntity
  8
0
  6
ByLayer
 62
    7
370
   -1
100
AcDbLine
 10
336.741717
 20
231.422226
 11
336.741717
 21
228.583961
  0
SPLINE
  5
BC
100
AcDbEntity
  8
0
  6
ByLayer
 62
    7
370
   -1
100
AcDbSpline
210
0
220
0
230
0
 70
    8
 71
    3
 72
   13
 73
    9
 74
    0
 42
1e-07
 43
1e-07
 40
0
 40
0
 40
0
 40
0
 40
0.746787
 40
1.357911
 40
2.795662
 40
4.914816
 40
5.890894
 40
7.166725
 40
7.166725
 40
7.166725
 40
7.166725
 10
343.620884
 20
231.245828
 30
0
 10
343.341294
 20
231.272308
 30
0
 10
342.832905
 20
231.320456
 30
0
 10
342.442026
 20
230.330539
 30
0
 10
342.511489
 20
228.977424
 30
0
 10
342.608309
 20
227.463978
 30
0
 10
341.840873
 20
225.997125
 30
0
 10
341.008744
 20
226.125556
 30
0
 10
340.537297
 20
226.198319
 30
0
  0
LINE
  5
BD
100
AcDbEntity
  8
0
  6
ByLayer
 62
    7
370
   -1
100
AcDbLine
 10
343.689411
 20
224.865189
 11
343.689411
 21
224.865189
  0
SPLINE
  5
BE
100
AcDbEntity
  8
0
  6
ByLayer
 62
    7
370
   -1
100
AcDbSpline
210
0
220
0
230
0
 70
    8
 71
    3
 72
   16
 73
   12
 74
    0
 42
1e-07
 43
1e-07
 40
0
 40
0
 40
0
 40
0
 40
1.918897
 40
2.993035
 40
3.926727
 40
4.816331
 40
5.731521
 40
7.13184
 40
8.524946
 40
9.490418999999999
 40
10.433417
 40
10.433417
 40
10.433417
 40
10.433417
 10
336.741717
 20
228.583961
 30
0
 10
336.737045
 20
227.948433
 30
0
 10
336.729759
 20
226.957155
 30
0
 10
336.931159
 20
225.619604
 30
0
 10
337.58366
 20
224.875018
 30
0
 10
338.280726
 20
224.263524
 30
0
 10
339.349719
 20
224.009281
 30
0
 10
340.584063
 20
224.014018
 30
0
 10
341.835674
 20
224.018096
 30
0
 10
342.93512
 20
224.26886
 30
0
 10
343.439962
 20
224.66798
 30
0
 10
343.689411
 20
224.865189
 30
0
  0
LINE
  5
BF
100
AcDbEntity
  8
0
  6
ByLayer
 62
    7
370
   -1
100
AcDbLine
 10
356.497255
 20
232.480559
 11
355.438922
 21
232.480559
  0
LINE
  5
C0
100
AcDbEntity
  8
0
  6
ByLayer
 62
    7
370
   -1
100
AcDbLine
 10
355.438922
 20
232.480559
 11
355.438922
 21
229.278413
  0
SPLINE
  5
C1
100
AcDbEntity
  8
0
  6
ByLayer
 62
    7
370
   -1
100
AcDbSpline
210
0
220
0
230
0
 70
    8
 71
    3
 72
   28
 73
   24
 74
    0
 42
1e-07
 43
1e-07
 40
0
 40
0
 40
0
 40
0
 40
0.708741
 40
1.155187
 40
1.963685
 40
3.248192
 40
4.319443
 40
5.514636
 40
6.206179
 40
6.653906
 40
7.478295
 40
8.305649000000001
 40
8.755945000000001
 40
9.466588
 40
10.177219
 40
10.627519
 40
11.454873
 40
12.160399
 40
12.598709
 40
12.926394
 40
13.243018
 40
13.637434
 40
14.228334
 40
14.228334
 40
14.228334
 40
14.228334
 10
361.083384
 20
225.072226
 30
0
 10
361.107024
 20
225.324344
 30
0
 10
361.145555
 20
225.735276
 30
0
 10
360.587313
 20
226.204366
 30
0
 10
359.704857
 20
226.073584
 30
0
 10
358.64147
 20
226.239506
 30
0
 10
357.672685
 20
227.089157
 30
0
 10
357.57114
 20
228.083212
 30
0
 10
357.496359
 20
228.92923
 30
0
 10
358.069797
 20
229.37384
 30
0
 10
358.791507
 20
229.306557
 30
0
 10
359.513239
 20
229.233608
 30
0
 10
360.095517
 20
229.694917
 30
0
 10
359.982115
 20
230.364356
 30
0
 10
360.094867
 20
231.031333
 30
0
 10
359.515268
 20
231.498569
 30
0
 10
358.818014
 20
231.394746
 30
0
 10
358.1918
 20
231.441006
 30
0
 10
357.656815
 20
231.577028
 30
0
 10
357.554496
 20
231.947723
 30
0
 10
357.469649
 20
232.302652
 30
0
 10
357.012346
 20
232.464029
 30
0
 10
356.690355
 20
232.474362
 30
0
 10
356.497255
 20
232.480559
 30
0
  0
LINE
  5
C2
100
AcDbEntity
  8
0
  6
ByLayer
 62
    7
370
   -1
100
AcDbLine
 10
361.083384
 20
225.072226
 11
361.083384
 21
225.072226
  0
SPLINE
  5
C3
100
AcDbEntity
  8
0
  6
ByLayer
 62
    7
370
   -1
100
AcDbSpline
210
0
220
0
230
0
 70
    8
 71
    3
 72
   16
 73
   12
 74
    0
 42
1e-07
 43
1e-07
 40
0
 40
0
 40
0
 40
0
 40
2.242344
 40
3.412279
 40
4.521308
 40
5.540823
 40
6.424901
 40
7.636523
 40
8.881558
 40
9.430253
 40
10.169234
 40
10.169234
 40
10.169234
 40
10.169234
 10
355.438922
 20
229.278413
 30
0
 10
355.426041
 20
228.536848
 30
0
 10
355.406441
 20
227.408375
 30
0
 10
355.645503
 20
225.860538
 30
0
 10
356.450541
 20
225.061912
 30
0
 10
357.174063
 20
224.357736
 30
0
 10
358.184929
 20
224.003102
 30
0
 10
359.308192
 20
224.050559
 30
0
 10
360.295598
 20
223.911232
 30
0
 10
361.163605
 20
224.318136
 30
0
 10
361.112635
 20
224.797262
 30
0
 10
361.083384
 20
225.072226
 30
0
  0
LINE
  5
C4
100
AcDbEntity
  8
0
  6
ByLayer
 62
    7
370
   -1
100
AcDbLine
 10
372.126298
 20
226.77474
 11
372.174294
 21
224.013892
  0
LINE
  5
C5
100
AcDbEntity
  8
0
  6
ByLayer
 62
    7
370
   -1
100
AcDbLine
 10
372.174294
 20
224.013892
 11
373.243422
 21
224.013787
  0
LINE
  5
C6
100
AcDbEntity
  8
0
  6
ByLayer
 62
    7
370
   -1
100
AcDbLine
 10
373.243422
 20
224.013787
 11
374.31255
 21
224.013681
  0
LINE
  5
C7
100
AcDbEntity
  8
0
  6
ByLayer
 62
    7
370
   -1
100
AcDbLine
 10
374.31255
 20
224.013681
 11
374.267677
 21
227.100574
  0
SPLINE
  5
C8
100
AcDbEntity
  8
0
  6
ByLayer
 62
    7
370
   -1
100
AcDbSpline
210
0
220
0
230
0
 70
    8
 71
    3
 72
   13
 73
    9
 74
    0
 42
1e-07
 43
1e-07
 40
0
 40
0
 40
0
 40
0
 40
2.104668
 40
3.004102
 40
3.595641
 40
4.463146
 40
5.577127
 40
7.916964
 40
7.916964
 40
7.916964
 40
7.916964
 10
374.267677
 20
227.100574
 30
0
 10
374.250894
 20
227.770268
 30
0
 10
374.226938
 20
228.726156
 30
0
 10
374.151183
 20
230.100549
 30
0
 10
373.340087
 20
230.375159
 30
0
 10
372.354575
 20
230.28348
 30
0
 10
372.084368
 20
228.616583
 30
0
 10
372.109364
 20
227.518591
 30
0
 10
372.126298
 20
226.77474
 30
0
  0
LINE
  5
C9
100
AcDbEntity
  8
0
  6
ByLayer
 62
    7
370
   -1
100
AcDbLine
 10
385.432882
 20
226.571514
 11
385.424945
 21
224.013892
  0
LINE
  5
CA
100
AcDbEntity
  8
0
  6
ByLayer
 62
    7
370
   -1
100
AcDbLine
 10
385.424945
 20
224.013892
 11
388.224183
 21
224.013892
  0
SPLINE
  5
CB
100
AcDbEntity
  8
0
  6
ByLayer
 62
    7
370
   -1
100
AcDbSpline
210
0
220
0
230
0
 70
    8
 71
    3
 72
   16
 73
   12
 74
    0
 42
1e-07
 43
1e-07
 40
0
 40
0
 40
0
 40
0
 40
2.073456
 40
4.42483
 40
6.581952
 40
8.969583
 40
11.618124
 40
13.810767
 40
14.63234
 40
15.718097
 40
17.311986
 40
17.311986
 40
17.311986
 40
17.311986
 10
391.945548
 20
224.364412
 30
0
 10
392.490383
 20
224.824773
 30
0
 10
393.653081
 20
225.807198
 30
0
 10
393.926173
 20
228.151105
 30
0
 10
393.051928
 20
230.487145
 30
0
 10
390.532004
 20
231.247112
 30
0
 10
388.172291
 20
231.207955
 30
0
 10
386.244501
 20
230.418703
 30
0
 10
385.623989
 20
229.158028
 30
0
 10
385.452071
 20
227.996179
 30
0
 10
385.440039
 20
227.102867
 30
0
 10
385.432882
 20
226.571514
 30
0
  0
LINE
  5
CC
100
AcDbEntity
  8
0
  6
ByLayer
 62
    7
370
   -1
100
AcDbLine
 10
391.945442
 20
224.364412
 11
391.945548
 21
224.364412
  0
SPLINE
  5
CD
100
AcDbEntity
  8
0
  6
ByLayer
 62
    7
370
   -1
100
AcDbSpline
210
0
220
0
230
0
 70
    8
 71
    3
 72
   10
 73
    6
 74
    0
 42
1e-07
 43
1e-07
 40
0
 40
0
 40
0
 40
0
 40
1.537104
 40
2.879914
 40
3.746111
 40
3.746111
 40
3.746111
 40
3.746111
 10
388.224183
 20
224.013892
 30
0
 10
388.736136
 20
224.025625
 30
0
 10
389.695329
 20
224.047607
 30
0
 10
390.945283
 20
224.134827
 30
0
 10
391.663726
 20
224.299745
 30
0
 10
391.945442
 20
224.364412
 30
0
  0
LINE
  5
CE
100
AcDbEntity
  8
0
  6
ByLayer
 62
    7
370
   -1
100
AcDbLine
 10
387.898296
 20
226.655148
 11
387.898296
 21
226.655148
  0
SPLINE
  5
CF
100
AcDbEntity
  8
0
  6
ByLayer
 62
    7
370
   -1
100
AcDbSpline
210
0
220
0
230
0
 70
    8
 71
    3
 72
   19
 73
   15
 74
    0
 42
1e-07
 43
1e-07
 40
0
 40
0
 40
0
 40
0
 40
0.424608
 40
0.921957
 40
1.419922
 40
2.533273
 40
3.820066
 40
5.189287
 40
6.037347
 40
6.639312
 40
7.522243
 40
8.654439
 40
10.099762
 40
11.31064
 40
11.31064
 40
11.31064
 40
11.31064
 10
387.898296
 20
226.655148
 30
0
 10
387.826426
 20
226.778667
 30
0
 10
387.670372
 20
227.046865
 30
0
 10
387.613348
 20
227.525182
 30
0
 10
387.647715
 20
228.239788
 30
0
 10
388.381482
 20
229.033712
 30
0
 10
389.683212
 20
229.276484
 30
0
 10
390.807849
 20
228.905371
 30
0
 10
391.631768
 20
228.342774
 30
0
 10
391.806922
 20
227.533198
 30
0
 10
391.440713
 20
226.66522
 30
0
 10
390.368387
 20
226.099222
 30
0
 10
389.039826
 20
226.011905
 30
0
 10
388.255737
 20
226.453733
 30
0
 10
387.898296
 20
226.655148
 30
0
  0
LINE
  5
D0
100
AcDbEntity
  8
0
  6
ByLayer
 62
    7
370
   -1
100
AcDbLine
 10
409.766717
 20
226.476608
 11
409.766717
 21
224.013892
  0
LINE
  5
D1
100
AcDbEntity
  8
0
  6
ByLayer
 62
    7
370
   -1
100
AcDbLine
 10
409.766717
 20
224.013892
 11
410.82505
 21
224.013892
  0
LINE
  5
D2
100
AcDbEntity
  8
0
  6
ByLayer
 62
    7
370
   -1
100
AcDbLine
 10
410.82505
 20
224.013892
 11
411.883384
 21
224.013892
  0
LINE
  5
D3
100
AcDbEntity
  8
0
  6
ByLayer
 62
    7
370
   -1
100
AcDbLine
 10
411.883384
 20
224.013892
 11
411.883384
 21
226.836097
  0
SPLINE
  5
D4
100
AcDbEntity
  8
0
  6
ByLayer
 62
    7
370
   -1
100
AcDbSpline
210
0
220
0
230
0
 70
    8
 71
    3
 72
   16
 73
   12
 74
    0
 42
1e-07
 43
1e-07
 40
0
 40
0
 40
0
 40
0
 40
1.487574
 40
2.295747
 40
2.921406
 40
3.438408
 40
4.012471
 40
4.544012
 40
5.177954
 40
5.94516
 40
7.620543
 40
7.620543
 40
7.620543
 40
7.620543
 10
406.591717
 20
226.294521
 30
0
 10
406.59172
 20
226.78456
 30
0
 10
406.591726
 20
227.540829
 30
0
 10
406.74594
 20
228.553473
 30
0
 10
407.285798
 20
228.987901
 30
0
 10
407.832279
 20
229.161032
 30
0
 10
408.377312
 20
229.224907
 30
0
 10
408.94498
 20
229.171124
 30
0
 10
409.623937
 20
228.937205
 30
0
 10
409.784274
 20
227.80722
 30
0
 10
409.77386
 20
227.017963
 30
0
 10
409.766717
 20
226.476608
 30
0
  0
LINE
  5
D5
100
AcDbEntity
  8
0
  6
ByLayer
 62
    7
370
   -1
100
AcDbLine
 10
404.47505
 20
226.640041
 11
404.47505
 21
224.013892
  0
LINE
  5
D6
100
AcDbEntity
  8
0
  6
ByLayer
 62
    7
370
   -1
100
AcDbLine
 10
404.47505
 20
224.013892
 11
405.533384
 21
224.013892
  0
LINE
  5
D7
100
AcDbEntity
  8
0
  6
ByLayer
 62
    7
370
   -1
100
AcDbLine
 10
405.533384
 20
224.013892
 11
406.591717
 21
224.013892
  0
LINE
  5
D8
100
AcDbEntity
  8
0
  6
ByLayer
 62
    7
370
   -1
100
AcDbLine
 10
406.591717
 20
224.013892
 11
406.591717
 21
226.294521
  0
SPLINE
  5
D9
100
AcDbEntity
  8
0
  6
ByLayer
 62
    7
370
   -1
100
AcDbSpline
210
0
220
0
230
0
 70
    8
 71
    3
 72
   13
 73
    9
 74
    0
 42
1e-07
 43
1e-07
 40
0
 40
0
 40
0
 40
0
 40
2.913252
 40
4.725311
 40
7.679651
 40
9.406938999999999
 40
11.0894
 40
13.632974
 40
13.632974
 40
13.632974
 40
13.632974
 10
411.883384
 20
226.836097
 30
0
 10
411.959671
 20
227.861945
 30
0
 10
412.08341
 20
229.525876
 30
0
 10
409.989688
 20
231.457906
 30
0
 10
407.723982
 20
231.173109
 30
0
 10
405.508279
 20
230.83081
 30
0
 10
404.485429
 20
228.893913
 30
0
 10
404.47895
 20
227.486898
 30
0
 10
404.47505
 20
226.640041
 30
0
  0
LINE
  5
DA
100
AcDbEntity
  8
0
  6
ByLayer
 62
    7
370
   -1
100
AcDbLine
 10
374.02479
 20
231.451965
 11
374.02479
 21
231.451965
  0
SPLINE
  5
DB
100
AcDbEntity
  8
0
  6
ByLayer
 62
    7
370
   -1
100
AcDbSpline
210
0
220
0
230
0
 70
    8
 71
    3
 72
   16
 73
   12
 74
    0
 42
1e-07
 43
1e-07
 40
0
 40
0
 40
0
 40
0
 40
0.783813
 40
1.54968
 40
2.376027
 40
2.886219
 40
3.251968
 40
3.7519
 40
4.766986
 40
5.467157
 40
6.361113
 40
6.361113
 40
6.361113
 40
6.361113
 10
374.02479
 20
231.451965
 30
0
 10
374.164491
 20
231.690383
 30
0
 10
374.440697
 20
232.16176
 30
0
 10
374.028462
 20
232.986196
 30
0
 10
373.325909
 20
233.216973
 30
0
 10
372.733118
 20
233.185325
 30
0
 10
372.371159
 20
232.838046
 30
0
 10
372.366931
 20
232.18545
 30
0
 10
372.417892
 20
231.40005
 30
0
 10
373.316466
 20
230.864618
 30
0
 10
373.770293
 20
231.240934
 30
0
 10
374.02479
 20
231.451965
 30
0
  0
LINE
  5
DC
100
AcDbEntity
  8
0
  6
ByLayer
 62
    7
370
   -1
100
AcDbLine
 10
311.53952
 20
172.895757
 11
311.528177276498
 21
173.0263951675782
  0
LINE
  5
DD
100
AcDbEntity
  8
0
  6
ByLayer
 62
    7
370
   -1
100
AcDbLine
 10
311.528177276498
 20
173.0263951675782
 11
311.5103421843399
 21
173.1548100430077
  0
LINE
  5
DE
100
AcDbEntity
  8
0
  6
ByLayer
 62
    7
370
   -1
100
AcDbLine
 10
311.5103421843399
 20
173.1548100430077
 11
311.4795269071672
 21
173.2787806207634
  0
LINE
  5
DF
100
AcDbEntity
  8
0
  6
ByLayer
 62
    7
370
   -1
100
AcDbLine
 10
311.4795269071672
 20
173.2787806207634
 11
311.4317377970466
 21
173.3968570730726
  0
LINE
  5
E0
100
AcDbEntity
  8
0
  6
ByLayer
 62
    7
370
   -1
100
AcDbLine
 10
311.4317377970466
 20
173.3968570730726
 11
311.3694423912951
 21
173.5095873211002
  0
LINE
  5
E1
100
AcDbEntity
  8
0
  6
ByLayer
 62
    7
370
   -1
100
AcDbLine
 10
311.3694423912951
 20
173.5095873211002
 11
311.2961407339213
 21
173.6178385291632
  0
LINE
  5
E2
100
AcDbEntity
  8
0
  6
ByLayer
 62
    7
370
   -1
100
AcDbLine
 10
311.2961407339213
 20
173.6178385291632
 11
311.2153328689338
 21
173.7224778615784
  0
LINE
  5
E3
100
AcDbEntity
  8
0
  6
ByLayer
 62
    7
370
   -1
100
AcDbLine
 10
311.2153328689338
 20
173.7224778615784
 11
311.1305188403408
 21
173.8243724826628
  0
LINE
  5
E4
100
AcDbEntity
  8
0
  6
ByLayer
 62
    7
370
   -1
100
AcDbLine
 10
311.1305188403408
 20
173.8243724826628
 11
311.0448956086205
 21
173.9243354925673
  0
LINE
  5
E5
100
AcDbEntity
  8
0
  6
ByLayer
 62
    7
370
   -1
100
AcDbLine
 10
311.0448956086205
 20
173.9243354925673
 11
310.9593351748232
 21
174.0227652642147
  0
LINE
  5
E6
100
AcDbEntity
  8
0
  6
ByLayer
 62
    7
370
   -1
100
AcDbLine
 10
310.9593351748232
 20
174.0227652642147
 11
310.8736332777677
 21
174.119868186424
  0
LINE
  5
E7
100
AcDbEntity
  8
0
  6
ByLayer
 62
    7
370
   -1
100
AcDbLine
 10
310.8736332777677
 20
174.119868186424
 11
310.787579801825
 21
174.2158496036954
  0
LINE
  5
E8
100
AcDbEntity
  8
0
  6
ByLayer
 62
    7
370
   -1
100
AcDbLine
 10
310.787579801825
 20
174.2158496036954
 11
310.7009646313655
 21
174.3109148605291
  0
LINE
  5
E9
100
AcDbEntity
  8
0
  6
ByLayer
 62
    7
370
   -1
100
AcDbLine
 10
310.7009646313655
 20
174.3109148605291
 11
310.6135776507602
 21
174.4052693014253
  0
LINE
  5
EA
100
AcDbEntity
  8
0
  6
ByLayer
 62
    7
370
   -1
100
AcDbLine
 10
310.6135776507602
 20
174.4052693014253
 11
310.52520874438
 21
174.4991182708841
  0
LINE
  5
EB
100
AcDbEntity
  8
0
  6
ByLayer
 62
    7
370
   -1
100
AcDbLine
 10
310.52520874438
 20
174.4991182708841
 11
310.4356993225956
 21
174.5926633984911
  0
LINE
  5
EC
100
AcDbEntity
  8
0
  6
ByLayer
 62
    7
370
   -1
100
AcDbLine
 10
310.4356993225956
 20
174.5926633984911
 11
310.3453551933358
 21
174.6860728317583
  0
LINE
  5
ED
100
AcDbEntity
  8
0
  6
ByLayer
 62
    7
370
   -1
100
AcDbLine
 10
310.3453551933358
 20
174.6860728317583
 11
310.2547282048671
 21
174.7794969792143
  0
LINE
  5
EE
100
AcDbEntity
  8
0
  6
ByLayer
 62
    7
370
   -1
100
AcDbLine
 10
310.2547282048671
 20
174.7794969792143
 11
310.1643724548457
 21
174.8730860872116
  0
LINE
  5
EF
100
AcDbEntity
  8
0
  6
ByLayer
 62
    7
370
   -1
100
AcDbLine
 10
310.1643724548457
 20
174.8730860872116
 11
310.0748420409276
 21
174.9669904021025
  0
LINE
  5
F0
100
AcDbEntity
  8
0
  6
ByLayer
 62
    7
370
   -1
100
AcDbLine
 10
310.0748420409276
 20
174.9669904021025
 11
309.986691060769
 21
175.0613601702394
  0
LINE
  5
F1
100
AcDbEntity
  8
0
  6
ByLayer
 62
    7
370
   -1
100
AcDbLine
 10
309.986691060769
 20
175.0613601702394
 11
309.9004736120261
 21
175.1563456379748
  0
LINE
  5
F2
100
AcDbEntity
  8
0
  6
ByLayer
 62
    7
370
   -1
100
AcDbLine
 10
309.9004736120261
 20
175.1563456379748
 11
309.8167178097306
 21
175.252109442605
  0
LINE
  5
F3
100
AcDbEntity
  8
0
  6
ByLayer
 62
    7
370
   -1
100
AcDbLine
 10
309.8167178097306
 20
175.252109442605
 11
309.7353716471632
 21
175.3490908777069
  0
LINE
  5
F4
100
AcDbEntity
  8
0
  6
ByLayer
 62
    7
370
   -1
100
AcDbLine
 10
309.7353716471632
 20
175.3490908777069
 11
309.6558125431824
 21
175.4480013400779
  0
LINE
  5
F5
100
AcDbEntity
  8
0
  6
ByLayer
 62
    7
370
   -1
100
AcDbLine
 10
309.6558125431824
 20
175.4480013400779
 11
309.5773938436524
 21
175.5495637067698
  0
LINE
  5
F6
100
AcDbEntity
  8
0
  6
ByLayer
 62
    7
370
   -1
100
AcDbLine
 10
309.5773938436524
 20
175.5495637067698
 11
309.4994688944379
 21
175.6545008548341
  0
LINE
  5
F7
100
AcDbEntity
  8
0
  6
ByLayer
 62
    7
370
   -1
100
AcDbLine
 10
309.4994688944379
 20
175.6545008548341
 11
309.4213910414032
 21
175.7635356613222
  0
LINE
  5
F8
100
AcDbEntity
  8
0
  6
ByLayer
 62
    7
370
   -1
100
AcDbLine
 10
309.4213910414032
 20
175.7635356613222
 11
309.3435143552852
 21
175.8772117897041
  0
LINE
  5
F9
100
AcDbEntity
  8
0
  6
ByLayer
 62
    7
370
   -1
100
AcDbLine
 10
309.3435143552852
 20
175.8772117897041
 11
309.2755744805026
 21
175.9943928158785
  0
LINE
  5
FA
100
AcDbEntity
  8
0
  6
ByLayer
 62
    7
370
   -1
100
AcDbLine
 10
309.2755744805026
 20
175.9943928158785
 11
309.2324378254592
 21
176.1130234791933
  0
LINE
  5
FB
100
AcDbEntity
  8
0
  6
ByLayer
 62
    7
370
   -1
100
AcDbLine
 10
309.2324378254592
 20
176.1130234791933
 11
309.2283223859038
 21
176.2310919904606
  0
LINE
  5
FC
100
AcDbEntity
  8
0
  6
ByLayer
 62
    7
370
   -1
100
AcDbLine
 10
309.2283223859038
 20
176.2310919904606
 11
309.2641780087854
 21
176.3475869187834
  0
LINE
  5
FD
100
AcDbEntity
  8
0
  6
ByLayer
 62
    7
370
   -1
100
AcDbLine
 10
309.2641780087854
 20
176.3475869187834
 11
309.3290982079172
 21
176.4623907470518
  0
LINE
  5
FE
100
AcDbEntity
  8
0
  6
ByLayer
 62
    7
370
   -1
100
AcDbLine
 10
309.3290982079172
 20
176.4623907470518
 11
309.411759335798
 21
176.5754174102288
  0
LINE
  5
FF
100
AcDbEntity
  8
0
  6
ByLayer
 62
    7
370
   -1
100
AcDbLine
 10
309.411759335798
 20
176.5754174102288
 11
309.5008377656432
 21
176.6865808437532
  0
LINE
  5
100
100
AcDbEntity
  8
0
  6
ByLayer
 62
    7
370
   -1
100
AcDbLine
 10
309.5008377656432
 20
176.6865808437532
 11
309.5871483310395
 21
176.7958441199103
  0
LINE
  5
101
100
AcDbEntity
  8
0
  6
ByLayer
 62
    7
370
   -1
100
AcDbLine
 10
309.5871483310395
 20
176.7958441199103
 11
309.6695189178943
 21
176.9033544322928
  0
LINE
  5
102
100
AcDbEntity
  8
0
  6
ByLayer
 62
    7
370
   -1
100
AcDbLine
 10
309.6695189178943
 20
176.9033544322928
 11
309.74865392381
 21
177.0093020923681
  0
LINE
  5
103
100
AcDbEntity
  8
0
  6
ByLayer
 62
    7
370
   -1
100
AcDbLine
 10
309.74865392381
 20
177.0093020923681
 11
309.8252577463893
 21
177.113877411604
  0
LINE
  5
104
100
AcDbEntity
  8
0
  6
ByLayer
 62
    7
370
   -1
100
AcDbLine
 10
309.8252577463893
 20
177.113877411604
 11
309.9000347832349
 21
177.2172707014681
  0
LINE
  5
105
100
AcDbEntity
  8
0
  6
ByLayer
 62
    7
370
   -1
100
AcDbLine
 10
309.9000347832349
 20
177.2172707014681
 11
309.9736894319495
 21
177.3196722734279
  0
LINE
  5
106
100
AcDbEntity
  8
0
  6
ByLayer
 62
    7
370
   -1
100
AcDbLine
 10
309.9736894319495
 20
177.3196722734279
 11
310.0469260901356
 21
177.421272438951
  0
LINE
  5
107
100
AcDbEntity
  8
0
  6
ByLayer
 62
    7
370
   -1
100
AcDbLine
 10
310.0469260901356
 20
177.421272438951
 11
310.120449155396
 21
177.5222615095049
  0
LINE
  5
108
100
AcDbEntity
  8
0
  6
ByLayer
 62
    7
370
   -1
100
AcDbLine
 10
310.120449155396
 20
177.5222615095049
 11
310.1949630253334
 21
177.6228297965574
  0
LINE
  5
109
100
AcDbEntity
  8
0
  6
ByLayer
 62
    7
370
   -1
100
AcDbLine
 10
310.1949630253334
 20
177.6228297965574
 11
310.2711191672446
 21
177.7231566243943
  0
LINE
  5
10A
100
AcDbEntity
  8
0
  6
ByLayer
 62
    7
370
   -1
100
AcDbLine
 10
310.2711191672446
 20
177.7231566243943
 11
310.3490412187534
 21
177.8233117513269
  0
LINE
  5
10B
100
AcDbEntity
  8
0
  6
ByLayer
 62
    7
370
   -1
100
AcDbLine
 10
310.3490412187534
 20
177.8233117513269
 11
310.4285496900217
 21
177.92330201299
  0
LINE
  5
10C
100
AcDbEntity
  8
0
  6
ByLayer
 62
    7
370
   -1
100
AcDbLine
 10
310.4285496900217
 20
177.92330201299
 11
310.5094614819329
 21
178.0231334958105
  0
LINE
  5
10D
100
AcDbEntity
  8
0
  6
ByLayer
 62
    7
370
   -1
100
AcDbLine
 10
310.5094614819329
 20
178.0231334958105
 11
310.5915934953707
 21
178.1228122862155
  0
LINE
  5
10E
100
AcDbEntity
  8
0
  6
ByLayer
 62
    7
370
   -1
100
AcDbLine
 10
310.5915934953707
 20
178.1228122862155
 11
310.6747626312182
 21
178.222344470632
  0
LINE
  5
10F
100
AcDbEntity
  8
0
  6
ByLayer
 62
    7
370
   -1
100
AcDbLine
 10
310.6747626312182
 20
178.222344470632
 11
310.7587857903592
 21
178.3217361354871
  0
LINE
  5
110
100
AcDbEntity
  8
0
  6
ByLayer
 62
    7
370
   -1
100
AcDbLine
 10
310.7587857903592
 20
178.3217361354871
 11
310.8434798736772
 21
178.4209933672076
  0
LINE
  5
111
100
AcDbEntity
  8
0
  6
ByLayer
 62
    7
370
   -1
100
AcDbLine
 10
310.8434798736772
 20
178.4209933672076
 11
310.9286617820553
 21
178.5201222522205
  0
LINE
  5
112
100
AcDbEntity
  8
0
  6
ByLayer
 62
    7
370
   -1
100
AcDbLine
 10
310.9286617820553
 20
178.5201222522205
 11
311.0141484163772
 21
178.619128876953
  0
LINE
  5
113
100
AcDbEntity
  8
0
  6
ByLayer
 62
    7
370
   -1
100
AcDbLine
 10
311.0141484163772
 20
178.619128876953
 11
311.0997566775264
 21
178.7180193278319
  0
LINE
  5
114
100
AcDbEntity
  8
0
  6
ByLayer
 62
    7
370
   -1
100
AcDbLine
 10
311.0997566775264
 20
178.7180193278319
 11
311.1853034663864
 21
178.8167996912843
  0
LINE
  5
115
100
AcDbEntity
  8
0
  6
ByLayer
 62
    7
370
   -1
100
AcDbLine
 10
311.1853034663864
 20
178.8167996912843
 11
311.2706110437159
 21
178.9154766654911
  0
LINE
  5
116
100
AcDbEntity
  8
0
  6
ByLayer
 62
    7
370
   -1
100
AcDbLine
 10
311.2706110437159
 20
178.9154766654911
 11
311.355598943115
 21
179.01406805095
  0
LINE
  5
117
100
AcDbEntity
  8
0
  6
ByLayer
 62
    7
370
   -1
100
AcDbLine
 10
311.355598943115
 20
179.01406805095
 11
311.4402714011509
 21
179.112601315803
  0
LINE
  5
118
100
AcDbEntity
  8
0
  6
ByLayer
 62
    7
370
   -1
100
AcDbLine
 10
311.4402714011509
 20
179.112601315803
 11
311.5246354851936
 21
179.2111042512878
  0
LINE
  5
119
100
AcDbEntity
  8
0
  6
ByLayer
 62
    7
370
   -1
100
AcDbLine
 10
311.5246354851936
 20
179.2111042512878
 11
311.6086982626128
 21
179.3096046486424
  0
LINE
  5
11A
100
AcDbEntity
  8
0
  6
ByLayer
 62
    7
370
   -1
100
AcDbLine
 10
311.6086982626128
 20
179.3096046486424
 11
311.6924668007784
 21
179.4081302991046
  0
LINE
  5
11B
100
AcDbEntity
  8
0
  6
ByLayer
 62
    7
370
   -1
100
AcDbLine
 10
311.6924668007784
 20
179.4081302991046
 11
311.7759481670602
 21
179.5067089939121
  0
LINE
  5
11C
100
AcDbEntity
  8
0
  6
ByLayer
 62
    7
370
   -1
100
AcDbLine
 10
311.7759481670602
 20
179.5067089939121
 11
311.8591494288278
 21
179.6053685243029
  0
LINE
  5
11D
100
AcDbEntity
  8
0
  6
ByLayer
 62
    7
370
   -1
100
AcDbLine
 10
311.8591494288278
 20
179.6053685243029
 11
311.9420776534512
 21
179.7041366815147
  0
LINE
  5
11E
100
AcDbEntity
  8
0
  6
ByLayer
 62
    7
370
   -1
100
AcDbLine
 10
311.9420776534512
 20
179.7041366815147
 11
312.0247399083
 21
179.8030412567854
  0
LINE
  5
11F
100
AcDbEntity
  8
0
  6
ByLayer
 62
    7
370
   -1
100
AcDbLine
 10
312.0247399083
 20
179.8030412567854
 11
312.1071432607444
 21
179.902110041353
  0
LINE
  5
120
100
AcDbEntity
  8
0
  6
ByLayer
 62
    7
370
   -1
100
AcDbLine
 10
312.1071432607444
 20
179.902110041353
 11
312.1892947781537
 21
180.001370826455
  0
LINE
  5
121
100
AcDbEntity
  8
0
  6
ByLayer
 62
    7
370
   -1
100
AcDbLine
 10
312.1892947781537
 20
180.001370826455
 11
312.2712015278979
 21
180.1008514033296
  0
LINE
  5
122
100
AcDbEntity
  8
0
  6
ByLayer
 62
    7
370
   -1
100
AcDbLine
 10
312.2712015278979
 20
180.1008514033296
 11
312.3528705773469
 21
180.2005795632143
  0
LINE
  5
123
100
AcDbEntity
  8
0
  6
ByLayer
 62
    7
370
   -1
100
AcDbLine
 10
312.3528705773469
 20
180.2005795632143
 11
312.4343089938704
 21
180.3005830973472
  0
LINE
  5
124
100
AcDbEntity
  8
0
  6
ByLayer
 62
    7
370
   -1
100
AcDbLine
 10
312.4343089938704
 20
180.3005830973472
 11
312.5155238448383
 21
180.4008897969661
  0
LINE
  5
125
100
AcDbEntity
  8
0
  6
ByLayer
 62
    7
370
   -1
100
AcDbLine
 10
312.5155238448383
 20
180.4008897969661
 11
312.5965221976202
 21
180.5015274533087
  0
LINE
  5
126
100
AcDbEntity
  8
0
  6
ByLayer
 62
    7
370
   -1
100
AcDbLine
 10
312.5965221976202
 20
180.5015274533087
 11
312.677311119586
 21
180.6025238576129
  0
LINE
  5
127
100
AcDbEntity
  8
0
  6
ByLayer
 62
    7
370
   -1
100
AcDbLine
 10
312.677311119586
 20
180.6025238576129
 11
312.7578976781056
 21
180.7039068011166
  0
LINE
  5
128
100
AcDbEntity
  8
0
  6
ByLayer
 62
    7
370
   -1
100
AcDbLine
 10
312.7578976781056
 20
180.7039068011166
 11
312.8382889405485
 21
180.8057040750576
  0
LINE
  5
129
100
AcDbEntity
  8
0
  6
ByLayer
 62
    7
370
   -1
100
AcDbLine
 10
312.8382889405485
 20
180.8057040750576
 11
312.9184919742848
 21
180.9079434706737
  0
LINE
  5
12A
100
AcDbEntity
  8
0
  6
ByLayer
 62
    7
370
   -1
100
AcDbLine
 10
312.9184919742848
 20
180.9079434706737
 11
312.9985138466842
 21
181.0106527792028
  0
LINE
  5
12B
100
AcDbEntity
  8
0
  6
ByLayer
 62
    7
370
   -1
100
AcDbLine
 10
312.9985138466842
 20
181.0106527792028
 11
313.0783616251165
 21
181.1138597918827
  0
LINE
  5
12C
100
AcDbEntity
  8
0
  6
ByLayer
 62
    7
370
   -1
100
AcDbLine
 10
313.0783616251165
 20
181.1138597918827
 11
313.1580234806877
 21
181.2175910007317
  0
LINE
  5
12D
100
AcDbEntity
  8
0
  6
ByLayer
 62
    7
370
   -1
100
AcDbLine
 10
313.1580234806877
 20
181.2175910007317
 11
313.2373598999712
 21
181.321864118771
  0
LINE
  5
12E
100
AcDbEntity
  8
0
  6
ByLayer
 62
    7
370
   -1
100
AcDbLine
 10
313.2373598999712
 20
181.321864118771
 11
313.3161785109994
 21
181.4266932247133
  0
LINE
  5
12F
100
AcDbEntity
  8
0
  6
ByLayer
 62
    7
370
   -1
100
AcDbLine
 10
313.3161785109994
 20
181.4266932247133
 11
313.3942867730058
 21
181.5320923856656
  0
LINE
  5
130
100
AcDbEntity
  8
0
  6
ByLayer
 62
    7
370
   -1
100
AcDbLine
 10
313.3942867730058
 20
181.5320923856656
 11
313.471492145224
 21
181.6380756687348
  0
LINE
  5
131
100
AcDbEntity
  8
0
  6
ByLayer
 62
    7
370
   -1
100
AcDbLine
 10
313.471492145224
 20
181.6380756687348
 11
313.5476020868874
 21
181.7446571410279
  0
LINE
  5
132
100
AcDbEntity
  8
0
  6
ByLayer
 62
    7
370
   -1
100
AcDbLine
 10
313.5476020868874
 20
181.7446571410279
 11
313.6224240572295
 21
181.8518508696517
  0
LINE
  5
133
100
AcDbEntity
  8
0
  6
ByLayer
 62
    7
370
   -1
100
AcDbLine
 10
313.6224240572295
 20
181.8518508696517
 11
313.6957655154837
 21
181.9596709217132
  0
LINE
  5
134
100
AcDbEntity
  8
0
  6
ByLayer
 62
    7
370
   -1
100
AcDbLine
 10
313.6957655154837
 20
181.9596709217132
 11
313.7674339208836
 21
182.0681313643193
  0
LINE
  5
135
100
AcDbEntity
  8
0
  6
ByLayer
 62
    7
370
   -1
100
AcDbLine
 10
313.7674339208836
 20
182.0681313643193
 11
313.8372367326627
 21
182.177246264577
  0
LINE
  5
136
100
AcDbEntity
  8
0
  6
ByLayer
 62
    7
370
   -1
100
AcDbLine
 10
313.8372367326627
 20
182.177246264577
 11
313.9049814100544
 21
182.2870296895931
  0
LINE
  5
137
100
AcDbEntity
  8
0
  6
ByLayer
 62
    7
370
   -1
100
AcDbLine
 10
313.9049814100544
 20
182.2870296895931
 11
313.9704754122923
 21
182.3974957064747
  0
LINE
  5
138
100
AcDbEntity
  8
0
  6
ByLayer
 62
    7
370
   -1
100
AcDbLine
 10
313.9704754122923
 20
182.3974957064747
 11
314.0335261986097
 21
182.5086583823286
  0
LINE
  5
139
100
AcDbEntity
  8
0
  6
ByLayer
 62
    7
370
   -1
100
AcDbLine
 10
314.0335261986097
 20
182.5086583823286
 11
314.0939412282403
 21
182.6205317842617
  0
LINE
  5
13A
100
AcDbEntity
  8
0
  6
ByLayer
 62
    7
370
   -1
100
AcDbLine
 10
314.0939412282403
 20
182.6205317842617
 11
314.1515279604174
 21
182.7331299793811
  0
LINE
  5
13B
100
AcDbEntity
  8
0
  6
ByLayer
 62
    7
370
   -1
100
AcDbLine
 10
314.1515279604174
 20
182.7331299793811
 11
314.2060941241851
 21
182.8464947447021
  0
LINE
  5
13C
100
AcDbEntity
  8
0
  6
ByLayer
 62
    7
370
   -1
100
AcDbLine
 10
314.2060941241851
 20
182.8464947447021
 11
314.2574503500708
 21
182.9609658436311
  0
LINE
  5
13D
100
AcDbEntity
  8
0
  6
ByLayer
 62
    7
370
   -1
100
AcDbLine
 10
314.2574503500708
 20
182.9609658436311
 11
314.3054090346363
 21
183.0770644137301
  0
LINE
  5
13E
100
AcDbEntity
  8
0
  6
ByLayer
 62
    7
370
   -1
100
AcDbLine
 10
314.3054090346363
 20
183.0770644137301
 11
314.3497825994658
 21
183.1953141623937
  0
LINE
  5
13F
100
AcDbEntity
  8
0
  6
ByLayer
 62
    7
370
   -1
100
AcDbLine
 10
314.3497825994658
 20
183.1953141623937
 11
314.3903834661432
 21
183.3162387970166
  0
LINE
  5
140
100
AcDbEntity
  8
0
  6
ByLayer
 62
    7
370
   -1
100
AcDbLine
 10
314.3903834661432
 20
183.3162387970166
 11
314.4270240562527
 21
183.4403620249932
  0
LINE
  5
141
100
AcDbEntity
  8
0
  6
ByLayer
 62
    7
370
   -1
100
AcDbLine
 10
314.4270240562527
 20
183.4403620249932
 11
314.4595167913784
 21
183.5682075537182
  0
LINE
  5
142
100
AcDbEntity
  8
0
  6
ByLayer
 62
    7
370
   -1
100
AcDbLine
 10
314.4595167913784
 20
183.5682075537182
 11
314.4876740931043
 21
183.7002990905861
  0
LINE
  5
143
100
AcDbEntity
  8
0
  6
ByLayer
 62
    7
370
   -1
100
AcDbLine
 10
314.4876740931043
 20
183.7002990905861
 11
314.5113083830146
 21
183.8371603429915
  0
LINE
  5
144
100
AcDbEntity
  8
0
  6
ByLayer
 62
    7
370
   -1
100
AcDbLine
 10
314.5113083830146
 20
183.8371603429915
 11
314.5307618383673
 21
183.9787557757883
  0
LINE
  5
145
100
AcDbEntity
  8
0
  6
ByLayer
 62
    7
370
   -1
100
AcDbLine
 10
314.5307618383673
 20
183.9787557757883
 11
314.5502419278408
 21
184.1209694154316
  0
LINE
  5
146
100
AcDbEntity
  8
0
  6
ByLayer
 62
    7
370
   -1
100
AcDbLine
 10
314.5502419278408
 20
184.1209694154316
 11
314.5756692068956
 21
184.2578768490305
  0
LINE
  5
147
100
AcDbEntity
  8
0
  6
ByLayer
 62
    7
370
   -1
100
AcDbLine
 10
314.5756692068956
 20
184.2578768490305
 11
314.6129719055073
 21
184.3835455620061
  0
LINE
  5
148
100
AcDbEntity
  8
0
  6
ByLayer
 62
    7
370
   -1
100
AcDbLine
 10
314.6129719055073
 20
184.3835455620061
 11
314.6680782536516
 21
184.4920430397794
  0
LINE
  5
149
100
AcDbEntity
  8
0
  6
ByLayer
 62
    7
370
   -1
100
AcDbLine
 10
314.6680782536516
 20
184.4920430397794
 11
314.7469161994205
 21
184.5774369347479
  0
LINE
  5
14A
100
AcDbEntity
  8
0
  6
ByLayer
 62
    7
370
   -1
100
AcDbLine
 10
314.7469161994205
 20
184.5774369347479
 11
314.8526140551482
 21
184.6354532881696
  0
LINE
  5
14B
100
AcDbEntity
  8
0
  6
ByLayer
 62
    7
370
   -1
100
AcDbLine
 10
314.8526140551482
 20
184.6354532881696
 11
314.9786226575682
 21
184.667550679078
  0
LINE
  5
14C
100
AcDbEntity
  8
0
  6
ByLayer
 62
    7
370
   -1
100
AcDbLine
 10
314.9786226575682
 20
184.667550679078
 11
315.1163032887826
 21
184.6764254525678
  0
LINE
  5
14D
100
AcDbEntity
  8
0
  6
ByLayer
 62
    7
370
   -1
100
AcDbLine
 10
315.1163032887826
 20
184.6764254525678
 11
315.2570172308932
 21
184.664773953734
  0
LINE
  5
14E
100
AcDbEntity
  8
0
  6
ByLayer
 62
    7
370
   -1
100
AcDbLine
 10
315.2570172308932
 20
184.664773953734
 11
315.3922697484473
 21
184.6352825815897
  0
LINE
  5
14F
100
AcDbEntity
  8
0
  6
ByLayer
 62
    7
370
   -1
100
AcDbLine
 10
315.3922697484473
 20
184.6352825815897
 11
315.5179265751699
 21
184.590336520775
  0
LINE
  5
150
100
AcDbEntity
  8
0
  6
ByLayer
 62
    7
370
   -1
100
AcDbLine
 10
315.5179265751699
 20
184.590336520775
 11
315.6348910359206
 21
184.5319729670336
  0
LINE
  5
151
100
AcDbEntity
  8
0
  6
ByLayer
 62
    7
370
   -1
100
AcDbLine
 10
315.6348910359206
 20
184.5319729670336
 11
315.7443467475722
 21
184.4622097539762
  0
LINE
  5
152
100
AcDbEntity
  8
0
  6
ByLayer
 62
    7
370
   -1
100
AcDbLine
 10
315.7443467475722
 20
184.4622097539762
 11
315.8474773269978
 21
184.3830647152139
  0
LINE
  5
153
100
AcDbEntity
  8
0
  6
ByLayer
 62
    7
370
   -1
100
AcDbLine
 10
315.8474773269978
 20
184.3830647152139
 11
315.9454663910702
 21
184.2965556843574
  0
LINE
  5
154
100
AcDbEntity
  8
0
  6
ByLayer
 62
    7
370
   -1
100
AcDbLine
 10
315.9454663910702
 20
184.2965556843574
 11
316.0394975566622
 21
184.2047004950177
  0
LINE
  5
155
100
AcDbEntity
  8
0
  6
ByLayer
 62
    7
370
   -1
100
AcDbLine
 10
316.0394975566622
 20
184.2047004950177
 11
316.1307544406468
 21
184.1095169808055
  0
LINE
  5
156
100
AcDbEntity
  8
0
  6
ByLayer
 62
    7
370
   -1
100
AcDbLine
 10
316.1307544406468
 20
184.1095169808055
 11
316.2203179526758
 21
184.0128969750032
  0
LINE
  5
157
100
AcDbEntity
  8
0
  6
ByLayer
 62
    7
370
   -1
100
AcDbLine
 10
316.2203179526758
 20
184.0128969750032
 11
316.3080865889206
 21
183.9152817362823
  0
LINE
  5
158
100
AcDbEntity
  8
0
  6
ByLayer
 62
    7
370
   -1
100
AcDbLine
 10
316.3080865889206
 20
183.9152817362823
 11
316.393201450691
 21
183.8161833578618
  0
LINE
  5
159
100
AcDbEntity
  8
0
  6
ByLayer
 62
    7
370
   -1
100
AcDbLine
 10
316.393201450691
 20
183.8161833578618
 11
316.4747912587733
 21
183.7150987446418
  0
LINE
  5
15A
100
AcDbEntity
  8
0
  6
ByLayer
 62
    7
370
   -1
100
AcDbLine
 10
316.4747912587733
 20
183.7150987446418
 11
316.5519847339535
 21
183.6115248015221
  0
LINE
  5
15B
100
AcDbEntity
  8
0
  6
ByLayer
 62
    7
370
   -1
100
AcDbLine
 10
316.5519847339535
 20
183.6115248015221
 11
316.6239105970179
 21
183.504958433403
  0
LINE
  5
15C
100
AcDbEntity
  8
0
  6
ByLayer
 62
    7
370
   -1
100
AcDbLine
 10
316.6239105970179
 20
183.504958433403
 11
316.6896975687525
 21
183.3948965451844
  0
LINE
  5
15D
100
AcDbEntity
  8
0
  6
ByLayer
 62
    7
370
   -1
100
AcDbLine
 10
316.6896975687525
 20
183.3948965451844
 11
316.7485638655081
 21
183.2809011471494
  0
LINE
  5
15E
100
AcDbEntity
  8
0
  6
ByLayer
 62
    7
370
   -1
100
AcDbLine
 10
316.7485638655081
 20
183.2809011471494
 11
316.8005918995377
 21
183.1631629266082
  0
LINE
  5
15F
100
AcDbEntity
  8
0
  6
ByLayer
 62
    7
370
   -1
100
AcDbLine
 10
316.8005918995377
 20
183.1631629266082
 11
316.8463479738724
 21
183.042224587138
  0
LINE
  5
160
100
AcDbEntity
  8
0
  6
ByLayer
 62
    7
370
   -1
100
AcDbLine
 10
316.8463479738724
 20
183.042224587138
 11
316.8864037107732
 21
182.9186327018989
  0
LINE
  5
161
100
AcDbEntity
  8
0
  6
ByLayer
 62
    7
370
   -1
100
AcDbLine
 10
316.8864037107732
 20
182.9186327018989
 11
316.9213307325014
 21
182.7929338440511
  0
LINE
  5
162
100
AcDbEntity
  8
0
  6
ByLayer
 62
    7
370
   -1
100
AcDbLine
 10
316.9213307325014
 20
182.7929338440511
 11
316.9517006613181
 21
182.6656745867549
  0
LINE
  5
163
100
AcDbEntity
  8
0
  6
ByLayer
 62
    7
370
   -1
100
AcDbLine
 10
316.9517006613181
 20
182.6656745867549
 11
316.9780851194843
 21
182.5374015031703
  0
LINE
  5
164
100
AcDbEntity
  8
0
  6
ByLayer
 62
    7
370
   -1
100
AcDbLine
 10
316.9780851194843
 20
182.5374015031703
 11
317.0010556500417
 21
182.4086610054046
  0
LINE
  5
165
100
AcDbEntity
  8
0
  6
ByLayer
 62
    7
370
   -1
100
AcDbLine
 10
317.0010556500417
 20
182.4086610054046
 11
317.0211202602685
 21
182.2798703379543
  0
LINE
  5
166
100
AcDbEntity
  8
0
  6
ByLayer
 62
    7
370
   -1
100
AcDbLine
 10
317.0211202602685
 20
182.2798703379543
 11
317.0386090611031
 21
182.1510850837232
  0
LINE
  5
167
100
AcDbEntity
  8
0
  6
ByLayer
 62
    7
370
   -1
100
AcDbLine
 10
317.0386090611031
 20
182.1510850837232
 11
317.053821264505
 21
182.0222980082808
  0
LINE
  5
168
100
AcDbEntity
  8
0
  6
ByLayer
 62
    7
370
   -1
100
AcDbLine
 10
317.053821264505
 20
182.0222980082808
 11
317.0670560824339
 21
181.8935018771972
  0
LINE
  5
169
100
AcDbEntity
  8
0
  6
ByLayer
 62
    7
370
   -1
100
AcDbLine
 10
317.0670560824339
 20
181.8935018771972
 11
317.0786127268494
 21
181.7646894560419
  0
LINE
  5
16A
100
AcDbEntity
  8
0
  6
ByLayer
 62
    7
370
   -1
100
AcDbLine
 10
317.0786127268494
 20
181.7646894560419
 11
317.088790409711
 21
181.6358535103849
  0
LINE
  5
16B
100
AcDbEntity
  8
0
  6
ByLayer
 62
    7
370
   -1
100
AcDbLine
 10
317.088790409711
 20
181.6358535103849
 11
317.0978883429786
 21
181.5069868057959
  0
LINE
  5
16C
100
AcDbEntity
  8
0
  6
ByLayer
 62
    7
370
   -1
100
AcDbLine
 10
317.0978883429786
 20
181.5069868057959
 11
317.1062057386118
 21
181.3780821078446
  0
LINE
  5
16D
100
AcDbEntity
  8
0
  6
ByLayer
 62
    7
370
   -1
100
AcDbLine
 10
317.1062057386118
 20
181.3780821078446
 11
317.1140418085701
 21
181.2491321821009
  0
LINE
  5
16E
100
AcDbEntity
  8
0
  6
ByLayer
 62
    7
370
   -1
100
AcDbLine
 10
317.1140418085701
 20
181.2491321821009
 11
317.1216957648131
 21
181.1201297941345
  0
LINE
  5
16F
100
AcDbEntity
  8
0
  6
ByLayer
 62
    7
370
   -1
100
AcDbLine
 10
317.1216957648131
 20
181.1201297941345
 11
317.1294668193004
 21
180.9910677095152
  0
LINE
  5
170
100
AcDbEntity
  8
0
  6
ByLayer
 62
    7
370
   -1
100
AcDbLine
 10
317.1294668193004
 20
180.9910677095152
 11
317.1376457064307
 21
180.8619408200354
  0
LINE
  5
171
100
AcDbEntity
  8
0
  6
ByLayer
 62
    7
370
   -1
100
AcDbLine
 10
317.1376457064307
 20
180.8619408200354
 11
317.1464227562957
 21
180.7327691994832
  0
LINE
  5
172
100
AcDbEntity
  8
0
  6
ByLayer
 62
    7
370
   -1
100
AcDbLine
 10
317.1464227562957
 20
180.7327691994832
 11
317.1559226313099
 21
180.6035893914897
  0
LINE
  5
173
100
AcDbEntity
  8
0
  6
ByLayer
 62
    7
370
   -1
100
AcDbLine
 10
317.1559226313099
 20
180.6035893914897
 11
317.1662688587037
 21
180.4744382243966
  0
LINE
  5
174
100
AcDbEntity
  8
0
  6
ByLayer
 62
    7
370
   -1
100
AcDbLine
 10
317.1662688587037
 20
180.4744382243966
 11
317.1775849657084
 21
180.3453525265457
  0
LINE
  5
175
100
AcDbEntity
  8
0
  6
ByLayer
 62
    7
370
   -1
100
AcDbLine
 10
317.1775849657084
 20
180.3453525265457
 11
317.1899944795548
 21
180.2163691262789
  0
LINE
  5
176
100
AcDbEntity
  8
0
  6
ByLayer
 62
    7
370
   -1
100
AcDbLine
 10
317.1899944795548
 20
180.2163691262789
 11
317.2036209274735
 21
180.087524851938
  0
LINE
  5
177
100
AcDbEntity
  8
0
  6
ByLayer
 62
    7
370
   -1
100
AcDbLine
 10
317.2036209274735
 20
180.087524851938
 11
317.2185878366957
 21
179.9588565318649
  0
LINE
  5
178
100
AcDbEntity
  8
0
  6
ByLayer
 62
    7
370
   -1
100
AcDbLine
 10
317.2185878366957
 20
179.9588565318649
 11
317.235018734452
 21
179.8304009944012
  0
LINE
  5
179
100
AcDbEntity
  8
0
  6
ByLayer
 62
    7
370
   -1
100
AcDbLine
 10
317.235018734452
 20
179.8304009944012
 11
317.2530371479734
 21
179.7021950678889
  0
LINE
  5
17A
100
AcDbEntity
  8
0
  6
ByLayer
 62
    7
370
   -1
100
AcDbLine
 10
317.2530371479734
 20
179.7021950678889
 11
317.2727666044908
 21
179.5742755806697
  0
LINE
  5
17B
100
AcDbEntity
  8
0
  6
ByLayer
 62
    7
370
   -1
100
AcDbLine
 10
317.2727666044908
 20
179.5742755806697
 11
317.294330631235
 21
179.4466793610854
  0
LINE
  5
17C
100
AcDbEntity
  8
0
  6
ByLayer
 62
    7
370
   -1
100
AcDbLine
 10
317.294330631235
 20
179.4466793610854
 11
317.3178527554368
 21
179.3194432374779
  0
LINE
  5
17D
100
AcDbEntity
  8
0
  6
ByLayer
 62
    7
370
   -1
100
AcDbLine
 10
317.3178527554368
 20
179.3194432374779
 11
317.3434251732278
 21
179.1925990694475
  0
LINE
  5
17E
100
AcDbEntity
  8
0
  6
ByLayer
 62
    7
370
   -1
100
AcDbLine
 10
317.3434251732278
 20
179.1925990694475
 11
317.3710063163182
 21
179.0661575031397
  0
LINE
  5
17F
100
AcDbEntity
  8
0
  6
ByLayer
 62
    7
370
   -1
100
AcDbLine
 10
317.3710063163182
 20
179.0661575031397
 11
317.4005189251214
 21
178.9401235244834
  0
LINE
  5
180
100
AcDbEntity
  8
0
  6
ByLayer
 62
    7
370
   -1
100
AcDbLine
 10
317.4005189251214
 20
178.9401235244834
 11
317.4318857397083
 21
178.8145021193524
  0
LINE
  5
181
100
AcDbEntity
  8
0
  6
ByLayer
 62
    7
370
   -1
100
AcDbLine
 10
317.4318857397083
 20
178.8145021193524
 11
317.4650295001494
 21
178.689298273621
  0
LINE
  5
182
100
AcDbEntity
  8
0
  6
ByLayer
 62
    7
370
   -1
100
AcDbLine
 10
317.4650295001494
 20
178.689298273621
 11
317.4998729465159
 21
178.5645169731634
  0
LINE
  5
183
100
AcDbEntity
  8
0
  6
ByLayer
 62
    7
370
   -1
100
AcDbLine
 10
317.4998729465159
 20
178.5645169731634
 11
317.5363388188783
 21
178.4401632038538
  0
LINE
  5
184
100
AcDbEntity
  8
0
  6
ByLayer
 62
    7
370
   -1
100
AcDbLine
 10
317.5363388188783
 20
178.4401632038538
 11
317.5743498573073
 21
178.3162419515662
  0
LINE
  5
185
100
AcDbEntity
  8
0
  6
ByLayer
 62
    7
370
   -1
100
AcDbLine
 10
317.5743498573073
 20
178.3162419515662
 11
317.6138288018739
 21
178.1927582021749
  0
LINE
  5
186
100
AcDbEntity
  8
0
  6
ByLayer
 62
    7
370
   -1
100
AcDbLine
 10
317.6138288018739
 20
178.1927582021749
 11
317.6546983926487
 21
178.0697169415539
  0
LINE
  5
187
100
AcDbEntity
  8
0
  6
ByLayer
 62
    7
370
   -1
100
AcDbLine
 10
317.6546983926487
 20
178.0697169415539
 11
317.6968813697025
 21
177.9471231555775
  0
LINE
  5
188
100
AcDbEntity
  8
0
  6
ByLayer
 62
    7
370
   -1
100
AcDbLine
 10
317.6968813697025
 20
177.9471231555775
 11
317.7403004731061
 21
177.8249818301198
  0
LINE
  5
189
100
AcDbEntity
  8
0
  6
ByLayer
 62
    7
370
   -1
100
AcDbLine
 10
317.7403004731061
 20
177.8249818301198
 11
317.7848784429303
 21
177.703297951055
  0
LINE
  5
18A
100
AcDbEntity
  8
0
  6
ByLayer
 62
    7
370
   -1
100
AcDbLine
 10
317.7848784429303
 20
177.703297951055
 11
317.8305399018476
 21
177.5820720599845
  0
LINE
  5
18B
100
AcDbEntity
  8
0
  6
ByLayer
 62
    7
370
   -1
100
AcDbLine
 10
317.8305399018476
 20
177.5820720599845
 11
317.8772185447286
 21
177.461283281704
  0
LINE
  5
18C
100
AcDbEntity
  8
0
  6
ByLayer
 62
    7
370
   -1
100
AcDbLine
 10
317.8772185447286
 20
177.461283281704
 11
317.9248507957391
 21
177.340904297941
  0
LINE
  5
18D
100
AcDbEntity
  8
0
  6
ByLayer
 62
    7
370
   -1
100
AcDbLine
 10
317.9248507957391
 20
177.340904297941
 11
317.9733730795871
 21
177.2209077891426
  0
LINE
  5
18E
100
AcDbEntity
  8
0
  6
ByLayer
 62
    7
370
   -1
100
AcDbLine
 10
317.9733730795871
 20
177.2209077891426
 11
318.0227218209806
 21
177.1012664357558
  0
LINE
  5
18F
100
AcDbEntity
  8
0
  6
ByLayer
 62
    7
370
   -1
100
AcDbLine
 10
318.0227218209806
 20
177.1012664357558
 11
318.0728334446278
 21
176.981952918228
  0
LINE
  5
190
100
AcDbEntity
  8
0
  6
ByLayer
 62
    7
370
   -1
100
AcDbLine
 10
318.0728334446278
 20
176.981952918228
 11
318.1236443752367
 21
176.8629399170063
  0
LINE
  5
191
100
AcDbEntity
  8
0
  6
ByLayer
 62
    7
370
   -1
100
AcDbLine
 10
318.1236443752367
 20
176.8629399170063
 11
318.1750910375155
 21
176.7442001125378
  0
LINE
  5
192
100
AcDbEntity
  8
0
  6
ByLayer
 62
    7
370
   -1
100
AcDbLine
 10
318.1750910375155
 20
176.7442001125378
 11
318.2271098561722
 21
176.6257061852698
  0
LINE
  5
193
100
AcDbEntity
  8
0
  6
ByLayer
 62
    7
370
   -1
100
AcDbLine
 10
318.2271098561722
 20
176.6257061852698
 11
318.2796372559148
 21
176.5074308156493
  0
LINE
  5
194
100
AcDbEntity
  8
0
  6
ByLayer
 62
    7
370
   -1
100
AcDbLine
 10
318.2796372559148
 20
176.5074308156493
 11
318.3326096614516
 21
176.3893466841236
  0
LINE
  5
195
100
AcDbEntity
  8
0
  6
ByLayer
 62
    7
370
   -1
100
AcDbLine
 10
318.3326096614516
 20
176.3893466841236
 11
318.3859634974905
 21
176.2714264711397
  0
LINE
  5
196
100
AcDbEntity
  8
0
  6
ByLayer
 62
    7
370
   -1
100
AcDbLine
 10
318.3859634974905
 20
176.2714264711397
 11
318.4396351887395
 21
176.153642857145
  0
LINE
  5
197
100
AcDbEntity
  8
0
  6
ByLayer
 62
    7
370
   -1
100
AcDbLine
 10
318.4396351887395
 20
176.153642857145
 11
318.493561159907
 21
176.0359685225865
  0
LINE
  5
198
100
AcDbEntity
  8
0
  6
ByLayer
 62
    7
370
   -1
100
AcDbLine
 10
318.493561159907
 20
176.0359685225865
 11
318.5476778357008
 21
175.9183761479114
  0
LINE
  5
199
100
AcDbEntity
  8
0
  6
ByLayer
 62
    7
370
   -1
100
AcDbLine
 10
318.5476778357008
 20
175.9183761479114
 11
318.6019216408291
 21
175.8008384135669
  0
LINE
  5
19A
100
AcDbEntity
  8
0
  6
ByLayer
 62
    7
370
   -1
100
AcDbLine
 10
318.6019216408291
 20
175.8008384135669
 11
318.656229
 21
175.683328
  0
LINE
  5
19B
100
AcDbEntity
  8
0
  6
ByLayer
 62
  256
370
   -1
100
AcDbLine
 10
260
 20
240
 11
420
 21
240
  0
LINE
  5
19C
100
AcDbEntity
  8
0
  6
ByLayer
 62
  256
370
   -1
100
AcDbLine
 10
420
 20
240
 11
420
 21
160
  0
LINE
  5
19D
100
AcDbEntity
  8
0
  6
ByLayer
 62
  256
370
   -1
100
AcDbLine
 10
420
 20
160
 11
260
 21
160
  0
LINE
  5
19E
100
AcDbEntity
  8
0
  6
ByLayer
 62
  256
370
   -1
100
AcDbLine
 10
260
 20
160
 11
260
 21
240
  0
LINE
  5
19F
100
AcDbEntity
  8
0
  6
ByLayer
 62
  256
370
   -1
100
AcDbLine
 10
250
 20
250
 11
430
 21
250
  0
LINE
  5
1A0
100
AcDbEntity
  8
0
  6
ByLayer
 62
  256
370
   -1
100
AcDbLine
 10
430
 20
250
 11
430
 21
150
  0
LINE
  5
1A1
100
AcDbEntity
  8
0
  6
ByLayer
 62
  256
370
   -1
100
AcDbLine
 10
430
 20
150
 11
250
 21
150
  0
LINE
  5
1A2
100
AcDbEntity
  8
0
  6
ByLayer
 62
  256
370
   -1
100
AcDbLine
 10
250
 20
150
 11
250
 21
250
  0
ENDSEC
  0
SECTION
  2
OBJECTS
  0
DICTIONARY
  5
C
330
0
100
AcDbDictionary
281
    1
  3
ACAD_GROUP
350
D
  0
DICTIONARY
  5
D
330
C
100
AcDbDictionary
281
    1
  0
ENDSEC
  0
EOF
