  0
SECTION
  2
HEADER
  9
$ACADVER
  1
AC1014
  9
$HANDSEED
  5
FFFF
  9
$MEASUREMENT
 70
     1
  0
ENDSEC
  0
SECTION
  2
TABLES
  0
TABLE
  2
VPORT
  5
8
330
0
100
AcDbSymbolTable
 70
     4
  0
VPORT
  5
2E
330
8
100
AcDbSymbolTableRecord
100
AcDbViewportTableRecord
  2
*ACTIVE
 70
     0
 10
0.0
 20
0.0
 11
1.0
 21
1.0
 12
210.0
 22
148.5
 13
0.0
 23
0.0
 14
10.0
 24
10.0
 15
10.0
 25
10.0
 16
0.0
 26
0.0
 36
1.0
 17
0.0
 27
0.0
 37
0.0
 40
341.0
 41
1.24
 42
50.0
 43
0.0
 44
0.0
 50
0.0
 51
0.0
 71
     0
 72
   100
 73
     1
 74
     3
 75
     0
 76
     0
 77
     0
 78
     0
  0
ENDTAB
  0
TABLE
  2
LTYPE
  5
5
330
0
100
AcDbSymbolTable
 70
     1
  0
LTYPE
  5
14
330
5
100
AcDbSymbolTableRecord
100
AcDbLinetypeTableRecord
  2
BYBLOCK
 70
     0
  3

 72
    65
 73
     0
 40
0.0
  0
LTYPE
  5
15
330
5
100
AcDbSymbolTableRecord
100
AcDbLinetypeTableRecord
  2
BYLAYER
 70
     0
  3

 72
    65
 73
     0
 40
0.0
  0
LTYPE
  5
16
330
5
100
AcDbSymbolTableRecord
100
AcDbLinetypeTableRecord
  2
CONTINUOUS
 70
     0
  3
Solid line
 72
    65
 73
     0
 40
0.0
  0
ENDTAB
  0
TABLE
  2
LAYER
  5
2
100
AcDbSymbolTable
 70
1
  0
LAYER
  5
50
100
AcDbSymbolTableRecord
100
AcDbLayerTableRecord
  2
0
 70
0
  6
CONTINUOUS
  0
ENDTAB
  0
TABLE
  2
STYLE
  5
3
330
0
100
AcDbSymbolTable
 70
     1
  0
STYLE
  5
11
330
3
100
AcDbSymbolTableRecord
100
AcDbTextStyleTableRecord
  2
STANDARD
 70
     0
 40
0.0
 41
1.0
 50
0.0
 71
     0
 42
2.5
  3
txt
  4

  0
ENDTAB
  0
TABLE
  2
VIEW
  5
6
330
0
100
AcDbSymbolTable
 70
     0
  0
ENDTAB
  0
TABLE
  2
UCS
  5
7
330
0
100
AcDbSymbolTable
 70
     0
  0
ENDTAB
  0
TABLE
  2
APPID
  5
9
330
0
100
AcDbSymbolTable
 70
     2
  0
APPID
  5
12
330
9
100
AcDbSymbolTableRecord
100
AcDbRegAppTableRecord
  2
ACAD
 70
     0
  0
ENDTAB
  0
TABLE
  2
DIMSTYLE
  5
A
330
0
100
AcDbSymbolTable
 70
     1
  0
DIMSTYLE
105
27
330
A
100
AcDbSymbolTableRecord
100
AcDbDimStyleTableRecord
  2
ISO-25
 70
     0
  3

  4

  5

  6

  7

 40
1.0
 41
2.5
 42
0.625
 43
3.75
 44
1.25
 45
0.0
 46
0.0
 47
0.0
 48
0.0
140
2.5
141
2.5
142
0.0
143
0.03937007874016
144
1.0
145
0.0
146
1.0
147
0.625
 71
     0
 72
     0
 73
     0
 74
     0
 75
     0
 76
     0
 77
     1
 78
     8
170
     0
171
     3
172
     1
173
     0
174
     0
175
     0
176
     0
177
     0
178
     0
270
     2
271
     2
272
     2
273
     2
274
     3
340
11
275
     0
280
     0
281
     0
282
     0
283
     0
284
     8
285
     0
286
     0
287
     3
288
     0
  0
ENDTAB
  0
TABLE
  2
BLOCK_RECORD
  5
1
330
0
100
AcDbSymbolTable
 70
     1
  0
BLOCK_RECORD
  5
1F
330
1
100
AcDbSymbolTableRecord
100
AcDbBlockTableRecord
  2
*MODEL_SPACE
  0
BLOCK_RECORD
  5
1B
330
1
100
AcDbSymbolTableRecord
100
AcDbBlockTableRecord
  2
*PAPER_SPACE
  0
ENDTAB
  0
ENDSEC
  0
SECTION
  2
BLOCKS
  0
BLOCK
  5
20
330
1F
100
AcDbEntity
  8
0
100
AcDbBlockBegin
  2
*MODEL_SPACE
 70
     0
 10
0.0
 20
0.0
 30
0.0
  3
*MODEL_SPACE
  1

  0
ENDBLK
  5
21
330
1F
100
AcDbEntity
  8
0
100
AcDbBlockEnd
  0
BLOCK
  5
1C
330
1B
100
AcDbEntity
 67
     1
  8
0
100
AcDbBlockBegin
  2
*PAPER_SPACE
  1

  0
ENDBLK
  5
1D
330
1B
100
AcDbEntity
 67
     1
  8
0
100
AcDbBlockEnd
  0
ENDSEC
  0
SECTION
  2
ENTITIES
  0
LINE
  5
100
100
AcDbEntity
  8
0
 62
7
100
AcDbLine
 10
317.766118
 20
-1.101328
 30
0.0
 11
317.766118
 21
-1.101328
 31
0.0
  0
SPLINE
  5
101
100
AcDbEntity
  8
0
 62
7
100
AcDbSpline
 70
0
 71
3
 72
52
 73
48
 74
46
 40
0.000000
 40
0.000000
 40
0.000000
 40
0.000000
 40
6.267203
 40
12.806170
 40
18.707436
 40
22.363578
 40
26.728918
 40
30.665110
 40
39.823374
 40
49.135135
 40
58.171534
 40
64.655775
 40
71.624122
 40
78.144866
 40
93.602329
 40
110.052470
 40
125.715062
 40
142.329881
 40
158.469986
 40
174.320860
 40
179.225080
 40
184.502244
 40
189.214524
 40
208.370951
 40
227.775370
 40
245.971778
 40
259.439486
 40
273.091021
 40
287.306105
 40
295.949263
 40
305.483614
 40
315.414625
 40
322.121530
 40
330.524640
 40
336.932475
 40
345.422837
 40
353.196421
 40
361.193831
 40
368.430858
 40
375.141914
 40
382.006076
 40
394.954238
 40
407.453935
 40
420.289616
 40
427.041177
 40
434.281011
 40
441.213331
 40
441.213331
 40
441.213331
 40
441.213331
 10
317.766118
 20
-1.101328
 30
0.0
 10
315.688867
 20
-0.866620
 30
0.0
 10
311.444290
 20
-0.387026
 30
0.0
 10
305.344891
 20
0.934419
 30
0.0
 10
300.156372
 20
2.352635
 30
0.0
 10
295.886815
 20
4.189166
 30
0.0
 10
292.312821
 20
5.954795
 30
0.0
 10
287.230779
 20
8.800928
 30
0.0
 10
281.234041
 20
13.312080
 30
0.0
 10
274.642498
 20
19.710344
 30
0.0
 10
269.498703
 20
26.244526
 30
0.0
 10
265.797681
 20
32.780088
 30
0.0
 10
263.014748
 20
38.835557
 30
0.0
 10
259.776777
 20
47.944243
 30
0.0
 10
257.749082
 20
60.691269
 30
0.0
 10
257.510043
 20
76.580141
 30
0.0
 10
259.716610
 20
92.766361
 30
0.0
 10
265.482865
 20
108.020447
 30
0.0
 10
274.757483
 20
121.478541
 30
0.0
 10
284.122088
 20
129.716785
 30
0.0
 10
291.638636
 20
134.067440
 30
0.0
 10
296.100954
 20
136.253779
 30
0.0
 10
305.144903
 20
139.833658
 30
0.0
 10
319.589238
 20
142.193534
 30
0.0
 10
338.593425
 20
141.285816
 30
0.0
 10
355.154998
 20
136.360764
 30
0.0
 10
367.938640
 20
128.030827
 30
0.0
 10
377.518700
 20
117.982714
 30
0.0
 10
383.930661
 20
107.515639
 30
0.0
 10
387.823335
 20
97.410959
 30
0.0
 10
390.058548
 20
88.297779
 30
0.0
 10
391.418151
 20
79.653829
 30
0.0
 10
391.575566
 20
71.297558
 30
0.0
 10
391.453445
 20
64.128468
 30
0.0
 10
391.012045
 20
56.363764
 30
0.0
 10
389.583769
 20
48.920609
 30
0.0
 10
387.319755
 20
41.141129
 30
0.0
 10
384.230870
 20
34.103217
 30
0.0
 10
380.767051
 20
27.649842
 30
0.0
 10
376.777834
 20
21.949575
 30
0.0
 10
370.839496
 20
15.382221
 30
0.0
 10
362.533558
 20
8.401631
 30
0.0
 10
351.102179
 20
2.497733
 30
0.0
 10
340.670009
 20
-0.233862
 30
0.0
 10
331.772602
 20
-1.181438
 30
0.0
 10
324.794313
 20
-1.473586
 30
0.0
 10
320.074714
 20
-1.223606
 30
0.0
 10
317.766118
 20
-1.101328
 30
0.0
 11
317.766118
 21
-1.101328
 31
0.0
 11
311.550948
 21
-0.295415
 31
0.0
 11
305.149693
 21
1.039512
 31
0.0
 11
299.489812
 21
2.710048
 31
0.0
 11
296.117252
 21
4.121859
 31
0.0
 11
292.202496
 21
6.053407
 31
0.0
 11
288.778500
 21
7.995020
 31
0.0
 11
281.402277
 21
13.423197
 31
0.0
 11
274.730080
 21
19.918633
 31
0.0
 11
269.194015
 21
27.060657
 31
0.0
 11
265.956230
 21
32.678676
 31
0.0
 11
263.051276
 21
39.012639
 31
0.0
 11
260.890769
 21
45.165063
 31
0.0
 11
258.158957
 21
60.379212
 31
0.0
 11
257.930026
 21
76.827760
 31
0.0
 11
260.234470
 21
92.319898
 31
0.0
 11
266.143831
 21
107.848313
 31
0.0
 11
275.325709
 21
121.122201
 31
0.0
 11
287.323292
 21
131.481169
 31
0.0
 11
291.556635
 21
133.957088
 31
0.0
 11
296.299995
 21
136.269878
 31
0.0
 11
300.684750
 21
137.996004
 31
0.0
 11
319.516340
 21
141.508828
 31
0.0
 11
338.892442
 21
140.460906
 31
0.0
 11
356.247250
 21
134.990999
 31
0.0
 11
367.550150
 21
127.668186
 31
0.0
 11
377.012591
 21
117.828133
 31
0.0
 11
384.419025
 21
105.694983
 31
0.0
 11
387.549175
 21
97.638535
 31
0.0
 11
389.898240
 21
88.398094
 31
0.0
 11
391.314966
 21
78.568656
 31
0.0
 11
391.529294
 21
71.865176
 31
0.0
 11
391.378866
 21
63.463413
 31
0.0
 11
390.930077
 21
57.071313
 31
0.0
 11
389.404228
 21
48.719185
 31
0.0
 11
387.183795
 21
41.269469
 31
0.0
 11
384.029770
 21
33.920271
 31
0.0
 11
380.556969
 21
27.570925
 31
0.0
 11
376.700304
 21
22.078711
 31
0.0
 11
372.122779
 21
16.963734
 31
0.0
 11
362.144581
 21
8.712039
 31
0.0
 11
351.038929
 21
2.975586
 31
0.0
 11
338.636954
 21
-0.332846
 31
0.0
 11
331.928503
 21
-1.094604
 31
0.0
 11
324.693573
 21
-1.361003
 31
0.0
 11
317.766118
 21
-1.101328
 31
0.0
  0
SPLINE
  5
102
100
AcDbEntity
  8
0
 62
7
100
AcDbSpline
 70
0
 71
3
 72
34
 73
30
 74
28
 40
0.000000
 40
0.000000
 40
0.000000
 40
0.000000
 40
9.927047
 40
19.392760
 40
28.973242
 40
33.507382
 40
37.990480
 40
42.793003
 40
49.059466
 40
55.426861
 40
62.444003
 40
68.424558
 40
75.827379
 40
81.780068
 40
99.246265
 40
114.601183
 40
129.554568
 40
138.005113
 40
147.032495
 40
156.111038
 40
166.182102
 40
175.480310
 40
184.994867
 40
193.558086
 40
202.174948
 40
211.390967
 40
216.967276
 40
222.194493
 40
229.420858
 40
229.420858
 40
229.420858
 40
229.420858
 10
330.394654
 20
17.666097
 30
0.0
 10
333.672708
 20
18.209632
 30
0.0
 10
340.076475
 20
19.271443
 30
0.0
 10
348.896253
 20
23.516857
 30
0.0
 10
355.045454
 20
28.511280
 30
0.0
 10
359.190439
 20
33.135337
 30
0.0
 10
361.847305
 20
36.912439
 30
0.0
 10
364.343317
 20
41.463436
 30
0.0
 10
366.665293
 20
46.808315
 30
0.0
 10
368.450434
 20
53.124576
 30
0.0
 10
369.608001
 20
59.491603
 30
0.0
 10
369.971285
 20
66.290702
 30
0.0
 10
370.022845
 20
72.737048
 30
0.0
 10
369.570564
 20
83.005905
 30
0.0
 10
366.492365
 20
95.772137
 30
0.0
 10
358.247794
 20
109.726827
 30
0.0
 10
347.717889
 20
117.823225
 30
0.0
 10
337.523429
 20
121.602163
 30
0.0
 10
328.736816
 20
123.055945
 30
0.0
 10
319.303010
 20
122.929055
 30
0.0
 10
309.929678
 20
121.076905
 30
0.0
 10
301.075100
 20
117.044231
 30
0.0
 10
293.952474
 20
111.205613
 30
0.0
 10
288.214767
 20
104.346688
 30
0.0
 10
283.965693
 20
96.569841
 30
0.0
 10
281.598978
 20
89.104958
 30
0.0
 10
280.091285
 20
82.595329
 30
0.0
 10
279.513876
 20
76.597866
 30
0.0
 10
279.518046
 20
72.445414
 30
0.0
 10
279.520465
 20
70.035896
 30
0.0
 11
330.394654
 21
17.666097
 31
0.0
 11
340.097693
 21
19.763071
 31
0.0
 11
348.656045
 21
23.807119
 31
0.0
 11
356.114959
 21
29.819626
 31
0.0
 11
359.131993
 21
33.204287
 31
0.0
 11
361.717158
 21
36.866949
 31
0.0
 11
364.051427
 21
41.064021
 31
0.0
 11
366.520294
 21
46.823644
 31
0.0
 11
368.297305
 21
52.938049
 31
0.0
 11
369.510971
 21
59.849438
 31
0.0
 11
369.905494
 21
65.816966
 31
0.0
 11
369.955558
 21
73.219618
 31
0.0
 11
369.641596
 21
79.164021
 31
0.0
 11
365.458620
 21
96.121932
 31
0.0
 11
357.407547
 21
109.196860
 31
0.0
 11
345.543611
 21
118.299098
 31
0.0
 11
337.637233
 21
121.282534
 31
0.0
 11
328.736009
 21
122.786480
 31
0.0
 11
319.658180
 21
122.672687
 31
0.0
 11
309.795120
 21
120.636418
 31
0.0
 11
301.354571
 21
116.735931
 31
0.0
 11
293.931499
 21
110.784058
 31
0.0
 11
288.456633
 21
104.199640
 31
0.0
 11
284.311427
 21
96.645330
 31
0.0
 11
281.379083
 21
87.908262
 31
0.0
 11
280.189582
 21
82.460298
 31
0.0
 11
279.648898
 21
77.261119
 31
0.0
 11
279.520465
 21
70.035896
 31
0.0
  0
LINE
  5
103
100
AcDbEntity
  8
0
 62
7
100
AcDbLine
 10
330.394654
 20
17.665303
 30
0.0
 11
330.394654
 21
17.666097
 31
0.0
  0
SPLINE
  5
104
100
AcDbEntity
  8
0
 62
7
100
AcDbSpline
 70
0
 71
3
 72
19
 73
15
 74
13
 40
0.000000
 40
0.000000
 40
0.000000
 40
0.000000
 40
7.084980
 40
12.150063
 40
17.563721
 40
27.245719
 40
36.282964
 40
45.394342
 40
54.362597
 40
63.278857
 40
72.556094
 40
76.181529
 40
80.327005
 40
83.890965
 40
83.890965
 40
83.890965
 40
83.890965
 10
279.520465
 20
70.035896
 30
0.0
 10
279.516394
 20
67.673622
 30
0.0
 10
279.509412
 20
63.622549
 30
0.0
 10
280.048130
 20
57.778381
 30
0.0
 10
281.528920
 20
51.215430
 30
0.0
 10
283.932896
 20
43.501489
 30
0.0
 10
288.514809
 20
35.350638
 30
0.0
 10
294.493467
 20
28.498158
 30
0.0
 10
301.671157
 20
22.948717
 30
0.0
 10
310.006773
 20
19.226713
 30
0.0
 10
317.185764
 20
17.706394
 30
0.0
 10
322.863746
 20
17.419966
 30
0.0
 10
326.645263
 20
17.397761
 30
0.0
 10
329.209325
 20
17.580723
 30
0.0
 10
330.394654
 20
17.665303
 30
0.0
 11
279.520465
 21
70.035896
 31
0.0
 11
279.637345
 21
62.951880
 31
0.0
 11
280.142169
 21
57.912018
 31
0.0
 11
281.266212
 21
52.616338
 31
0.0
 11
284.322734
 21
43.429458
 31
0.0
 11
288.753901
 21
35.553130
 31
0.0
 11
294.733504
 21
28.678426
 31
0.0
 11
301.869398
 21
23.246242
 31
0.0
 11
309.992728
 21
19.570485
 31
0.0
 11
319.072234
 21
17.665303
 31
0.0
 11
322.691494
 21
17.453807
 31
0.0
 11
326.836970
 21
17.453889
 31
0.0
 11
330.394654
 21
17.665303
 31
0.0
  0
LINE
  5
105
100
AcDbEntity
  8
0
 62
7
100
AcDbLine
 10
53.326541
 20
72.026357
 30
0.0
 11
53.931987
 21
72.826219
 31
0.0
  0
LINE
  5
106
100
AcDbEntity
  8
0
 62
7
100
AcDbLine
 10
53.931987
 20
72.826219
 30
0.0
 11
30.266172
 21
105.554410
 31
0.0
  0
SPLINE
  5
107
100
AcDbEntity
  8
0
 62
7
100
AcDbSpline
 70
0
 71
3
 72
10
 73
6
 74
4
 40
0.000000
 40
0.000000
 40
0.000000
 40
0.000000
 40
21.849986
 40
62.945234
 40
86.888336
 40
86.888336
 40
86.888336
 40
86.888336
 10
2.367023
 20
1.650974
 30
0.0
 10
6.624591
 20
7.560288
 30
0.0
 10
18.889754
 20
24.583787
 30
0.0
 10
35.878888
 20
48.040451
 30
0.0
 10
48.631731
 20
65.572236
 30
0.0
 10
53.326541
 20
72.026357
 30
0.0
 11
2.367023
 21
1.650974
 31
0.0
 11
15.144839
 21
19.375232
 31
0.0
 11
39.246992
 21
52.660447
 31
0.0
 11
53.326541
 21
72.026357
 31
0.0
  0
LINE
  5
108
100
AcDbEntity
  8
0
 62
7
100
AcDbLine
 10
18.175877
 20
138.555783
 30
0.0
 11
29.751398
 21
138.548639
 31
0.0
  0
LINE
  5
109
100
AcDbEntity
  8
0
 62
7
100
AcDbLine
 10
29.751398
 20
138.548639
 30
0.0
 11
47.743065
 21
113.719954
 31
0.0
  0
SPLINE
  5
10a
100
AcDbEntity
  8
0
 62
7
100
AcDbSpline
 70
0
 71
3
 72
13
 73
9
 74
7
 40
0.000000
 40
0.000000
 40
0.000000
 40
0.000000
 40
20.359262
 40
34.909934
 40
40.501981
 40
42.089783
 40
46.248670
 40
52.079324
 40
52.079324
 40
52.079324
 40
52.079324
 10
30.266172
 20
105.554410
 30
0.0
 10
25.779908
 20
111.305974
 30
0.0
 10
18.087332
 20
121.168154
 30
0.0
 10
14.409659
 20
130.051217
 30
0.0
 10
4.678091
 20
138.644311
 30
0.0
 10
9.273106
 20
138.429130
 30
0.0
 10
12.789317
 20
138.592054
 30
0.0
 10
16.190619
 20
138.569151
 30
0.0
 10
18.175877
 20
138.555783
 30
0.0
 11
30.266172
 21
105.554410
 31
0.0
 11
18.345610
 21
122.058947
 31
0.0
 11
9.843448
 21
133.867219
 31
0.0
 11
6.600356
 21
138.422803
 31
0.0
 11
8.186632
 21
138.492422
 31
0.0
 11
12.345245
 21
138.540192
 31
0.0
 11
18.175877
 21
138.555783
 31
0.0
  0
LINE
  5
10b
100
AcDbEntity
  8
0
 62
7
100
AcDbLine
 10
84.030272
 20
113.822401
 30
0.0
 11
101.982654
 21
138.560810
 31
0.0
  0
LINE
  5
10c
100
AcDbEntity
  8
0
 62
7
100
AcDbLine
 10
101.982654
 20
138.560810
 30
0.0
 11
113.558174
 21
138.560810
 31
0.0
  0
SPLINE
  5
10d
100
AcDbEntity
  8
0
 62
7
100
AcDbSpline
 70
0
 71
3
 72
13
 73
9
 74
7
 40
0.000000
 40
0.000000
 40
0.000000
 40
0.000000
 40
15.447740
 40
26.471749
 40
30.686158
 40
34.965063
 40
46.010430
 40
61.431130
 40
61.431130
 40
61.431130
 40
61.431130
 10
47.743065
 20
113.719954
 30
0.0
 10
50.775458
 20
109.305273
 30
0.0
 10
55.971864
 20
101.740133
 30
0.0
 10
61.957443
 20
95.526821
 30
0.0
 10
65.932457
 20
87.153994
 30
0.0
 10
69.790288
 20
95.645407
 30
0.0
 10
75.824454
 20
101.840007
 30
0.0
 10
81.009283
 20
109.411058
 30
0.0
 10
84.030272
 20
113.822401
 30
0.0
 11
47.743065
 21
113.719954
 31
0.0
 11
56.829046
 21
101.226850
 31
0.0
 11
63.354360
 21
92.341523
 31
0.0
 11
65.906314
 21
88.987604
 31
0.0
 11
68.452868
 21
92.426221
 31
0.0
 11
74.964068
 21
101.348351
 31
0.0
 11
84.030272
 21
113.822401
 31
0.0
  0
LINE
  5
10e
100
AcDbEntity
  8
0
 62
7
100
AcDbLine
 10
101.326593
 20
105.594944
 30
0.0
 11
77.519485
 21
72.861144
 31
0.0
  0
LINE
  5
10f
100
AcDbEntity
  8
0
 62
7
100
AcDbLine
 10
77.519485
 20
72.861144
 30
0.0
 11
78.457089
 21
71.556060
 31
0.0
  0
SPLINE
  5
110
100
AcDbEntity
  8
0
 62
7
100
AcDbSpline
 70
0
 71
3
 72
13
 73
9
 74
7
 40
0.000000
 40
0.000000
 40
0.000000
 40
0.000000
 40
5.830654
 40
9.989472
 40
11.576823
 40
17.171084
 40
31.746243
 40
52.146921
 40
52.146921
 40
52.146921
 40
52.146921
 10
113.558174
 20
138.560810
 30
0.0
 10
115.543558
 20
138.574540
 30
0.0
 10
118.945051
 20
138.598064
 30
0.0
 10
122.460078
 20
138.431836
 30
0.0
 10
127.058398
 20
138.679148
 30
0.0
 10
117.278206
 20
130.073966
 30
0.0
 10
113.575980
 20
121.213233
 30
0.0
 10
105.839260
 20
111.348713
 30
0.0
 10
101.326593
 20
105.594944
 30
0.0
 11
113.558174
 21
138.560810
 31
0.0
 11
119.388807
 21
138.545121
 31
0.0
 11
123.547420
 21
138.503774
 31
0.0
 11
125.133695
 21
138.445346
 31
0.0
 11
121.871242
 21
133.900882
 31
0.0
 11
113.318321
 21
122.099068
 31
0.0
 11
101.326593
 21
105.594944
 31
0.0
  0
LINE
  5
111
100
AcDbEntity
  8
0
 62
7
100
AcDbLine
 10
128.710756
 20
2.198423
 30
0.0
 11
129.163299
 21
1.507755
 31
0.0
  0
LINE
  5
112
100
AcDbEntity
  8
0
 62
7
100
AcDbLine
 10
129.163299
 20
1.507755
 30
0.0
 11
117.552483
 21
1.507755
 31
0.0
  0
LINE
  5
113
100
AcDbEntity
  8
0
 62
7
100
AcDbLine
 10
117.552483
 20
1.507755
 30
0.0
 11
105.941667
 21
1.507755
 31
0.0
  0
LINE
  5
114
100
AcDbEntity
  8
0
 62
7
100
AcDbLine
 10
105.941667
 20
1.507755
 30
0.0
 11
85.970488
 21
29.148140
 31
0.0
  0
SPLINE
  5
115
100
AcDbEntity
  8
0
 62
7
100
AcDbSpline
 70
0
 71
3
 72
13
 73
9
 74
7
 40
0.000000
 40
0.000000
 40
0.000000
 40
0.000000
 40
6.511418
 40
22.037181
 40
43.216038
 40
64.287733
 40
79.532507
 40
85.649971
 40
85.649971
 40
85.649971
 40
85.649971
 10
78.457089
 20
71.556060
 30
0.0
 10
79.730437
 20
69.798352
 30
0.0
 10
84.039943
 20
63.849582
 30
0.0
 10
92.497825
 20
52.188612
 30
0.0
 10
103.806755
 20
36.599882
 30
0.0
 10
115.053779
 20
21.081974
 30
0.0
 10
123.358789
 20
9.632150
 30
0.0
 10
127.519314
 20
3.853301
 30
0.0
 10
128.710756
 20
2.198423
 30
0.0
 11
78.457089
 21
71.556060
 31
0.0
 11
82.277431
 21
66.283153
 31
0.0
 11
91.391611
 21
53.714102
 31
0.0
 11
103.826456
 21
36.570047
 31
0.0
 11
116.194841
 21
19.510171
 31
0.0
 11
125.134757
 21
7.161848
 31
0.0
 11
128.710756
 21
2.198423
 31
0.0
  0
LINE
  5
116
100
AcDbEntity
  8
0
 62
7
100
AcDbLine
 10
45.626398
 20
29.161475
 30
0.0
 11
25.518065
 21
1.522227
 31
0.0
  0
LINE
  5
117
100
AcDbEntity
  8
0
 62
7
100
AcDbLine
 10
25.518065
 20
1.522227
 30
0.0
 11
13.942544
 21
1.515084
 31
0.0
  0
SPLINE
  5
118
100
AcDbEntity
  8
0
 62
7
100
AcDbSpline
 70
0
 71
3
 72
13
 73
9
 74
7
 40
0.000000
 40
0.000000
 40
0.000000
 40
0.000000
 40
17.187838
 40
29.468394
 40
34.183204
 40
38.904151
 40
51.209910
 40
68.436521
 40
68.436521
 40
68.436521
 40
68.436521
 10
85.970488
 20
29.148140
 30
0.0
 10
82.610829
 20
34.071378
 30
0.0
 10
76.850723
 20
42.512225
 30
0.0
 10
70.173434
 20
49.417944
 30
0.0
 10
65.869966
 20
58.840202
 30
0.0
 10
61.523121
 20
49.420175
 30
0.0
 10
54.811514
 20
42.525595
 30
0.0
 10
49.010313
 20
34.084989
 30
0.0
 10
45.626398
 20
29.161475
 30
0.0
 11
85.970488
 21
29.148140
 31
0.0
 11
75.892803
 21
43.071575
 31
0.0
 11
68.670448
 21
53.003828
 31
0.0
 11
65.867023
 21
56.794638
 31
0.0
 11
63.044801
 21
53.010143
 31
0.0
 11
55.773169
 21
43.082652
 31
0.0
 11
45.626398
 21
29.161475
 31
0.0
  0
LINE
  5
119
100
AcDbEntity
  8
0
 62
7
100
AcDbLine
 10
2.367023
 20
1.649968
 30
0.0
 11
2.367023
 21
1.650974
 31
0.0
  0
LINE
  5
11a
100
AcDbEntity
  8
0
 62
7
100
AcDbLine
 10
140.479529
 20
32.057075
 30
0.0
 11
140.479529
 21
62.623303
 31
0.0
  0
LINE
  5
11b
100
AcDbEntity
  8
0
 62
7
100
AcDbLine
 10
140.479529
 20
62.623303
 30
0.0
 11
125.135812
 21
62.691566
 31
0.0
  0
LINE
  5
11c
100
AcDbEntity
  8
0
 62
7
100
AcDbLine
 10
125.135812
 20
62.691566
 30
0.0
 11
109.792095
 21
62.759855
 31
0.0
  0
LINE
  5
11d
100
AcDbEntity
  8
0
 62
7
100
AcDbLine
 10
109.792095
 20
62.759855
 30
0.0
 11
116.181148
 21
71.557250
 31
0.0
  0
LINE
  5
11e
100
AcDbEntity
  8
0
 62
7
100
AcDbLine
 10
116.181148
 20
71.557250
 30
0.0
 11
122.570174
 21
80.354646
 31
0.0
  0
LINE
  5
11f
100
AcDbEntity
  8
0
 62
7
100
AcDbLine
 10
122.570174
 20
80.354646
 30
0.0
 11
131.524864
 21
80.354646
 31
0.0
  0
LINE
  5
120
100
AcDbEntity
  8
0
 62
7
100
AcDbLine
 10
131.524864
 20
80.354646
 30
0.0
 11
140.479529
 21
80.354646
 31
0.0
  0
LINE
  5
121
100
AcDbEntity
  8
0
 62
7
100
AcDbLine
 10
140.479529
 20
80.354646
 30
0.0
 11
140.479529
 21
109.469052
 31
0.0
  0
LINE
  5
122
100
AcDbEntity
  8
0
 62
7
100
AcDbLine
 10
140.479529
 20
109.469052
 30
0.0
 11
140.479529
 21
138.583485
 31
0.0
  0
LINE
  5
123
100
AcDbEntity
  8
0
 62
7
100
AcDbLine
 10
140.479529
 20
138.583485
 30
0.0
 11
174.809216
 21
138.495008
 31
0.0
  0
SPLINE
  5
124
100
AcDbEntity
  8
0
 62
7
100
AcDbSpline
 70
0
 71
3
 72
10
 73
6
 74
4
 40
0.000000
 40
0.000000
 40
0.000000
 40
0.000000
 40
5.830654
 40
9.989550
 40
11.577395
 40
11.577395
 40
11.577395
 40
11.577395
 10
13.942544
 20
1.515084
 30
0.0
 10
11.999165
 20
1.522163
 30
0.0
 10
8.669610
 20
1.534293
 30
0.0
 10
4.809136
 20
1.529955
 30
0.0
 10
2.895710
 20
1.623987
 30
0.0
 10
2.367023
 20
1.649968
 30
0.0
 11
13.942544
 21
1.515084
 31
0.0
 11
8.111911
 21
1.530915
 31
0.0
 11
3.953298
 21
1.579367
 31
0.0
 11
2.367023
 21
1.649968
 31
0.0
  0
LINE
  5
125
100
AcDbEntity
  8
0
 62
7
100
AcDbLine
 10
229.860832
 20
74.685816
 30
0.0
 11
227.059715
 21
72.853418
 31
0.0
  0
LINE
  5
126
100
AcDbEntity
  8
0
 62
7
100
AcDbLine
 10
227.059715
 20
72.853418
 30
0.0
 11
229.476393
 21
71.762990
 31
0.0
  0
SPLINE
  5
127
100
AcDbEntity
  8
0
 62
7
100
AcDbSpline
 70
0
 71
3
 72
22
 73
18
 74
16
 40
0.000000
 40
0.000000
 40
0.000000
 40
0.000000
 40
26.255541
 40
36.950882
 40
42.762277
 40
56.390366
 40
69.014901
 40
81.895020
 40
86.131918
 40
91.431580
 40
95.871074
 40
98.957646
 40
102.084845
 40
105.013976
 40
110.725922
 40
116.918652
 40
123.159944
 40
123.159944
 40
123.159944
 40
123.159944
 10
174.809216
 20
138.495008
 30
0.0
 10
183.546544
 20
138.422352
 30
0.0
 10
195.843072
 20
138.320100
 30
0.0
 10
210.172803
 20
138.443680
 30
0.0
 10
220.019231
 20
136.367140
 30
0.0
 10
230.178069
 20
132.389210
 30
0.0
 10
239.714725
 20
123.039972
 30
0.0
 10
243.881369
 20
113.672948
 30
0.0
 10
244.648211
 20
106.221856
 30
0.0
 10
244.727790
 20
101.564530
 30
0.0
 10
244.535132
 20
97.278111
 30
0.0
 10
243.777300
 20
93.799673
 30
0.0
 10
242.926804
 20
90.872536
 30
0.0
 10
241.528509
 20
87.197509
 30
0.0
 10
238.902629
 20
82.965237
 30
0.0
 10
234.882272
 20
78.391158
 30
0.0
 10
231.538998
 20
75.924142
 30
0.0
 10
229.860832
 20
74.685816
 30
0.0
 11
174.809216
 21
138.495008
 31
0.0
 11
201.064516
 21
138.382581
 31
0.0
 11
211.751515
 21
137.960238
 31
0.0
 11
217.447932
 21
136.809956
 31
0.0
 11
229.978668
 21
131.452206
 31
0.0
 11
239.005010
 21
122.625881
 31
0.0
 11
244.065994
 21
110.781730
 31
0.0
 11
244.558181
 21
106.573517
 31
0.0
 11
244.672948
 21
101.275098
 31
0.0
 11
244.367857
 21
96.846099
 31
0.0
 11
243.746634
 21
93.822690
 31
0.0
 11
242.866725
 21
90.821834
 31
0.0
 11
241.801372
 21
88.093312
 31
0.0
 11
238.865679
 21
83.193513
 31
0.0
 11
234.747069
 21
78.568910
 31
0.0
 11
229.860832
 21
74.685816
 31
0.0
  0
LINE
  5
128
100
AcDbEntity
  8
0
 62
7
100
AcDbLine
 10
176.396716
 20
1.576679
 30
0.0
 11
140.479529
 21
1.490821
 31
0.0
  0
LINE
  5
129
100
AcDbEntity
  8
0
 62
7
100
AcDbLine
 10
140.479529
 20
1.490821
 30
0.0
 11
140.479529
 21
32.057075
 31
0.0
  0
SPLINE
  5
12a
100
AcDbEntity
  8
0
 62
7
100
AcDbSpline
 70
0
 71
3
 72
22
 73
18
 74
16
 40
0.000000
 40
0.000000
 40
0.000000
 40
0.000000
 40
1.597077
 40
3.236405
 40
4.564420
 40
12.133548
 40
19.743823
 40
26.784223
 40
33.943028
 40
41.525061
 40
49.452678
 40
63.172758
 40
76.797317
 40
91.820502
 40
97.691356
 40
108.708186
 40
136.066410
 40
136.066410
 40
136.066410
 40
136.066410
 10
229.476393
 20
71.762990
 30
0.0
 10
229.958962
 20
71.538128
 30
0.0
 10
230.936869
 20
71.082454
 30
0.0
 10
232.294214
 20
70.394462
 30
0.0
 10
235.380170
 20
68.715769
 30
0.0
 10
239.775888
 20
65.318873
 30
0.0
 10
244.767403
 20
59.800950
 30
0.0
 10
248.446783
 20
53.439890
 30
0.0
 10
250.277016
 20
46.341100
 30
0.0
 10
250.735989
 20
38.761556
 30
0.0
 10
249.641179
 20
29.041079
 30
0.0
 10
245.115231
 20
17.827081
 30
0.0
 10
234.494167
 20
7.879367
 30
0.0
 10
223.535214
 20
3.752255
 30
0.0
 10
213.096780
 20
1.603024
 30
0.0
 10
198.272606
 20
1.764015
 30
0.0
 10
185.501473
 20
1.654648
 30
0.0
 10
176.396716
 20
1.576679
 30
0.0
 11
229.476393
 21
71.762990
 31
0.0
 11
230.920333
 21
71.080574
 31
0.0
 11
232.382723
 21
70.339756
 31
0.0
 11
233.546981
 21
69.700907
 31
0.0
 11
239.607751
 21
65.166730
 31
0.0
 11
244.674293
 21
59.488136
 31
0.0
 11
248.131211
 21
53.354870
 31
0.0
 11
250.019711
 21
46.449650
 31
0.0
 11
250.515115
 21
38.883819
 31
0.0
 11
249.594357
 21
31.009855
 31
0.0
 11
244.260563
 21
18.368999
 31
0.0
 11
234.411989
 21
8.954425
 31
0.0
 11
220.525486
 21
3.221964
 31
0.0
 11
214.763910
 21
2.094498
 31
0.0
 11
203.754730
 21
1.684035
 31
0.0
 11
176.396716
 21
1.576679
 31
0.0
  0
LINE
  5
12b
100
AcDbEntity
  8
0
 62
7
100
AcDbLine
 10
183.728532
 20
62.627563
 30
0.0
 11
161.117029
 21
62.627563
 31
0.0
  0
LINE
  5
12c
100
AcDbEntity
  8
0
 62
7
100
AcDbLine
 10
161.117029
 20
62.627563
 30
0.0
 11
161.117029
 21
41.185941
 31
0.0
  0
LINE
  5
12d
100
AcDbEntity
  8
0
 62
7
100
AcDbLine
 10
161.117029
 20
41.185941
 30
0.0
 11
161.117029
 21
19.744320
 31
0.0
  0
LINE
  5
12e
100
AcDbEntity
  8
0
 62
7
100
AcDbLine
 10
161.117029
 20
19.744320
 30
0.0
 11
185.524841
 21
19.839384
 31
0.0
  0
SPLINE
  5
12f
100
AcDbEntity
  8
0
 62
7
100
AcDbSpline
 70
0
 71
3
 72
28
 73
24
 74
22
 40
0.000000
 40
0.000000
 40
0.000000
 40
0.000000
 40
7.516896
 40
13.666422
 40
19.451288
 40
22.309491
 40
25.051557
 40
28.586852
 40
32.296669
 40
35.355613
 40
38.307779
 40
41.044563
 40
43.513750
 40
46.353440
 40
48.437706
 40
50.154970
 40
52.119244
 40
55.442012
 40
58.997656
 40
62.795995
 40
66.882319
 40
75.413618
 40
88.133631
 40
88.133631
 40
88.133631
 40
88.133631
 10
211.784737
 20
20.384188
 30
0.0
 10
214.204096
 20
21.065911
 30
0.0
 10
218.602717
 20
22.305347
 30
0.0
 10
224.169929
 20
25.915311
 30
0.0
 10
227.026921
 20
30.054418
 30
0.0
 10
228.526213
 20
33.553555
 30
0.0
 10
229.158507
 20
36.551365
 30
0.0
 10
229.326384
 20
39.880867
 30
0.0
 10
229.384453
 20
43.316741
 30
0.0
 10
229.037851
 20
46.552677
 30
0.0
 10
228.246182
 20
49.367036
 30
0.0
 10
227.264953
 20
51.912525
 30
0.0
 10
225.829016
 20
54.200268
 30
0.0
 10
224.137953
 20
56.001882
 30
0.0
 10
222.557560
 20
57.555220
 30
0.0
 10
221.000402
 20
58.695402
 30
0.0
 10
218.926658
 20
59.777795
 30
0.0
 10
216.196633
 20
60.908699
 30
0.0
 10
212.747190
 20
61.813100
 30
0.0
 10
208.975024
 20
62.443114
 30
0.0
 10
203.494124
 20
62.514371
 30
0.0
 10
195.054272
 20
62.628302
 30
0.0
 10
187.969272
 20
62.627840
 30
0.0
 10
183.728532
 20
62.627563
 30
0.0
 11
211.784737
 21
20.384188
 31
0.0
 11
218.895447
 21
22.821711
 31
0.0
 11
223.979367
 21
26.281543
 31
0.0
 11
227.354249
 21
30.979930
 31
0.0
 11
228.450371
 21
33.619597
 31
0.0
 11
229.040838
 21
36.297334
 31
0.0
 11
229.304175
 21
39.822808
 31
0.0
 11
229.304166
 21
43.532625
 31
0.0
 11
228.948673
 21
46.570841
 31
0.0
 11
228.181072
 21
49.421468
 31
0.0
 11
227.149037
 21
51.956206
 31
0.0
 11
225.837420
 21
54.048225
 31
0.0
 11
223.950041
 21
56.169930
 31
0.0
 11
222.433543
 21
57.599755
 31
0.0
 11
221.046285
 21
58.611939
 31
0.0
 11
219.319621
 21
59.548421
 31
0.0
 11
216.245500
 21
60.809600
 31
0.0
 11
212.814175
 21
61.741590
 31
0.0
 11
209.062386
 21
62.334431
 31
0.0
 11
204.979228
 21
62.495283
 31
0.0
 11
196.448501
 21
62.593993
 31
0.0
 11
183.728532
 21
62.627563
 31
0.0
  0
LINE
  5
130
100
AcDbEntity
  8
0
 62
7
100
AcDbLine
 10
211.784737
 20
20.384188
 30
0.0
 11
211.784737
 21
20.384188
 31
0.0
  0
SPLINE
  5
131
100
AcDbEntity
  8
0
 62
7
100
AcDbSpline
 70
0
 71
3
 72
10
 73
6
 74
4
 40
0.000000
 40
0.000000
 40
0.000000
 40
0.000000
 40
16.155023
 40
23.574046
 40
26.278580
 40
26.278580
 40
26.278580
 40
26.278580
 10
185.524841
 20
19.839384
 30
0.0
 10
190.905844
 20
19.904546
 30
0.0
 10
198.758016
 20
19.999633
 30
0.0
 10
207.538956
 20
19.854246
 30
0.0
 10
210.889603
 20
20.272461
 30
0.0
 10
211.784737
 20
20.384188
 30
0.0
 11
185.524841
 21
19.839384
 31
0.0
 11
201.679615
 21
19.928965
 31
0.0
 11
209.097043
 21
20.082852
 31
0.0
 11
211.784737
 21
20.384188
 31
0.0
  0
LINE
  5
132
100
AcDbEntity
  8
0
 62
7
100
AcDbLine
 10
182.746716
 20
120.566074
 30
0.0
 11
161.117029
 21
120.571366
 31
0.0
  0
LINE
  5
133
100
AcDbEntity
  8
0
 62
7
100
AcDbLine
 10
161.117029
 20
120.571366
 30
0.0
 11
161.117029
 21
100.374847
 31
0.0
  0
SPLINE
  5
134
100
AcDbEntity
  8
0
 62
7
100
AcDbSpline
 70
0
 71
3
 72
22
 73
18
 74
16
 40
0.000000
 40
0.000000
 40
0.000000
 40
0.000000
 40
4.845545
 40
8.938734
 40
13.012190
 40
16.178433
 40
19.187354
 40
22.558489
 40
26.585569
 40
31.409126
 40
35.169127
 40
40.543990
 40
45.884431
 40
51.324786
 40
56.205075
 40
64.352395
 40
82.085583
 40
82.085583
 40
82.085583
 40
82.085583
 10
207.419112
 20
80.461564
 30
0.0
 10
209.000156
 20
80.808563
 30
0.0
 10
211.916760
 20
81.448682
 30
0.0
 10
215.880668
 20
83.327912
 30
0.0
 10
218.801442
 20
85.763902
 30
0.0
 10
221.087807
 20
88.326191
 30
0.0
 10
222.640159
 20
91.128101
 30
0.0
 10
223.778902
 20
94.428528
 30
0.0
 10
224.232462
 20
98.501459
 30
0.0
 10
224.280712
 20
102.698153
 30
0.0
 10
223.880468
 20
107.376006
 30
0.0
 10
221.704537
 20
111.811708
 30
0.0
 10
218.092822
 20
115.896833
 30
0.0
 10
213.507996
 20
118.544176
 30
0.0
 10
207.588912
 20
120.414678
 30
0.0
 10
197.247459
 20
120.496976
 30
0.0
 10
188.642671
 20
120.537979
 30
0.0
 10
182.746716
 20
120.566074
 30
0.0
 11
207.419112
 21
80.461564
 31
0.0
 11
212.105356
 21
81.693806
 31
0.0
 11
215.790452
 21
83.475453
 31
0.0
 11
218.955871
 21
86.039272
 31
0.0
 11
221.024722
 21
88.436134
 31
0.0
 11
222.505774
 21
91.055312
 31
0.0
 11
223.596054
 21
94.245271
 31
0.0
 11
224.141915
 21
98.235185
 31
0.0
 11
224.196686
 21
103.058430
 31
0.0
 11
223.738506
 21
106.790411
 31
0.0
 11
221.501911
 21
111.677822
 31
0.0
 11
217.932103
 21
115.649823
 31
0.0
 11
213.264446
 21
118.444539
 31
0.0
 11
208.607340
 21
119.903505
 31
0.0
 11
200.479636
 21
120.468531
 31
0.0
 11
182.746716
 21
120.566074
 31
0.0
  0
LINE
  5
135
100
AcDbEntity
  8
0
 62
7
100
AcDbLine
 10
207.419112
 20
80.461617
 30
0.0
 11
207.419112
 21
80.461564
 31
0.0
  0
SPLINE
  5
136
100
AcDbEntity
  8
0
 62
7
100
AcDbSpline
 70
0
 71
3
 72
16
 73
12
 74
10
 40
0.000000
 40
0.000000
 40
0.000000
 40
0.000000
 40
10.200404
 40
17.528084
 40
20.397795
 40
23.490136
 40
31.403430
 40
42.425585
 40
56.603150
 40
63.583770
 40
66.519129
 40
66.519129
 40
66.519129
 40
66.519129
 10
161.117029
 20
100.374847
 30
0.0
 10
161.031945
 20
96.877879
 30
0.0
 10
160.885739
 20
90.868788
 30
0.0
 10
161.686143
 20
84.874238
 30
0.0
 10
160.578299
 20
79.159050
 30
0.0
 10
166.640285
 20
80.468690
 30
0.0
 10
173.034589
 20
79.558130
 30
0.0
 10
184.527073
 20
80.009436
 30
0.0
 10
195.095764
 20
80.025534
 30
0.0
 10
203.160214
 20
79.993347
 30
0.0
 10
206.446342
 20
80.354660
 30
0.0
 10
207.419112
 20
80.461617
 30
0.0
 11
161.117029
 21
100.374847
 31
0.0
 11
161.144222
 21
90.174479
 31
0.0
 11
161.215512
 21
82.847146
 31
0.0
 11
161.315466
 21
79.979176
 31
0.0
 11
164.406681
 21
79.895732
 31
0.0
 11
172.319928
 21
79.868416
 31
0.0
 11
183.342029
 21
79.903135
 31
0.0
 11
197.519178
 21
80.011690
 31
0.0
 11
204.497920
 21
80.173568
 31
0.0
 11
207.419112
 21
80.461617
 31
0.0
  0
LINE
  5
137
100
AcDbEntity
  8
0
 62
7
100
AcDbLine
 10
398.382146
 20
138.557556
 30
0.0
 11
409.957667
 21
138.551999
 31
0.0
  0
LINE
  5
138
100
AcDbEntity
  8
0
 62
7
100
AcDbLine
 10
409.957667
 20
138.551999
 30
0.0
 11
428.007648
 21
113.672197
 31
0.0
  0
LINE
  5
139
100
AcDbEntity
  8
0
 62
7
100
AcDbLine
 10
428.007648
 20
113.672197
 30
0.0
 11
446.057629
 21
88.792394
 31
0.0
  0
LINE
  5
13a
100
AcDbEntity
  8
0
 62
7
100
AcDbLine
 10
446.057629
 20
88.792394
 30
0.0
 11
447.597451
 21
90.894535
 31
0.0
  0
SPLINE
  5
13b
100
AcDbEntity
  8
0
 62
7
100
AcDbSpline
 70
0
 71
3
 72
19
 73
15
 74
13
 40
0.000000
 40
0.000000
 40
0.000000
 40
0.000000
 40
22.424714
 40
64.259896
 40
87.577478
 40
92.540829
 40
106.474267
 40
128.142799
 40
148.539405
 40
163.115821
 40
168.716437
 40
170.304165
 40
174.463044
 40
180.293698
 40
180.293698
 40
180.293698
 40
180.293698
 10
382.837875
 20
1.629410
 30
0.0
 10
387.453108
 20
7.687451
 30
0.0
 10
400.678442
 20
25.047274
 30
0.0
 10
410.584116
 20
48.838113
 30
0.0
 10
438.906525
 20
67.451280
 30
0.0
 10
429.333425
 20
79.193847
 30
0.0
 10
421.974425
 20
90.132734
 30
0.0
 10
411.284365
 20
104.999916
 30
0.0
 10
398.291256
 20
121.220310
 30
0.0
 10
394.662847
 20
130.053905
 30
0.0
 10
384.880345
 20
138.649503
 30
0.0
 10
389.479631
 20
138.430256
 30
0.0
 10
392.995476
 20
138.593558
 30
0.0
 10
396.396847
 20
138.570825
 30
0.0
 10
398.382146
 20
138.557556
 30
0.0
 11
382.837875
 21
1.629410
 31
0.0
 11
395.958126
 21
19.815306
 31
0.0
 11
420.491043
 21
53.702154
 31
0.0
 11
434.194876
 21
72.567853
 31
0.0
 11
431.426740
 21
76.687595
 31
0.0
 11
423.325920
 21
88.024147
 31
0.0
 11
410.611902
 21
105.570629
 31
0.0
 11
398.621094
 21
122.070388
 31
0.0
 11
390.068829
 21
133.874229
 31
0.0
 11
386.806625
 21
138.426693
 31
0.0
 11
388.392900
 21
138.494599
 31
0.0
 11
392.551513
 21
138.541614
 31
0.0
 11
398.382146
 21
138.557556
 31
0.0
  0
LINE
  5
13c
100
AcDbEntity
  8
0
 62
7
100
AcDbLine
 10
465.663095
 20
115.776269
 30
0.0
 11
482.188917
 21
138.555836
 31
0.0
  0
LINE
  5
13d
100
AcDbEntity
  8
0
 62
7
100
AcDbLine
 10
482.188917
 20
138.555836
 30
0.0
 11
493.764438
 21
138.559275
 31
0.0
  0
SPLINE
  5
13e
100
AcDbEntity
  8
0
 62
7
100
AcDbSpline
 70
0
 71
3
 72
10
 73
6
 74
4
 40
0.000000
 40
0.000000
 40
0.000000
 40
0.000000
 40
5.169119
 40
16.215788
 40
30.748469
 40
30.748469
 40
30.748469
 40
30.748469
 10
447.597451
 20
90.894535
 30
0.0
 10
448.611044
 20
92.287910
 30
0.0
 10
451.790738
 20
96.658998
 30
0.0
 10
457.810455
 20
104.954484
 30
0.0
 10
462.818065
 20
111.855512
 30
0.0
 10
465.663095
 20
115.776269
 30
0.0
 11
447.597451
 21
90.894535
 31
0.0
 11
450.637715
 21
95.075036
 31
0.0
 11
457.127964
 21
104.014027
 31
0.0
 11
465.663095
 21
115.776269
 31
0.0
  0
LINE
  5
13f
100
AcDbEntity
  8
0
 62
7
100
AcDbLine
 10
497.997771
 20
1.511961
 30
0.0
 11
486.422250
 21
1.515401
 31
0.0
  0
LINE
  5
140
100
AcDbEntity
  8
0
 62
7
100
AcDbLine
 10
486.422250
 20
1.515401
 30
0.0
 11
466.313917
 21
29.154279
 31
0.0
  0
SPLINE
  5
141
100
AcDbEntity
  8
0
 62
7
100
AcDbSpline
 70
0
 71
3
 72
22
 73
18
 74
16
 40
0.000000
 40
0.000000
 40
0.000000
 40
0.000000
 40
5.830651
 40
9.989483
 40
11.576935
 40
17.173073
 40
31.748919
 40
52.148969
 40
73.989850
 40
87.844062
 40
92.727328
 40
116.221320
 40
158.065195
 40
180.463735
 40
182.051256
 40
186.210102
 40
192.040755
 40
192.040755
 40
192.040755
 40
192.040755
 10
493.764438
 20
138.559275
 30
0.0
 10
495.749810
 20
138.573329
 30
0.0
 10
499.151289
 20
138.597406
 30
0.0
 10
502.666443
 20
138.432126
 30
0.0
 10
507.265316
 20
138.671576
 30
0.0
 10
497.479149
 20
130.066952
 30
0.0
 10
493.853204
 20
121.245157
 30
0.0
 10
480.822363
 20
104.968896
 30
0.0
 10
470.107767
 20
90.083971
 30
0.0
 10
462.762980
 20
79.129909
 30
0.0
 10
453.155833
 20
67.406541
 30
0.0
 10
483.637975
 20
47.894586
 30
0.0
 10
481.512270
 20
29.804923
 30
0.0
 10
517.071031
 20
1.669494
 30
0.0
 10
507.058366
 20
1.561788
 30
0.0
 10
503.306497
 20
1.513458
 30
0.0
 10
499.954348
 20
1.512513
 30
0.0
 10
497.997771
 20
1.511961
 30
0.0
 11
493.764438
 21
138.559275
 31
0.0
 11
499.595070
 21
138.544646
 31
0.0
 11
503.753683
 21
138.501929
 31
0.0
 11
505.339959
 21
138.440821
 31
0.0
 11
502.077190
 21
133.894273
 31
0.0
 11
493.523443
 21
122.092209
 31
0.0
 11
481.530554
 21
105.589705
 31
0.0
 11
468.715958
 21
87.903264
 31
0.0
 11
460.663039
 21
76.629858
 31
0.0
 11
457.945490
 21
72.572615
 31
0.0
 11
471.800705
 21
53.598932
 31
0.0
 11
496.423421
 21
19.766525
 31
0.0
 11
509.573292
 21
1.634358
 31
0.0
 11
507.987017
 21
1.571475
 31
0.0
 11
503.828404
 21
1.527501
 31
0.0
 11
497.997771
 21
1.511961
 31
0.0
  0
LINE
  5
142
100
AcDbEntity
  8
0
 62
7
100
AcDbLine
 10
425.964959
 20
29.154517
 30
0.0
 11
405.988917
 21
1.512570
 31
0.0
  0
LINE
  5
143
100
AcDbEntity
  8
0
 62
7
100
AcDbLine
 10
405.988917
 20
1.512570
 30
0.0
 11
394.413396
 21
1.509924
 31
0.0
  0
SPLINE
  5
144
100
AcDbEntity
  8
0
 62
7
100
AcDbSpline
 70
0
 71
3
 72
13
 73
9
 74
7
 40
0.000000
 40
0.000000
 40
0.000000
 40
0.000000
 40
17.227296
 40
29.535173
 40
34.259233
 40
38.971812
 40
51.251433
 40
68.440287
 40
68.440287
 40
68.440287
 40
68.440287
 10
466.313917
 20
29.154279
 30
0.0
 10
462.930210
 20
34.078231
 30
0.0
 10
457.129046
 20
42.520052
 30
0.0
 10
450.414835
 20
49.414674
 30
0.0
 10
446.072549
 20
58.840542
 30
0.0
 10
441.763784
 20
49.422949
 30
0.0
 10
435.087072
 20
42.517362
 30
0.0
 10
429.325603
 20
34.077473
 30
0.0
 10
425.964959
 20
29.154517
 30
0.0
 11
466.313917
 21
29.154279
 31
0.0
 11
456.167146
 21
43.076304
 31
0.0
 11
448.895514
 21
53.006419
 31
0.0
 11
446.073292
 21
56.794797
 31
0.0
 11
443.269199
 21
53.007257
 31
0.0
 11
436.045094
 21
43.077433
 31
0.0
 11
425.964959
 21
29.154517
 31
0.0
  0
LINE
  5
145
100
AcDbEntity
  8
0
 62
7
100
AcDbLine
 10
382.837875
 20
1.628563
 30
0.0
 11
382.837875
 21
1.629410
 31
0.0
  0
SPLINE
  5
146
100
AcDbEntity
  8
0
 62
7
100
AcDbSpline
 70
0
 71
3
 72
10
 73
6
 74
4
 40
0.000000
 40
0.000000
 40
0.000000
 40
0.000000
 40
5.830655
 40
9.989484
 40
11.576902
 40
11.576902
 40
11.576902
 40
11.576902
 10
394.413396
 20
1.509924
 30
0.0
 10
392.469971
 20
1.516859
 30
0.0
 10
389.140359
 20
1.528740
 30
0.0
 10
385.280429
 20
1.526228
 30
0.0
 10
383.366582
 20
1.606412
 30
0.0
 10
382.837875
 20
1.628563
 30
0.0
 11
394.413396
 21
1.509924
 31
0.0
 11
388.582763
 21
1.525942
 31
0.0
 11
384.424150
 21
1.568325
 31
0.0
 11
382.837875
 21
1.628563
 31
0.0
  0
LINE
  5
147
100
AcDbEntity
  8
0
 62
7
100
AcDbLine
 10
253.468915
 20
309.013582
 30
0.0
 11
255.994786
 21
311.009035
 31
0.0
  0
LINE
  5
148
100
AcDbEntity
  8
0
 62
7
100
AcDbLine
 10
255.994786
 20
311.009035
 30
0.0
 11
259.289748
 21
308.377667
 31
0.0
  0
SPLINE
  5
149
100
AcDbEntity
  8
0
 62
7
100
AcDbSpline
 70
0
 71
3
 72
25
 73
21
 74
19
 40
0.000000
 40
0.000000
 40
0.000000
 40
0.000000
 40
21.937444
 40
43.084575
 40
64.067524
 40
70.233759
 40
73.976785
 40
76.573208
 40
79.106428
 40
81.562672
 40
84.395017
 40
94.860935
 40
108.846468
 40
126.399776
 40
140.704915
 40
155.390814
 40
172.227371
 40
185.854720
 40
197.670191
 40
209.009719
 40
209.009719
 40
209.009719
 40
209.009719
 10
247.371195
 20
174.447719
 30
0.0
 10
240.106766
 20
175.436802
 30
0.0
 10
225.839614
 20
177.379335
 30
0.0
 10
205.690120
 20
184.991679
 30
0.0
 10
191.895155
 20
193.478609
 30
0.0
 10
183.766156
 20
199.771110
 30
0.0
 10
180.575181
 20
202.498117
 30
0.0
 10
178.915666
 20
204.981809
 30
0.0
 10
177.982696
 20
207.350257
 30
0.0
 10
177.523101
 20
209.932965
 30
0.0
 10
177.577430
 20
215.206849
 30
0.0
 10
180.085813
 20
224.106058
 30
0.0
 10
186.557459
 20
236.556917
 30
0.0
 10
195.218343
 20
249.183031
 30
0.0
 10
204.788325
 20
261.400070
 30
0.0
 10
214.892932
 20
272.868202
 30
0.0
 10
225.395844
 20
283.652380
 30
0.0
 10
235.463992
 20
293.514541
 30
0.0
 10
244.528404
 20
301.780049
 30
0.0
 10
250.529864
 20
306.635673
 30
0.0
 10
253.468915
 20
309.013582
 30
0.0
 11
247.371195
 21
174.447719
 31
0.0
 11
225.763763
 21
178.238537
 31
0.0
 11
205.944956
 21
185.615260
 31
0.0
 11
188.027773
 21
196.535823
 31
0.0
 11
183.159126
 21
200.319834
 31
0.0
 11
180.433169
 21
202.884869
 31
0.0
 11
178.988019
 21
205.041939
 31
0.0
 11
178.055838
 21
207.397410
 31
0.0
 11
177.616164
 21
209.813982
 31
0.0
 11
177.604486
 21
212.646302
 31
0.0
 11
180.040568
 21
222.824758
 31
0.0
 11
186.223913
 21
235.369133
 31
0.0
 11
195.993398
 21
249.952542
 31
0.0
 11
204.815082
 21
261.213754
 31
0.0
 11
214.501735
 21
272.252067
 31
0.0
 11
226.193654
 21
284.366880
 31
0.0
 11
235.956042
 21
293.874794
 31
0.0
 11
244.722580
 21
301.796484
 31
0.0
 11
253.468915
 21
309.013582
 31
0.0
  0
LINE
  5
14a
100
AcDbEntity
  8
0
 62
7
100
AcDbLine
 10
247.371195
 20
174.447719
 30
0.0
 11
247.371195
 21
174.447719
 31
0.0
  0
SPLINE
  5
14b
100
AcDbEntity
  8
0
 62
7
100
AcDbSpline
 70
0
 71
3
 72
28
 73
24
 74
22
 40
0.000000
 40
0.000000
 40
0.000000
 40
0.000000
 40
11.145964
 40
22.722103
 40
35.923095
 40
70.974479
 40
99.438123
 40
119.835393
 40
124.573349
 40
128.913720
 40
132.676637
 40
135.877623
 40
141.116055
 40
147.061189
 40
163.184112
 40
179.322797
 40
195.027327
 40
201.559775
 40
207.375810
 40
214.929529
 40
219.557355
 40
223.169421
 40
224.984268
 40
224.984268
 40
224.984268
 40
224.984268
 10
259.289748
 20
308.377667
 30
0.0
 10
262.167310
 20
306.026600
 30
0.0
 10
268.033493
 20
301.233729
 30
0.0
 10
276.867589
 20
293.140377
 30
0.0
 10
291.116289
 20
279.196649
 30
0.0
 10
308.530516
 20
260.333582
 30
0.0
 10
324.833450
 20
237.711618
 30
0.0
 10
333.247279
 20
221.471698
 30
0.0
 10
334.440574
 20
211.634658
 30
0.0
 10
333.936635
 20
207.363971
 30
0.0
 10
332.553666
 20
203.731380
 30
0.0
 10
329.455172
 20
200.996610
 30
0.0
 10
325.790029
 20
197.943458
 30
0.0
 10
318.449205
 20
192.531803
 30
0.0
 10
307.450188
 20
186.040410
 30
0.0
 10
292.678470
 20
179.778842
 30
0.0
 10
280.248485
 20
176.581236
 30
0.0
 10
271.019282
 20
175.044489
 30
0.0
 10
264.401661
 20
174.484826
 30
0.0
 10
258.400244
 20
174.422431
 30
0.0
 10
253.136376
 20
174.396772
 30
0.0
 10
249.784338
 20
174.383279
 30
0.0
 10
247.975950
 20
174.431569
 30
0.0
 10
247.371195
 20
174.447719
 30
0.0
 11
259.289748
 21
308.377667
 31
0.0
 11
267.855436
 21
301.245942
 31
0.0
 11
276.426051
 21
293.464454
 31
0.0
 11
285.872105
 21
284.242835
 31
0.0
 11
309.393172
 21
258.255166
 31
0.0
 11
325.782018
 21
234.983193
 31
0.0
 11
333.777193
 21
216.218177
 31
0.0
 11
334.259525
 21
211.504836
 31
0.0
 11
333.720788
 21
207.198030
 31
0.0
 11
332.217369
 21
203.748497
 31
0.0
 11
329.971476
 21
201.467647
 31
0.0
 11
325.935660
 21
198.127981
 31
0.0
 11
321.154795
 21
194.594152
 31
0.0
 11
307.292933
 21
186.360235
 31
0.0
 11
292.414376
 21
180.108377
 31
0.0
 11
277.221183
 21
176.133564
 31
0.0
 11
270.771440
 21
175.097372
 31
0.0
 11
264.977050
 21
174.596067
 31
0.0
 11
257.425362
 21
174.420916
 31
0.0
 11
252.797603
 21
174.395856
 31
0.0
 11
249.185551
 21
174.405486
 31
0.0
 11
247.371195
 21
174.447719
 31
0.0
  0
LINE
  5
14c
100
AcDbEntity
  8
0
 62
7
100
AcDbLine
 10
221.542412
 20
342.779630
 30
0.0
 11
224.950086
 21
339.514000
 31
0.0
  0
LINE
  5
14d
100
AcDbEntity
  8
0
 62
7
100
AcDbLine
 10
224.950086
 20
339.514000
 30
0.0
 11
222.322112
 21
336.339000
 31
0.0
  0
SPLINE
  5
14e
100
AcDbEntity
  8
0
 62
7
100
AcDbSpline
 70
0
 71
3
 72
22
 73
18
 74
16
 40
0.000000
 40
0.000000
 40
0.000000
 40
0.000000
 40
2.861628
 40
7.390615
 40
11.968012
 40
48.609957
 40
84.727210
 40
121.324351
 40
134.019104
 40
146.737312
 40
160.136062
 40
163.325922
 40
165.481619
 40
168.208783
 40
179.464566
 40
196.209055
 40
218.664688
 40
218.664688
 40
218.664688
 40
218.664688
 10
165.114380
 20
219.555711
 30
0.0
 10
164.528936
 20
220.309091
 30
0.0
 10
163.016934
 20
222.254816
 30
0.0
 10
160.811202
 20
225.582811
 30
0.0
 10
152.590290
 20
238.421548
 30
0.0
 10
142.838159
 20
262.866079
 30
0.0
 10
140.434354
 20
299.796549
 30
0.0
 10
147.811839
 20
327.879047
 30
0.0
 10
157.187987
 20
346.318189
 30
0.0
 10
164.332893
 20
357.172808
 30
0.0
 10
170.740343
 20
364.499609
 30
0.0
 10
174.880175
 20
369.259152
 30
0.0
 10
177.392517
 20
370.457085
 30
0.0
 10
182.882754
 20
370.179032
 30
0.0
 10
192.610528
 20
366.475620
 30
0.0
 10
206.405493
 20
356.686077
 30
0.0
 10
216.029397
 20
347.844495
 30
0.0
 10
221.542412
 20
342.779630
 30
0.0
 11
165.114380
 21
219.555711
 31
0.0
 11
163.380521
 21
221.832254
 31
0.0
 11
160.830494
 21
225.575125
 31
0.0
 11
158.379491
 21
229.441020
 31
0.0
 11
144.693302
 21
263.431025
 31
0.0
 11
142.388813
 21
299.474682
 31
0.0
 11
151.637907
 21
334.883792
 31
0.0
 11
157.393000
 21
346.199076
 31
0.0
 11
164.421543
 21
356.798717
 31
0.0
 11
172.996423
 21
367.094246
 31
0.0
 11
175.280569
 21
369.320877
 31
0.0
 11
177.242247
 21
370.214661
 31
0.0
 11
179.968829
 21
370.271029
 31
0.0
 11
190.677539
 21
366.804592
 31
0.0
 11
204.644480
 21
357.568659
 31
0.0
 11
221.542412
 21
342.779630
 31
0.0
  0
LINE
  5
14f
100
AcDbEntity
  8
0
 62
7
100
AcDbLine
 10
165.114380
 20
219.555711
 30
0.0
 11
165.114380
 21
219.555711
 31
0.0
  0
SPLINE
  5
150
100
AcDbEntity
  8
0
 62
7
100
AcDbSpline
 70
0
 71
3
 72
22
 73
18
 74
16
 40
0.000000
 40
0.000000
 40
0.000000
 40
0.000000
 40
15.875960
 40
33.232790
 40
50.229869
 40
77.239468
 40
99.609584
 40
117.454544
 40
122.123510
 40
127.106849
 40
130.983397
 40
132.087294
 40
132.895321
 40
133.236651
 40
133.368954
 40
133.663866
 40
134.072865
 40
134.072865
 40
134.072865
 40
134.072865
 10
222.322112
 20
336.339000
 30
0.0
 10
219.020709
 20
332.202185
 30
0.0
 10
212.109954
 20
323.542684
 30
0.0
 10
202.373706
 20
309.910956
 30
0.0
 10
191.046677
 20
292.881718
 30
0.0
 10
179.784974
 20
273.782110
 30
0.0
 10
170.353716
 20
253.472389
 30
0.0
 10
165.568009
 20
239.123693
 30
0.0
 10
164.648324
 20
229.997853
 30
0.0
 10
164.713494
 20
225.447230
 30
0.0
 10
164.999910
 20
222.216438
 30
0.0
 10
165.604552
 20
220.244111
 30
0.0
 10
165.650040
 20
219.670588
 30
0.0
 10
165.878411
 20
219.019381
 30
0.0
 10
165.573386
 20
219.110563
 30
0.0
 10
165.383950
 20
219.293862
 30
0.0
 10
165.213448
 20
219.459480
 30
0.0
 10
165.114380
 20
219.555711
 30
0.0
 11
222.322112
 21
336.339000
 31
0.0
 11
212.524961
 21
323.846525
 31
0.0
 11
202.385045
 21
309.759593
 31
0.0
 11
192.992864
 21
295.593167
 31
0.0
 11
179.431706
 21
272.234797
 31
0.0
 11
170.137848
 21
251.886669
 31
0.0
 11
165.198174
 21
234.739011
 31
0.0
 11
164.745255
 21
230.092064
 31
0.0
 11
164.785896
 21
225.108891
 31
0.0
 11
165.308055
 21
221.267671
 31
0.0
 11
165.581748
 21
220.198241
 31
0.0
 11
165.749214
 21
219.407758
 31
0.0
 11
165.774198
 21
219.067343
 31
0.0
 11
165.644903
 21
219.095391
 31
0.0
 11
165.407858
 21
219.270841
 31
0.0
 11
165.114380
 21
219.555711
 31
0.0
  0
LINE
  5
151
100
AcDbEntity
  8
0
 62
7
100
AcDbLine
 10
288.413402
 20
338.035723
 30
0.0
 11
286.938323
 21
339.732448
 31
0.0
  0
LINE
  5
152
100
AcDbEntity
  8
0
 62
7
100
AcDbLine
 10
286.938323
 20
339.732448
 30
0.0
 11
290.107370
 21
342.765769
 31
0.0
  0
SPLINE
  5
153
100
AcDbEntity
  8
0
 62
7
100
AcDbSpline
 70
0
 71
3
 72
16
 73
12
 74
10
 40
0.000000
 40
0.000000
 40
0.000000
 40
0.000000
 40
3.423924
 40
7.662961
 40
11.612507
 40
32.011797
 40
58.852789
 40
91.814938
 40
106.733271
 40
121.237038
 40
132.581006
 40
132.581006
 40
132.581006
 40
132.581006
 10
346.638589
 20
221.708281
 30
0.0
 10
346.803007
 20
222.838726
 30
0.0
 10
347.170985
 20
225.368733
 30
0.0
 10
347.202504
 20
229.250115
 30
0.0
 10
346.543969
 20
238.768673
 30
0.0
 10
341.034052
 20
255.189583
 30
0.0
 10
329.363219
 20
279.200732
 30
0.0
 10
316.183968
 20
300.414818
 30
0.0
 10
304.294251
 20
317.469011
 30
0.0
 10
296.271130
 20
328.444574
 30
0.0
 10
290.810114
 20
335.110294
 30
0.0
 10
288.413402
 20
338.035723
 30
0.0
 11
346.638589
 21
221.708282
 31
0.0
 11
347.062531
 21
225.105859
 31
0.0
 11
347.146783
 21
229.344059
 31
0.0
 11
346.868697
 21
233.283802
 31
0.0
 11
341.393737
 21
252.934650
 31
0.0
 11
329.882173
 21
277.181769
 31
0.0
 11
312.678974
 21
305.298546
 31
0.0
 11
304.168187
 21
317.551022
 31
0.0
 11
295.531511
 21
329.202935
 31
0.0
 11
288.413402
 21
338.035723
 31
0.0
  0
LINE
  5
154
100
AcDbEntity
  8
0
 62
7
100
AcDbLine
 10
346.638589
 20
221.708282
 30
0.0
 11
346.638589
 21
221.708282
 31
0.0
  0
SPLINE
  5
155
100
AcDbEntity
  8
0
 62
7
100
AcDbSpline
 70
0
 71
3
 72
31
 73
27
 74
25
 40
0.000000
 40
0.000000
 40
0.000000
 40
0.000000
 40
21.682452
 40
38.334158
 40
50.048915
 40
51.431037
 40
52.525303
 40
53.602480
 40
54.824314
 40
56.498139
 40
60.007228
 40
71.400558
 40
82.248220
 40
93.321725
 40
124.870434
 40
156.204909
 40
188.001651
 40
192.956656
 40
198.758269
 40
203.658412
 40
210.332498
 40
216.574627
 40
219.521268
 40
219.783131
 40
220.513491
 40
221.744177
 40
221.744177
 40
221.744177
 40
221.744177
 10
290.107370
 20
342.765769
 30
0.0
 10
295.434807
 20
347.666358
 30
0.0
 10
304.853612
 20
356.330505
 30
0.0
 10
318.508939
 20
365.925061
 30
0.0
 10
327.805088
 20
369.992997
 30
0.0
 10
332.505497
 20
370.570878
 30
0.0
 10
333.696421
 20
370.577075
 30
0.0
 10
334.808688
 20
370.381275
 30
0.0
 10
336.113524
 20
370.023207
 30
0.0
 10
337.660726
 20
368.471903
 30
0.0
 10
341.376016
 20
364.448280
 30
0.0
 10
346.981941
 20
357.885473
 30
0.0
 10
353.269545
 20
348.719366
 30
0.0
 10
361.853518
 20
333.076836
 30
0.0
 10
369.737897
 20
309.333191
 30
0.0
 10
370.889252
 20
277.442596
 30
0.0
 10
365.630830
 20
254.973335
 30
0.0
 10
359.974278
 20
241.984636
 30
0.0
 10
357.712846
 20
237.240999
 30
0.0
 10
355.078530
 20
232.226285
 30
0.0
 10
351.803981
 20
226.544396
 30
0.0
 10
349.238548
 20
224.124516
 30
0.0
 10
346.839346
 20
218.627551
 30
0.0
 10
346.241593
 20
219.928644
 30
0.0
 10
346.458173
 20
220.670661
 30
0.0
 10
346.569023
 20
221.308190
 30
0.0
 10
346.638589
 20
221.708282
 30
0.0
 11
290.107370
 21
342.765769
 31
0.0
 11
306.422487
 21
357.046725
 31
0.0
 11
320.243517
 21
366.334266
 31
0.0
 11
331.230208
 21
370.399749
 31
0.0
 11
332.603860
 21
370.552533
 31
0.0
 11
333.698094
 21
370.544324
 31
0.0
 11
334.761602
 21
370.373256
 31
0.0
 11
335.920287
 21
369.985538
 31
0.0
 11
337.207953
 21
368.916143
 31
0.0
 11
339.603583
 21
366.352032
 31
0.0
 11
346.931652
 21
357.628078
 31
0.0
 11
353.075564
 21
348.688049
 31
0.0
 11
358.411304
 21
338.984833
 31
0.0
 11
368.265811
 21
309.014686
 31
0.0
 11
369.493355
 21
277.704265
 31
0.0
 11
362.025591
 21
246.796899
 31
0.0
 11
360.060546
 21
242.248199
 31
0.0
 11
357.560089
 21
237.013084
 31
0.0
 11
355.280701
 21
232.675367
 31
0.0
 11
351.800697
 21
226.980369
 31
0.0
 11
348.314866
 21
221.802226
 31
0.0
 11
346.434092
 21
219.533883
 31
0.0
 11
346.329912
 21
219.774130
 31
0.0
 11
346.398299
 21
220.501282
 31
0.0
 11
346.638589
 21
221.708282
 31
0.0
  0
LINE
  5
156
100
AcDbEntity
  8
0
 62
7
100
AcDbLine
 10
253.853487
 20
369.852861
 30
0.0
 11
253.853487
 21
369.852861
 31
0.0
  0
SPLINE
  5
157
100
AcDbEntity
  8
0
 62
7
100
AcDbSpline
 70
0
 71
3
 72
52
 73
48
 74
46
 40
0.000000
 40
0.000000
 40
0.000000
 40
0.000000
 40
5.717856
 40
13.406612
 40
20.081716
 40
28.229412
 40
35.736988
 40
42.690011
 40
47.564885
 40
52.941778
 40
57.432927
 40
59.574806
 40
60.323042
 40
60.604512
 40
61.249323
 40
63.288566
 40
67.379390
 40
74.661904
 40
82.303405
 40
88.290965
 40
89.152059
 40
90.523136
 40
92.107370
 40
111.855218
 40
132.244738
 40
152.379158
 40
159.352481
 40
166.493125
 40
173.888638
 40
178.817876
 40
183.740836
 40
186.223000
 40
186.645150
 40
187.415489
 40
189.120142
 40
193.650510
 40
199.342549
 40
204.382097
 40
217.167310
 40
231.500248
 40
246.040509
 40
247.704533
 40
248.941349
 40
249.484983
 40
249.879519
 40
250.721550
 40
251.831035
 40
251.831035
 40
251.831035
 40
251.831035
 10
253.853487
 20
369.852861
 30
0.0
 10
252.172116
 20
370.751015
 30
0.0
 10
248.229819
 20
372.856910
 30
0.0
 10
242.164966
 20
375.695290
 30
0.0
 10
235.307301
 20
378.745408
 30
0.0
 10
228.308964
 20
381.303419
 30
0.0
 10
221.085473
 20
383.457034
 30
0.0
 10
214.797765
 20
384.923754
 30
0.0
 10
209.079491
 20
385.528967
 30
0.0
 10
204.196707
 20
385.762801
 30
0.0
 10
200.104236
 20
385.438420
 30
0.0
 10
197.798771
 20
385.349623
 30
0.0
 10
196.610090
 20
384.962751
 30
0.0
 10
196.232004
 20
385.509246
 30
0.0
 10
197.227612
 20
386.284845
 30
0.0
 10
198.967149
 20
387.274437
 30
0.0
 10
203.025533
 20
389.556237
 30
0.0
 10
208.632727
 20
392.309613
 30
0.0
 10
215.053709
 20
395.097696
 30
0.0
 10
219.573216
 20
396.810846
 30
0.0
 10
222.208190
 20
397.563272
 30
0.0
 10
223.429219
 20
397.920087
 30
0.0
 10
230.686907
 20
400.063052
 30
0.0
 10
244.450899
 20
402.616767
 30
0.0
 10
264.621343
 20
402.814852
 30
0.0
 10
280.363244
 20
400.361361
 30
0.0
 10
291.312910
 20
397.121358
 30
0.0
 10
298.060527
 20
394.650286
 30
0.0
 10
303.944715
 20
391.987433
 30
0.0
 10
309.236080
 20
389.531520
 30
0.0
 10
312.353417
 20
387.083742
 30
0.0
 10
315.398617
 20
386.528091
 30
0.0
 10
315.625739
 20
385.045596
 30
0.0
 10
314.288776
 20
385.211832
 30
0.0
 10
312.299073
 20
385.453419
 30
0.0
 10
308.084640
 20
385.723679
 30
0.0
 10
303.089943
 20
385.543598
 30
0.0
 10
295.247943
 20
384.741844
 30
0.0
 10
284.905077
 20
381.786566
 30
0.0
 10
271.873743
 20
376.901596
 30
0.0
 10
262.745687
 20
372.516097
 30
0.0
 10
257.648683
 20
369.565743
 30
0.0
 10
256.639060
 20
369.139384
 30
0.0
 10
255.971075
 20
368.657885
 30
0.0
 10
255.419083
 20
368.999909
 30
0.0
 10
254.738384
 20
369.327319
 30
0.0
 10
254.174225
 20
369.662374
 30
0.0
 10
253.853487
 20
369.852861
 30
0.0
 11
253.853487
 21
369.852861
 31
0.0
 11
248.789981
 21
372.508945
 31
0.0
 11
241.848052
 21
375.814483
 31
0.0
 11
235.729529
 21
378.482945
 31
0.0
 11
228.082457
 21
381.294927
 31
0.0
 11
220.886135
 21
383.434238
 31
0.0
 11
214.092644
 21
384.915125
 31
0.0
 11
209.249057
 21
385.466531
 31
0.0
 11
203.875338
 21
385.651250
 31
0.0
 11
199.390119
 21
385.420518
 31
0.0
 11
197.264349
 21
385.158326
 31
0.0
 11
196.516164
 21
385.149580
 31
0.0
 11
196.362069
 21
385.385122
 31
0.0
 11
196.747230
 21
385.902260
 31
0.0
 11
198.471460
 21
386.991086
 31
0.0
 11
202.048467
 21
388.975994
 31
0.0
 11
208.570111
 21
392.216856
 31
0.0
 11
215.582328
 21
395.253522
 31
0.0
 11
221.217530
 21
397.277228
 31
0.0
 11
222.044499
 21
397.517238
 31
0.0
 11
223.360853
 21
397.900727
 31
0.0
 11
224.881612
 21
398.344673
 31
0.0
 11
244.285433
 21
402.014718
 31
0.0
 11
264.673571
 21
402.252044
 31
0.0
 11
284.550009
 21
399.039239
 31
0.0
 11
291.238713
 21
397.067317
 31
0.0
 11
297.940534
 21
394.602689
 31
0.0
 11
304.710200
 21
391.625236
 31
0.0
 11
309.104707
 21
389.392369
 31
0.0
 11
313.416423
 21
387.016523
 31
0.0
 11
315.505862
 21
385.676603
 31
0.0
 11
315.526016
 21
385.254935
 31
0.0
 11
314.762487
 21
385.152732
 31
0.0
 11
313.069340
 21
385.350459
 31
0.0
 11
308.547492
 21
385.628171
 31
0.0
 11
302.857690
 21
385.468594
 31
0.0
 11
297.847702
 21
384.923551
 31
0.0
 11
285.456009
 21
381.775920
 31
0.0
 11
272.037483
 21
376.738433
 31
0.0
 11
258.983864
 21
370.333574
 31
0.0
 11
257.523002
 21
369.536794
 31
0.0
 11
256.423844
 21
368.969727
 31
0.0
 11
255.924354
 21
368.755139
 31
0.0
 11
255.560347
 21
368.907316
 31
0.0
 11
254.816369
 21
369.301667
 31
0.0
 11
253.853487
 21
369.852861
 31
0.0
  0
ENDSEC
  0
SECTION
  2
OBJECTS
  0
DICTIONARY
  5
C
330
0
100
AcDbDictionary
  3
ACAD_GROUP
350
D
  3
ACAD_MLINESTYLE
350
17
  0
DICTIONARY
  5
D
330
C
100
AcDbDictionary
  0
DICTIONARY
  5
1A
330
C
100
AcDbDictionary
  0
DICTIONARY
  5
17
330
C
100
AcDbDictionary
  3
STANDARD
350
18
  0
DICTIONARY
  5
19
330
C
100
AcDbDictionary
  0
ENDSEC
  0
EOF
